<svg width="36" height="43" viewBox="0 0 36 43" xmlns="http://www.w3.org/2000/svg" xmlns:xlink="http://www.w3.org/1999/xlink"><title>industry-trip</title><defs><rect id="a" y="4" width="36" height="38" rx="4"/><mask id="d" x="0" y="0" width="36" height="38" fill="#fff"><use xlink:href="#a"/></mask><rect id="b" x="7" width="6" height="10" rx="2"/><mask id="e" x="0" y="0" width="6" height="10" fill="#fff"><use xlink:href="#b"/></mask><rect id="c" x="21" width="6" height="10" rx="2"/><mask id="f" x="0" y="0" width="6" height="10" fill="#fff"><use xlink:href="#c"/></mask></defs><g transform="translate(0 1)" fill="none" fill-rule="evenodd"><use stroke="#343434" mask="url(#d)" stroke-width="2" xlink:href="#a"/><path d="M5 5V1.426C5 .64 5.796 0 6.775 0h4.45C12.205 0 13 .64 13 1.426V5m10 0V1.426C23 .64 23.796 0 24.775 0h4.45C30.205 0 31 .64 31 1.426V5" stroke="#393939"/><g transform="translate(1 18)"><path d="M3.769 5C1.687 5 0 3.21 0 1m34 0c0 2.21-1.686 4-3.769 4" stroke="#343434"/><use stroke="#343434" mask="url(#e)" stroke-width="2" xlink:href="#b"/><use stroke="#343434" mask="url(#f)" stroke-width="2" xlink:href="#c"/><path d="M12.833 4.98h8.68" stroke="#393939"/><path d="M27 5h4.382M3 5h4.382" stroke="#343434"/></g></g></svg>