<svg id="图层_1" data-name="图层 1" xmlns="http://www.w3.org/2000/svg" viewBox="0 0 44.51 39.8"><defs><style>.cls-1{fill:none;stroke:#343434;}</style></defs><title>case_img7</title><path class="cls-1" d="M600.5,560.5h6m-12,7h6" transform="translate(-594.34 -543)"/><circle class="cls-1" cx="35.16" cy="4.5" r="4"/><path class="cls-1" d="M622.44,554.56l-7.94,7.94a4,4,0,0,0,.61,6.16l6.13,4.08a2,2,0,0,1,.55,2.77l-.1.14-5.19,6.85" transform="translate(-594.34 -543)"/><path class="cls-1" d="M607.5,553.5,611,550a4,4,0,0,1,5.33-.3l13.41,10.53A4,4,0,0,0,635,560l3.47-3.47m-29,14L607.24,574a4,4,0,0,1-2.31,2L594.5,579.5" transform="translate(-594.34 -543)"/></svg>