<svg id="图层_1" data-name="图层 1" xmlns="http://www.w3.org/2000/svg" viewBox="0 0 44.71 44.5"><defs><style>.cls-1{fill:none;stroke:#343434;}</style></defs><title>case_img3</title><path class="cls-1" d="M607.5,570.5v2a12,12,0,0,0,24,0" transform="translate(-593.29 -540.5)"/><circle class="cls-1" cx="38.21" cy="26" r="6"/><path class="cls-1" d="M613.5,542.5h5.7a2,2,0,0,1,2,2.3L618,567.1a4,4,0,0,1-4,3.4H601a4.08,4.08,0,0,1-4-3.4l-3.2-22.3a2.08,2.08,0,0,1,2-2.3h5.7m0-2v4m12-4v4" transform="translate(-593.29 -540.5)"/></svg>