<svg id="图层_1" data-name="图层 1" xmlns="http://www.w3.org/2000/svg" viewBox="0 0 36.55 45.14"><defs><style>.cls-1{fill:none;stroke:#040000;stroke-linecap:round;stroke-linejoin:round;}</style></defs><title>case_img8</title><path class="cls-1" d="M634,565.69c0,12.19-14.85,18.9-17.77,18.9s-17.77-6.71-17.77-18.9,17.77-25.24,17.77-25.24a71.07,71.07,0,0,1,8.89,8C629.56,553.28,634,559.59,634,565.69Z" transform="translate(-597.95 -539.95)"/><path class="cls-1" d="M618.38,553.62a65.6,65.6,0,0,1,2.35,16.09,30,30,0,0,1-4.5,14.88" transform="translate(-597.95 -539.95)"/><path class="cls-1" d="M607.61,566.73a20.78,20.78,0,0,0,3.18,5.56,25.55,25.55,0,0,0,8,6.27m1.94-11.84a6.7,6.7,0,0,0,3.83-3.05,5.89,5.89,0,0,0,1-3.05" transform="translate(-597.95 -539.95)"/></svg>