<?xml version="1.0" encoding="utf-8"?>
<!-- Generator: Adobe Illustrator 18.1.1, SVG Export Plug-In . SVG Version: 6.00 Build 0)  -->
<svg version="1.1" id="Layer_1" xmlns="http://www.w3.org/2000/svg" xmlns:xlink="http://www.w3.org/1999/xlink" x="0px" y="0px"
	 viewBox="0 0 80 80" enable-background="new 0 0 80 80" xml:space="preserve">
<g>
	<circle fill="none" stroke="#7CC7FF" stroke-linecap="round" stroke-miterlimit="10" cx="40" cy="50.1" r="28.5"/>
	<path fill="none" stroke="#7CC7FF" stroke-linecap="round" stroke-miterlimit="10" d="M53.6,36.4c11.1,11.1,14,26.2,6.5,33.7"/>
	<path fill="none" stroke="#7CC7FF" stroke-linecap="round" stroke-miterlimit="10" d="M26.4,63.7C26.4,63.7,26.4,63.7,26.4,63.7
		c-11.2-11.2-14.1-26.3-6.6-33.8c6.6-6.6,18.9-5.2,29.4,2.7"/>
	<path fill="none" stroke="#7CC7FF" stroke-linecap="round" stroke-miterlimit="10" d="M31.5,32.6c12.1-7.5,25.7-7.3,31.5,0.7
		c6.2,8.6,1,23.1-11.7,32.3S23.2,75.4,17,66.8"/>
	<path fill="none" stroke="#7CC7FF" stroke-linecap="round" stroke-miterlimit="10" d="M29.1,62.7c0.7-4.5,2-9.7,3.8-15.1
		C37.8,33.1,44.8,22.3,48.8,23"/>
	<path fill="none" stroke="#7CC7FF" stroke-linecap="round" stroke-miterlimit="10" d="M43.9,60.7c-4.6,10.5-9.8,17.4-13,16.3"/>
	<path fill="none" stroke="#7CC7FF" stroke-linecap="round" stroke-miterlimit="10" d="M50.9,37.4c-0.7,4.4-1.9,9.5-3.7,14.8"/>
	<path fill="none" stroke="#7CC7FF" stroke-linecap="round" stroke-miterlimit="10" d="M41.1,57.5c-0.2,0-0.4,0-0.5,0
		c-15.7,1.2-28.6-1.2-28.9-5.3c-0.3-4.1,12.1-8.4,27.8-9.6c15.7-1.2,28.6,1.2,28.9,5.3"/>
	<circle fill="none" stroke="#7CC7FF" stroke-linecap="round" stroke-miterlimit="10" cx="45.6" cy="56.5" r="4.5"/>
	<circle fill="none" stroke="#7CC7FF" stroke-linecap="round" stroke-miterlimit="10" cx="28.7" cy="34.5" r="3.2"/>
	<circle fill="none" stroke="#7CC7FF" stroke-linecap="round" stroke-miterlimit="10" cx="28.7" cy="65.7" r="2.8"/>
	<circle fill="none" stroke="#7CC7FF" stroke-linecap="round" stroke-miterlimit="10" cx="51.5" cy="34.5" r="2.8"/>
	<line fill="none" stroke="#7CC7FF" stroke-linecap="round" stroke-miterlimit="10" x1="39.6" y1="13.9" x2="39.6" y2="1.5"/>
	<line fill="none" stroke="#7CC7FF" stroke-linecap="round" stroke-miterlimit="10" x1="53.7" y1="17" x2="59.1" y2="5.7"/>
	<line fill="none" stroke="#7CC7FF" stroke-linecap="round" stroke-miterlimit="10" x1="65.2" y1="25.8" x2="74.9" y2="18"/>
	<line fill="none" stroke="#7CC7FF" stroke-linecap="round" stroke-miterlimit="10" x1="26.3" y1="17" x2="20.9" y2="5.7"/>
	<line fill="none" stroke="#7CC7FF" stroke-linecap="round" stroke-miterlimit="10" x1="14.8" y1="25.8" x2="5.1" y2="18"/>
</g>
</svg>
