<svg xmlns="http://www.w3.org/2000/svg" xmlns:xlink="http://www.w3.org/1999/xlink" viewBox="0 0 796.88 196.34"><defs><style>.cls-1{fill:#1d2088;}.cls-2{fill:#1861ae;}.cls-3{fill:#d12f1a;}.cls-4{fill:url(#New_Gradient_Swatch_1);}.cls-5{fill:#f5cb23;}.cls-6{fill:url(#New_Gradient_Swatch_1-2);}.cls-7{fill:url(#New_Gradient_Swatch_1-3);}.cls-8{fill:url(#New_Gradient_Swatch_1-4);}.cls-9{fill:#de2f1a;}.cls-10{font-size:42.22px;fill:#8fc31f;font-family:ZoomlaShiShang-A023, ZoomlaShiShang-A023;}</style><linearGradient id="New_Gradient_Swatch_1" x1="95.75" y1="78.36" x2="152.26" y2="126.59" gradientUnits="userSpaceOnUse"><stop offset="0" stop-color="#d12f1a"/><stop offset="1" stop-color="#a01f24"/></linearGradient><linearGradient id="New_Gradient_Swatch_1-2" x1="175.83" y1="157.53" x2="173.57" y2="125.88" xlink:href="#New_Gradient_Swatch_1"/><linearGradient id="New_Gradient_Swatch_1-3" x1="186.05" y1="65.64" x2="262.91" y2="120.65" xlink:href="#New_Gradient_Swatch_1"/><linearGradient id="New_Gradient_Swatch_1-4" x1="272.12" y1="48.69" x2="309.04" y2="67.53" xlink:href="#New_Gradient_Swatch_1"/></defs><title>资源 1</title><g id="图层_2" data-name="图层 2"><g id="z01"><g id="css4"><path class="cls-1" d="M334.72,60.62H296.81V39h37.91Zm.48,52.78a14.31,14.31,0,0,0,4.32,9.12q7.2,7.2,27.35,7.2l22.55-1.44q-15.84,1.44,27.35-1.92v24H350.07q-17.27,0-28.79-11.52l-15.36,11.52-8.64-32.15,15.36-14.39V90.37H296.81v-23H335.2Zm13.43,7.2q22.06-.47,25.43-9.12a19.89,19.89,0,0,0,1.44-6.24q-3.37,2.41-5.76,4.32-4.8,2.88-9.6,5.28L339.51,99.49q16.79-4.32,21.59-6.72a110.19,110.19,0,0,0,12.48-8.64,21.06,21.06,0,0,1-1.44-2.4q-5.76,4.32-9.6,6.72a80.75,80.75,0,0,1-15.36,6.24l-7.68-13-1.44-2.88a82.16,82.16,0,0,0,18.23-5.28q3.84-1.91,8.16-4.32L363,67.34a114.4,114.4,0,0,1-19.19,6.72L335.2,58.7q13.43-2.88,21.59-6.72H341.43V30.39h72.45V52H400.45l14.39,15.35q-5.28,6.24-10.08,11-2.88,2.88-6.72,6.24,13.43,9.6,18.71,13.91l-10.08,21.11q-5.75-4.79-12.47-9.6-3.37,21.12-27.35,21.59ZM386.54,52q-3.84,2.88-7.2,5.76a53.82,53.82,0,0,1,6.72,8.16,40.82,40.82,0,0,0,5.28-5.28q2.88-2.88,8.16-8.64Z"/><path class="cls-1" d="M419.64,140.27q10.08-20.62,15.36-47l19.67,10.08-10.55,45.1Zm7.68-77.73,34.07,8.64-7.68,24L423,89.41Zm97.88,58.54a77.06,77.06,0,0,0,14.39,6.24l-13,21.11q-18.24-7.68-27.35-19.67-8.16-10.08-13-30.23H483v21.11q3.84-1.44,8.16-2.88L497.85,136a164,164,0,0,0-15.84,7.2,45.71,45.71,0,0,0-4.8,2.88,47.72,47.72,0,0,0-5.76,2.88l-9.12-7.2V40.47L458,64,424,57.74l4.32-26.39,34.07,8.16,21.11.48V31.83H507V40h25.91V98.53h-7.2l10.08,8.64Q529.52,115.33,525.2,121.08ZM483,62.06h28.79V58.22H483Zm28.79,17.75V75.5H483v4.8Zm-1.44,25.43q3.35-3.84,5.76-6.72h-8.64Z"/><path class="cls-1" d="M542.47,59.18V39h9.6l1.44-7.68h15.35l-1,7.68H594.3V59.18H564.55l-2.88,19.67h3.84V64h18.23V78.85h8.64V99h-8.64v5.28l10.08-1,1.44,17.75a81.39,81.39,0,0,0,9.6-12.48q5.76-9.11,5.76-22.55v-4.8a117.09,117.09,0,0,1-8.64,9.6L587.58,69.26q5.27-3.35,13-13.91,5.76-8.15,10.55-25h21.59a99,99,0,0,1-2.88,13.91h29.27V65.42q-2.41,16.32-13,32.15l-13-7.68q3.84,14.88,9.12,22.55t19.67,18.23l-14.4,19.19q-15.36-12-22.07-22.07a24.25,24.25,0,0,0-1.44-2.4q-7.2,13-21.59,25L588.54,127.8l2.88-2.88-7.68,1v23.51H565.5V127.8l-20.63,1.92L542,108.12l23.51-1.92V99h-23l6.72-39.83Zm79.17,6.24-.48.48q2.88-4.32-3.36,5.28h15.35v3.36A45.79,45.79,0,0,0,637,65.42Z"/><path class="cls-1" d="M708.49,35.19q-2.88,10.56-5.76,19.19v94.52H677.3V98.53l-2.88,3.36-6.72-30.71Q680.18,53.43,688.34,29Zm-1,82V91.33h29.75V75.5H727.2A78.29,78.29,0,0,1,721,91.33L702.73,75q7.2-13.43,10.55-37.9h20.15l-1.44,13h5.28V29.91h21.59V50.07H780V75.5H758.87V91.33h24v25.91h-24v31.67H737.28V117.24Z"/></g><g id="css3"><path class="cls-2" d="M253.85,187.84q-1.1,1.37-1.8,2.4a29.39,29.39,0,0,1-5.63-3.46v1.83h-8v3.46h13v2.17H222.93v-2.17h13v-3.46H227.9v-1.81a37.37,37.37,0,0,1-5.53,3.85,21.73,21.73,0,0,0-1.73-2.1,31.78,31.78,0,0,0,8.88-6.33H221V180h6.63V168.88H222v-2.16h5.6v-3.6h2.5v3.6h14.29v-3.6h2.5v3.6h5.6v2.16h-5.6V180h6.53v2.17h-8.76A24.09,24.09,0,0,0,253.85,187.84ZM236,183.28h2.5v3.23h7.63a30,30,0,0,1-4.35-4.3h-9.18a43.73,43.73,0,0,1-4.33,4.3H236Zm-5.83-12.06h14.29v-2.33H230.13Zm0,4.4h14.29v-2.33H230.13Zm0,4.43h14.29v-2.36H230.13Z"/><path class="cls-2" d="M254.38,182a45.52,45.52,0,0,0,5.43-13.76h-4.33v-2.2h11.83v2.2H262a59.1,59.1,0,0,1-2.1,7.33H266v17h-2.2v-2.23h-3.67v3.16h-2.2V180.33q-.88,1.83-1.9,3.51A15.35,15.35,0,0,0,254.38,182Zm9.43-4.3h-3.67v10.49h3.67Zm19.79,2v-1.57h-4.83v13.39h5.43v-9.6h2.47v13.49H284.2v-1.5H268.47v-12h2.47v9.6h5.36V178.15h-7.23V166.92h2.47v8.83h4.77V163.45h2.47v12.29h4.83V167h2.47v12.76Z"/><path class="cls-2" d="M292.43,178.88h4.06v-6.73h2.33v6.73h4.56v2.2h-4.56v5q2.79-.32,5.43-.65c-.11.84-.19,1.62-.23,2.33q-2.47.27-5.2.6v7.53h-2.33v-7.26l-7.19.93-.3-2.5q3.87-.37,7.5-.75v-5.28h-6.56V179q1.85-4.7,3.13-8.5h-3.53v-2.2h4.25q.93-3,1.45-5.33l2.67.53q-.78,2.43-1.58,4.8h6.95v2.2h-7.7Q294,174.81,292.43,178.88Zm17.69-6.33h2.6q0,3.46-.14,6.4,2.62,11.39,9.86,14.69l-2.1,2.3q-6.07-3.36-8.68-12-1.78,7.55-9.58,12.21c-.51-.73-1.08-1.47-1.7-2.2q9.1-5,9.63-14.86Q310.12,177,310.11,172.55Zm-8.33,3.67A49.85,49.85,0,0,0,307.88,163l2.63.7q-.92,2.6-1.9,4.93h13.09v2.23l-3.46,6.43-2.6-.57,3-5.8h-11a59.32,59.32,0,0,1-3.57,6.73Q303.09,177,301.79,176.21Z"/><path class="cls-2" d="M322.88,179.88a57.89,57.89,0,0,0,7.4-16.46l2.73.8q-1.23,3.88-2.67,7.28v24.4h-2.63V177a49.5,49.5,0,0,1-3.63,5.78A28.82,28.82,0,0,0,322.88,179.88Zm10,2h11.56v-8.43h-6.34a45.07,45.07,0,0,1-3,6.4,16.24,16.24,0,0,0-2.2-1.76,44,44,0,0,0,4.66-12.43l2.7.77q-.65,2.48-1.4,4.7h5.53v-7.73h2.67v7.73h8v2.33h-8v8.43h9.06v2.33h-9.06v11.66h-2.67V184.21H332.91Z"/><path class="cls-2" d="M357.19,184h24.69v2.53H357.19Zm5.63-5.2v-2.53l1.33-13.16h2.77l-.52,5.3H390V171H366.17l-.51,5.33h22q-.4,7-.9,13-.47,3.53-2,4.77t-5,1.2q-3.28,0-7.58-.13-.2-1.13-.57-2.9,5.07.37,7.56.4,4.46.3,4.86-3.5.44-4.43.73-10.33Z"/><path class="cls-2" d="M391.41,191.47h15.46V183H395.07v-2.57h11.79v-7.7h-8.79a39.83,39.83,0,0,1-5.1,7.23,18.53,18.53,0,0,0-1.8-2.33,38.77,38.77,0,0,0,7.43-12.86l2.73.73q-.88,2.43-2,4.66h7.48v-7.06h2.87v7.06h12.73v2.57H409.73v7.7h11.79V183H409.73v8.5h14.53V194H391.41Z"/><path class="cls-2" d="M428.82,176.58h15.76q2.25-3.31,4-6.6l2.57,1.63q-1.76,2.48-3.7,5h9.86v2.33H431.52v2.33a31.91,31.91,0,0,1-.9,8.79,15.24,15.24,0,0,1-3.53,6.06q-.87-1.07-1.8-2.26a11.8,11.8,0,0,0,2.77-4.93,30.17,30.17,0,0,0,.76-7.66Zm-2.73-9.53h15.21q-.73-1.37-1.61-2.8l2.47-1.23q1.08,1.77,2.21,4H458.2v2.36H426.09Zm7,4.26,2.2-1.47q2.07,2.6,3.67,4.93l-2.36,1.63A55.11,55.11,0,0,0,433,171.32Z"/><path class="cls-2" d="M461.1,170.68h10.8q.1-3.67.13-7.46h2.9q-.07,3.53-.17,7.46H490q-.4,13-.77,18.42-.43,5.73-6.13,5.8-2.73,0-6.6-.13c-.09-.87-.26-1.92-.5-3.17h.1q4.33.4,6.73.37,3.23-.07,3.57-3.56.4-6,.6-15H474.69q-.3,8.68-2.77,13.06-2.63,4.86-10.26,9.36-.93-1.2-2-2.53,7.23-4.06,9.49-8.19,2.35-3.75,2.63-11.69H461.1Z"/><path class="cls-2" d="M494,181.25h14.76V167.32H495.48v-2.57h29.45v2.57H511.54v13.93h14.86v2.56H511.54v12.26h-2.8V183.81H494Zm3.2-10.26,2.1-1.47a87.46,87.46,0,0,1,6.43,8.43l-2.36,1.76A93.56,93.56,0,0,0,497.18,171Zm17,6.93a54.48,54.48,0,0,0,6.6-8.53l2.5,1.6a93.76,93.76,0,0,1-7,8.66Z"/><path class="cls-2" d="M551.25,167.55q5.23,4.86,9.9,10l-2.36,2q-1.33-1.56-2.7-3.08-15,.63-22.85,1.08a22.49,22.49,0,0,0-3.53.53l-1.1-2.87a9.69,9.69,0,0,0,2.76-1.57,66.58,66.58,0,0,0,10.43-10.76l2.5,1.53a88.88,88.88,0,0,1-10.43,10.43q10.21-.32,20.09-.73-2.28-2.48-4.63-4.83Zm4.9,13.22V195.9h-2.73v-2.2H535.09v2.2h-2.73V180.78Zm-2.73,2.47H535.09v8.06h18.32Z"/><path class="cls-2" d="M564.18,165.09h9.39v27q0,3.33-3.1,3.33-1.7,0-3.16-.1-.14-1-.4-2.37a19.27,19.27,0,0,0,2.93.27,1.21,1.21,0,0,0,1.37-1.37v-7.66h-4.66q.1,7.66-2.77,11.69a11.2,11.2,0,0,0-1.83-1.87q2.23-3.43,2.23-9.73Zm7,2.17h-4.66v6.4h4.66Zm-4.66,14.89h4.66v-6.43h-4.66Zm9.79-16.92h16.46q-.17,2.7-.27,4.26-.27,5.16-5.26,5.06l-4.3-.13q-.2-1.3-.43-2.63,2.47.3,4.43.37a2.66,2.66,0,0,0,3.1-2.73q.1-.87.17-1.9H578.87v9.6h14.06v2A24.35,24.35,0,0,1,588,189.26a19.93,19.93,0,0,0,7.15,4.25q-1.13,1.33-1.93,2.4a24.18,24.18,0,0,1-6.95-4.76,27.75,27.75,0,0,1-6,4.43q-.63-1.1-1.37-2.2a23.17,23.17,0,0,0,5.75-4.06,22.31,22.31,0,0,1-4.28-10h-1.57v16.56h-2.53Zm14,14.06h-7.58a19.7,19.7,0,0,0,3.68,8.16A21.07,21.07,0,0,0,590.29,179.28Z"/><path class="cls-2" d="M605.55,162.82l2.5,1.07q-.75,1.23-1.57,2.4h18v2.23A27,27,0,0,1,616,175.1a48.06,48.06,0,0,0,13.34,2.52q-1.07,1.5-1.87,2.8a50.44,50.44,0,0,1-14.56-3.88A73.21,73.21,0,0,1,597,181q-.57-1-1.37-2.33A71.13,71.13,0,0,0,610.08,175a20.51,20.51,0,0,1-6.08-5.48,46.13,46.13,0,0,1-5.71,5.68q-1-1.07-1.83-1.8A33.16,33.16,0,0,0,605.55,162.82Zm-7,19.52h9.7q.23-1.62.4-3.6h2.7q-.21,2-.45,3.6h13.44q-.33,6-.63,8.36-.53,4.7-5.6,4.73-2,0-5.9-.13-.2-1.23-.5-2.76,3.83.33,6.33.37a2.88,2.88,0,0,0,3.13-2.86q.3-2.5.43-5.33H610.5q-1.77,8-12.41,11.63-.77-1.1-1.63-2.23,9.56-3.1,11.33-9.39h-9.23Zm22.39-13.86H606.07a20.85,20.85,0,0,0,6.9,5.3A29.16,29.16,0,0,0,620.94,168.48Z"/><path class="cls-2" d="M630.3,166.79h15.21q-.64-1.18-1.55-2.63l2.57-1.17q1,1.72,2.1,3.8H663v2.36H630.3Zm2.43,7.13h8.09q-1.15-1.68-2.5-3.33l2-1.37q1.6,1.87,2.9,3.46l-1.8,1.23H649a43.31,43.31,0,0,0,3.1-4.56l2.53,1.47q-1.58,1.88-2.67,3.1h8.29v17.46q0,4.2-3.83,4.23-2.07,0-4.66,0a25.4,25.4,0,0,0-.5-2.8q2.63.26,4.33.27,2.17,0,2.17-2.4V176.21H635.24V196h-2.5Zm9.76,2.67,1.8,1.73q-3.9,3.33-7.3,5.86a22.5,22.5,0,0,0-1.57-2A53.34,53.34,0,0,0,642.5,176.58Zm-2.57,16.13V182h13.36v9h-11v1.77Zm11-3.9v-4.7h-8.56v4.7Zm-2.53-10.39,1.47-1.83q4.94,3.1,7.46,5l-1.67,2.1A84.84,84.84,0,0,0,648.36,178.41Z"/><path class="cls-2" d="M679.53,191.56H664.23v-1.08l10.71-14.64h-9.71v-2.7h14.36v1.07l-10.65,14.66h10.58Z"/><path class="cls-2" d="M681.94,179.16q0-6.83,2.26-10.34a7.34,7.34,0,0,1,6.56-3.51q8.19,0,8.19,13.22,0,6.53-2.31,10a7.35,7.35,0,0,1-6.47,3.46,6.88,6.88,0,0,1-6.09-3.28Q681.94,185.43,681.94,179.16Zm3.33-.15q0,10.28,5.21,10.28t5.13-10.44q0-10.81-5-10.81Q685.27,168,685.27,179Z"/><path class="cls-2" d="M718.37,191.56H703.58v-2.81h5.78V169.15l-5.93,1.72v-3l9.18-2.66v23.54h5.76Z"/><path class="cls-2" d="M722.42,189.84a2.06,2.06,0,0,1,.61-1.52,2.16,2.16,0,0,1,3.7,1.52,2,2,0,0,1-.61,1.49,2.11,2.11,0,0,1-1.57.62,2.1,2.1,0,0,1-2.13-2.12Z"/><path class="cls-2" d="M744.29,190.72a9.75,9.75,0,0,1-5.1,1.27,8.44,8.44,0,0,1-6.43-2.57,9.27,9.27,0,0,1-2.43-6.65,10.19,10.19,0,0,1,2.62-7.3,9.21,9.21,0,0,1,7-2.77,9.59,9.59,0,0,1,4.33.9v3.23A7.14,7.14,0,0,0,740,175.4a5.86,5.86,0,0,0-4.55,1.94,7.41,7.41,0,0,0-1.76,5.17,7.08,7.08,0,0,0,1.66,5,5.79,5.79,0,0,0,4.47,1.8,7.42,7.42,0,0,0,4.5-1.57Z"/><path class="cls-2" d="M747.44,182.54a9.94,9.94,0,0,1,2.55-7.2,9.16,9.16,0,0,1,6.91-2.64,8.43,8.43,0,0,1,6.5,2.54,11.37,11.37,0,0,1-.16,14.07A8.8,8.8,0,0,1,756.5,192a8.67,8.67,0,0,1-6.6-2.6A9.54,9.54,0,0,1,747.44,182.54Zm3.33-.1a7.33,7.33,0,0,0,1.61,5,5.46,5.46,0,0,0,4.32,1.83A5.18,5.18,0,0,0,761,187.5a9.79,9.79,0,0,0,0-10.3,5.18,5.18,0,0,0-4.26-1.8,5.38,5.38,0,0,0-4.34,1.88A7.75,7.75,0,0,0,750.77,182.44Z"/><path class="cls-2" d="M796.88,191.56h-3.26V181a7.52,7.52,0,0,0-.93-4.29,3.53,3.53,0,0,0-3.07-1.29,3.78,3.78,0,0,0-3.08,1.68,6.37,6.37,0,0,0-1.28,4v10.49H782V180.65q0-5.25-4-5.25a3.73,3.73,0,0,0-3.09,1.6,6.51,6.51,0,0,0-1.23,4.08v10.48h-3.26V173.13h3.26V176h.07a6.28,6.28,0,0,1,5.75-3.35,5.45,5.45,0,0,1,3.26,1,5.23,5.23,0,0,1,2,2.75,6.59,6.59,0,0,1,6.13-3.76q6.08,0,6.08,7.5Z"/></g><path class="cls-3" d="M200.84,68.68c-4.71,5.3-12.5,2.71-18,.28a58.56,58.56,0,0,1-12-7.12,113.61,113.61,0,0,1-12.47-11.52C150.35,42,143,32.88,134,25.6c-6.59-5.32-14.77-9.84-23.53-8.32a19.68,19.68,0,0,0-8.78,3.7L96,25.4,74.37,42.13,46.06,64.06,19.28,84.81,2.27,98,0,99.76c6.72-3.56,14.13-3.19,21.15-.77h0c9.55,3.46,17.69,10.41,25,17.22,8.79,8.16,16.86,17,25.29,25.56,7.94,8,16.22,16,25.83,22a87.43,87.43,0,0,0,13.14,6.86,28.24,28.24,0,0,0,10.14,2.5,9.61,9.61,0,0,0,8.3-4l.69-1,4.06-5.66,16-22.26,20.92-29.19L189.79,84.2l11.06-15.43.73-1a11.29,11.29,0,0,1-.74.93Z"/><path class="cls-4" d="M129.56,168.23l42.73-59.6,29.05-40.53c-2.55,3.56-6.57,4.47-10.68,3.79-5.22-.85-10.33-3.39-14.82-6.09C165.79,59.74,157.91,50.55,150,42c-4-4.38-8.1-8.75-12.51-12.77-4.15-3.78-8.66-7.36-13.81-9.68a23.07,23.07,0,0,0-16.84-1.22,13.3,13.3,0,0,0-4,1.85L90,30.23l-25,19.41L36.25,71.88,12.41,90.37,1.85,98.56l0,0c10.73-5.12,22.29-.65,31.47,5.58,9.78,6.63,18.15,15.23,26.34,23.68s16.26,17.18,25.16,25a101.85,101.85,0,0,0,13.85,10.41,78.41,78.41,0,0,0,14.9,7.38c5.38,1.87,12.18,3,16-2.36"/><path class="cls-5" d="M128.88,47.46l-9.42,2.35-12.36-8,5,10-11,4,14.4,4.28,5,14.08,3.79-10.61,12.92,4.79L126.23,56.8l2.65-9.34"/><polyline class="cls-5" points="157.48 70.3 154.36 70.26 152.23 67.41 152.18 70.11 148.94 69.91 152.34 71.96 152.47 74.65 154.53 73.02 158.35 74.51 155.78 71.92 157.48 70.3"/><path class="cls-5" d="M160.95,80.92,159.62,83a32.15,32.15,0,0,1-4-.4c.72.45,1.8,1.12,3.24,1.86l-1.22,2.17c1.35-.24,1.35-.24,3.33-1.33a13.16,13.16,0,0,0,3.56.57,10.33,10.33,0,0,0-1.42-1.56,17.37,17.37,0,0,0,3-1.66,13.3,13.3,0,0,1-4,.43c-.1-.8-.1-.8-1.2-2.16"/><path class="cls-5" d="M137.8,95l-3.73.14-2.55-3.25.11,3.42-3.69,0,3.88,2.12.39,3.33,2.17-2.22a26.14,26.14,0,0,0,4.21,1.48l-2.9-2.89L137.8,95"/><path class="cls-5" d="M155.18,92.07a8.92,8.92,0,0,1-2.86,1.7,33.31,33.31,0,0,1-3.73-1.38l2,2.6c-1.29.81-1.48.94-2.78,1.72,3,.05,3.57-.14,4-.32.79.63,1.66,1.16,2.43,1.82a11.41,11.41,0,0,0,.43-2.28,14.34,14.34,0,0,0,3.92-1.34,11.76,11.76,0,0,1-3.74-.13c.09-.63.2-1.34.31-2.39"/><path class="cls-6" d="M129.56,169.66l7.29-10.2L154.31,135l21.07-29.51,18.1-25.34,8.54-12c3-4.17,3.89-9.61,4.9-14.53,1.44-7,2.65-14.86,7.15-20.72l-7.92,10.32L187.4,67.68,165.34,96.4,147.5,119.65c-3.64,4.74-7.86,9.37-9.86,15.08-2.07,5.89-2.69,12.2-3.5,18.36-.72,5.49-1.26,11.92-4.58,16.57"/><path class="cls-3" d="M296.4,53c-1.77,2.81-5.67,3.54-8.75,3.48a24.07,24.07,0,0,1-10.17-2.89,88.09,88.09,0,0,1-13.56-9c-4.76-3.63-9.43-7.39-14.4-10.74-6.83-4.62-15-9.13-23.54-8.13a18.17,18.17,0,0,0-11.72,6c-.4.47-.78,1-1.16,1.45L201.93,47.62,181.67,73.89l-21.8,28.27-15.81,20.5-3.49,4.52c5.8-7.51,16-8.36,24.58-6,9.43,2.58,17.86,8.2,25.67,13.89,9.48,6.9,18.38,14.6,28,21.25,7,4.79,15,9.69,23.64,10.1,3.92.13,9-.47,10.68-4.64l.35-.89,2.53-6.34,10.27-25.8,13.34-33.52,11.75-29.5L296.91,52l0-.07A6.35,6.35,0,0,1,296.4,53Z"/><path class="cls-7" d="M253.62,160.67l4.91-12.32,11.52-28.95,13.36-33.55,10.4-26.12,3-7.49c-2,4.94-8.89,5.05-13.24,4-5.54-1.33-10.5-4.6-15.07-7.87-9.36-6.69-18-14.89-28.57-19.69C234.75,26.35,229,25,223.39,26.38a17.84,17.84,0,0,0-10.07,6.48l-2.71,3.51L195.46,56,173.79,84.11l-20.45,26.52-11.49,14.9-.56.73c7.3-9.48,20.63-8.11,30.46-4,10.9,4.6,20.43,12.14,29.69,19.37,8.3,6.48,16.51,13.34,25.75,18.46a38.88,38.88,0,0,0,14,5c4.29.51,10.58.2,12.46-4.5"/><path class="cls-8" d="M277.13,99.23c1.27.33,1.05.47,1.44-.51l1-2.58,3.8-9.57,12-30.26,13-32.68,8-20.22L317,2C310.26.59,302.8-.85,295.94.61c-3.06.65-6,2.12-7.54,5l-.56,1.06L278.26,25l-16.08,30.8L246.62,85.61l-8,15.32-.12.23c3.05-5.85,10.95-6.2,16.71-5.91a104.54,104.54,0,0,1,21.91,4Z"/><path class="cls-9" d="M274.16,98.46q1.7.43,3.39.89c.41.11.74,0,.64.46l-.13.59a137.82,137.82,0,0,0-16.48-3.61c-5.28-.77-11.15-1.39-16.32.28-11.88,3.84-5.79,19.18-2.58,27.18,2.22,5.52,4.73,10.91,7,16.39,2.11,5,4.36,10.31,5,15.78a10.78,10.78,0,0,1-1.08,6.84,8,8,0,0,1-4.89,3.32c-5.42,1.45-11.25.2-16.34-1.86a77.37,77.37,0,0,1-15.12-8.7c-4.89-3.44-9.58-7.13-14.28-10.81-9.23-7.22-18.53-14.78-29.12-19.94-9.23-4.5-22-7.5-30.51.25-3.91,3.58-5.83,8.75-7,13.79-1.33,5.68-1.81,11.5-2.67,17.26-.73,4.89-1.58,10.82-5.26,14.48s-9.44,3-14.06,1.61a71.39,71.39,0,0,1-14.83-6.92,98,98,0,0,1-13.94-10c-9.06-7.65-17.18-16.35-25.41-24.87s-16.57-17.22-26.23-24.17c-5.06-3.64-10.64-6.86-16.77-8.27A25.12,25.12,0,0,0,7.72,98,22.91,22.91,0,0,0,3,99.24a24.09,24.09,0,0,0-2.24,1c-.47.24-.5-.09-.79-.48,10.81-5.68,22.67-1.33,32.1,5,9.82,6.6,18.23,15.2,26.43,23.66s16.31,17.23,25.22,25.05c8.46,7.43,18.09,14.14,28.77,18,4.43,1.58,10.22,3,14.33-.14s5.1-9.11,5.86-13.85c.93-5.82,1.38-11.72,2.62-17.49,1.08-5.05,2.79-10.26,6.39-14.11,7.8-8.34,20.62-6.44,30-2.32,10.88,4.76,20.4,12.34,29.69,19.6s18.32,15,28.92,19.95c4.91,2.29,10.37,3.9,15.82,3.16,2.18-.29,4.45-.94,5.93-2.67a8.73,8.73,0,0,0,1.68-6.24c-.27-5.37-2.52-10.66-4.55-15.56-2.26-5.45-4.76-10.8-7-16.26-2.15-5.23-4.3-10.72-4.86-16.39-.49-5,.84-9.86,5.64-12.18,4.63-2.24,10.32-2,15.3-1.46a111.06,111.06,0,0,1,15.86,3Z"/><polygon class="cls-9" points="278.25 99.53 317 1.99 316.84 2.65 278.05 100.39 278.25 99.53"/><text class="cls-10" transform="translate(39.66 114.66)">国庆</text></g></g></svg>