<svg xmlns="http://www.w3.org/2000/svg" xmlns:xlink="http://www.w3.org/1999/xlink" viewBox="0 0 762.55 190.7"><defs><style>.cls-1{fill:#1d2088;}.cls-2{fill:#1861ae;}.cls-3{fill:#468ccb;}.cls-4,.cls-5{fill:#fff;}.cls-5{fill-rule:evenodd;}.cls-6{fill:#f7fcfe;}.cls-7{fill:url(#linear-gradient);}.cls-8{fill:url(#radial-gradient);}.cls-9{fill:url(#linear-gradient-2);}.cls-10{fill:#f9ceb7;}.cls-11{fill:#231815;}.cls-12{fill:url(#radial-gradient-2);}.cls-13{fill:url(#radial-gradient-3);}.cls-14{fill:url(#radial-gradient-4);}.cls-15{fill:#494540;}</style><linearGradient id="linear-gradient" x1="49.93" y1="-227.89" x2="50.44" y2="-227.89" gradientTransform="matrix(301.39, 0, 0, -301.39, -15012.34, -68641.41)" gradientUnits="userSpaceOnUse"><stop offset="0" stop-color="#e72728"/><stop offset="0.01" stop-color="#e72728"/><stop offset="0.68" stop-color="#ce0e19"/><stop offset="0.99" stop-color="#be1119"/><stop offset="1" stop-color="#be1119"/></linearGradient><radialGradient id="radial-gradient" cx="-476.42" cy="-1703.25" r="0.29" gradientTransform="matrix(521.05, 0, 0, -483.27, 248326.59, -823141.01)" gradientUnits="userSpaceOnUse"><stop offset="0" stop-color="#ceb499"/><stop offset="0.51" stop-color="#cab39a"/><stop offset="1" stop-color="#b4a792"/></radialGradient><linearGradient id="linear-gradient-2" x1="49.93" y1="-227.88" x2="50.44" y2="-227.88" gradientTransform="matrix(301.39, 0, 0, -301.39, -15012.34, -68641.41)" gradientUnits="userSpaceOnUse"><stop offset="0" stop-color="#df2023"/><stop offset="0.01" stop-color="#df2023"/><stop offset="0.68" stop-color="#c7111a"/><stop offset="0.99" stop-color="#b7131b"/><stop offset="1" stop-color="#b7131b"/></linearGradient><radialGradient id="radial-gradient-2" cx="48.31" cy="-225.43" r="0.29" gradientTransform="matrix(180.87, 0, 0, -167.76, -8643.39, -37710.98)" gradientUnits="userSpaceOnUse"><stop offset="0" stop-color="#f6bba7"/><stop offset="0.39" stop-color="#f5b9a5"/><stop offset="0.61" stop-color="#f4b39c"/><stop offset="0.79" stop-color="#f0a98e"/><stop offset="0.95" stop-color="#ec9b7b"/><stop offset="1" stop-color="#ea9673"/></radialGradient><radialGradient id="radial-gradient-3" cx="47.89" cy="-225.63" r="0.29" gradientTransform="matrix(195.61, 0, 0, -181.43, -9226.33, -40824.9)" xlink:href="#radial-gradient-2"/><radialGradient id="radial-gradient-4" cx="41.47" cy="-220.22" r="0.29" gradientTransform="matrix(45.38, 0, 0, -56.95, -1788.41, -12442.21)" gradientUnits="userSpaceOnUse"><stop offset="0" stop-color="#fbd6b3"/><stop offset="0.22" stop-color="#f9d1af"/><stop offset="0.51" stop-color="#f5c1a5"/><stop offset="0.81" stop-color="#eda894"/><stop offset="1" stop-color="#e79587"/></radialGradient></defs><title>资源 4</title><g id="图层_2" data-name="图层 2"><g id="z01"><g id="css4"><path class="cls-1" d="M231.53,41.19H187.8V16.28h43.73Zm.55,60.89a16.51,16.51,0,0,0,5,10.52q8.3,8.3,31.55,8.3,8.3-.55,26-1.66-18.27,1.66,31.55-2.21v27.68H249.24q-19.92,0-33.21-13.28l-17.72,13.28-10-37.09L206.07,91V75.51H187.8V48.94h44.28Zm15.5,8.3q25.45-.55,29.34-10.52a22.94,22.94,0,0,0,1.66-7.19q-3.88,2.78-6.64,5-5.54,3.32-11.07,6.09L237.06,86q19.37-5,24.91-7.75a127.12,127.12,0,0,0,14.39-10,24.3,24.3,0,0,1-1.66-2.77q-6.64,5-11.07,7.75a93.15,93.15,0,0,1-17.72,7.2l-8.85-14.95-1.66-3.32a94.78,94.78,0,0,0,21-6.09q4.43-2.21,9.41-5l-1.66-2.21A132,132,0,0,1,242,56.69L232.08,39q15.49-3.32,24.91-7.75H239.28V6.32h83.58V31.23h-15.5L324,48.94q-6.09,7.2-11.62,12.73Q309,65,304.6,68.87q15.49,11.08,21.59,16.05l-11.63,24.36q-6.64-5.53-14.39-11.07-3.88,24.36-31.55,24.91Zm43.73-79.16q-4.44,3.32-8.3,6.64a62.09,62.09,0,0,1,7.75,9.41,47.1,47.1,0,0,0,6.09-6.09q3.32-3.32,9.41-10Z"/><path class="cls-1" d="M329.5,133.08q11.63-23.79,17.72-54.25l22.69,11.63-12.18,52Zm8.86-89.67,39.3,10L368.81,81l-35.43-6.64Zm112.92,67.53a88.9,88.9,0,0,0,16.61,7.19l-14.95,24.36q-21-8.86-31.55-22.7Q412,108.17,406.45,84.92h-3.88v24.36Q407,107.62,412,106l7.75,22.14a189.2,189.2,0,0,0-18.27,8.3,52.74,52.74,0,0,0-5.54,3.32,55,55,0,0,0-6.64,3.32l-10.52-8.3V17.94l-5,27.12-39.3-7.2,5-30.45,39.3,9.41,24.35.55V8h27.13v9.41h29.89V84.92h-8.3l11.62,10Q456.26,104.31,451.28,110.94ZM402.57,42.85h33.21V38.43H402.57Zm33.21,20.48v-5H402.57v5.54Zm-1.66,29.34q3.87-4.43,6.64-7.75h-10Z"/><path class="cls-1" d="M471.21,39.53V16.28h11.07l1.66-8.86h17.71l-1.11,8.86H531V39.53H496.67l-3.32,22.7h4.43V45.07h21V62.23h10V85.48h-10v6.09l11.63-1.11,1.66,20.48a93.89,93.89,0,0,0,11.07-14.39q6.64-10.51,6.64-26V65a135.08,135.08,0,0,1-10,11.07L523.24,51.16q6.09-3.87,14.95-16.05,6.64-9.41,12.18-28.78h24.91A114.24,114.24,0,0,1,572,22.37h33.76V46.73q-2.78,18.83-14.95,37.09L575.83,75q4.43,17.16,10.52,26T609,122l-16.61,22.14Q574.71,130.31,567,118.69a28,28,0,0,0-1.66-2.77q-8.3,14.94-24.91,28.78l-16.06-26,3.32-3.32-8.86,1.11V143.6h-21V118.69L474,120.9,470.65,96l27.12-2.21v-8.3H471.21L479,39.53Zm91.34,7.2-.55.55q3.32-5-3.88,6.09h17.71v3.87a52.82,52.82,0,0,0,4.43-10.52Z"/><path class="cls-1" d="M662.73,11.86Q659.41,24,656.09,34V143H626.75V84.92l-3.32,3.87-7.75-35.43q14.39-20.47,23.8-48.71Zm-1.11,94.65V76.62h34.32V58.35H684.32a90.32,90.32,0,0,1-7.19,18.27l-21-18.82q8.3-15.49,12.18-43.73h23.25L689.86,29h6.09V5.77h24.91V29h24.36V58.35H720.85V76.62h27.68v29.89H720.85V143H695.94V106.51Z"/></g><g id="css3"><path class="cls-2" d="M219.52,182.2q-1.1,1.37-1.8,2.4a29.39,29.39,0,0,1-5.63-3.46V183h-8v3.46h13v2.17H188.6v-2.17h13V183h-8.06v-1.81A37.37,37.37,0,0,1,188,185a21.73,21.73,0,0,0-1.73-2.1,31.78,31.78,0,0,0,8.88-6.33h-8.51V174.4h6.63V163.24h-5.6v-2.16h5.6v-3.6h2.5v3.6h14.29v-3.6h2.5v3.6h5.6v2.16h-5.6V174.4h6.53v2.17h-8.76A24.09,24.09,0,0,0,219.52,182.2Zm-17.89-4.56h2.5v3.23h7.63a30,30,0,0,1-4.35-4.3h-9.18a43.73,43.73,0,0,1-4.33,4.3h7.73Zm-5.83-12.06h14.29v-2.33H195.8Zm0,4.4h14.29v-2.33H195.8Zm0,4.43h14.29V172H195.8Z"/><path class="cls-2" d="M220.05,176.4a45.52,45.52,0,0,0,5.43-13.76h-4.33v-2.2H233v2.2H227.7a59.1,59.1,0,0,1-2.1,7.33h6.08v17h-2.2v-2.23h-3.67v3.16h-2.2V174.69q-.88,1.83-1.9,3.51A15.35,15.35,0,0,0,220.05,176.4Zm9.43-4.3h-3.67V182.6h3.67Zm19.79,2V172.5h-4.83V185.9h5.43v-9.6h2.47v13.49h-2.47v-1.5H234.14v-12h2.47v9.6H242V172.5h-7.23V161.28h2.47v8.83H242V157.81h2.47v12.29h4.83v-8.79h2.47v12.76Z"/><path class="cls-2" d="M258.1,173.24h4.06v-6.73h2.33v6.73h4.56v2.2h-4.56v5q2.79-.32,5.43-.65c-.11.84-.19,1.62-.23,2.33q-2.47.27-5.2.6v7.53h-2.33V183L255,184l-.3-2.5q3.87-.37,7.5-.75v-5.28H255.6v-2.1q1.85-4.7,3.13-8.5H255.2v-2.2h4.25q.93-3,1.45-5.33l2.67.53q-.78,2.43-1.58,4.8h6.95v2.2h-7.7Q259.71,169.17,258.1,173.24Zm17.69-6.33h2.6q0,3.46-.14,6.4,2.62,11.39,9.86,14.69l-2.1,2.3q-6.07-3.36-8.68-12-1.78,7.55-9.58,12.21c-.51-.73-1.08-1.47-1.7-2.2q9.1-5,9.63-14.86Q275.79,171.41,275.78,166.91Zm-8.33,3.67a49.85,49.85,0,0,0,6.09-13.26l2.63.7q-.92,2.6-1.9,4.93h13.09v2.23l-3.46,6.43-2.6-.57,3-5.8h-11a59.32,59.32,0,0,1-3.57,6.73Q268.76,171.34,267.46,170.57Z"/><path class="cls-2" d="M288.55,174.24a57.89,57.89,0,0,0,7.4-16.46l2.73.8q-1.23,3.88-2.67,7.28v24.4h-2.63V171.36a49.5,49.5,0,0,1-3.63,5.78A28.82,28.82,0,0,0,288.55,174.24Zm10,2h11.56v-8.43h-6.34a45.07,45.07,0,0,1-3,6.4,16.24,16.24,0,0,0-2.2-1.76A44,44,0,0,0,303.3,160l2.7.77q-.65,2.48-1.4,4.7h5.53v-7.73h2.67v7.73h8v2.33h-8v8.43h9.06v2.33H312.8v11.66h-2.67V178.57H298.58Z"/><path class="cls-2" d="M322.86,178.4h24.69v2.53H322.86Zm5.63-5.2v-2.53l1.33-13.16h2.77l-.52,5.3h23.64v2.53H331.84l-.51,5.33h22q-.4,7-.9,13-.47,3.53-2,4.77t-5,1.2q-3.28,0-7.58-.13-.2-1.13-.57-2.9,5.07.37,7.56.4,4.46.3,4.86-3.5.44-4.43.73-10.33Z"/><path class="cls-2" d="M357.07,185.83h15.46v-8.5H360.74v-2.57h11.79v-7.7h-8.79a39.83,39.83,0,0,1-5.1,7.23,18.53,18.53,0,0,0-1.8-2.33,38.77,38.77,0,0,0,7.43-12.86l2.73.73q-.88,2.43-2,4.66h7.48v-7.06h2.87v7.06h12.73v2.57H375.4v7.7h11.79v2.57H375.4v8.5h14.53v2.5H357.07Z"/><path class="cls-2" d="M394.49,170.94h15.76q2.25-3.31,4-6.6l2.57,1.63q-1.76,2.48-3.7,5H423v2.33H397.19v2.33a31.91,31.91,0,0,1-.9,8.79,15.24,15.24,0,0,1-3.53,6.06q-.87-1.07-1.8-2.26a11.8,11.8,0,0,0,2.77-4.93,30.17,30.17,0,0,0,.76-7.66Zm-2.73-9.53H407q-.73-1.37-1.61-2.8l2.47-1.23q1.08,1.77,2.21,4h13.84v2.36H391.75Zm7,4.26,2.2-1.47q2.07,2.6,3.67,4.93l-2.36,1.63A55.11,55.11,0,0,0,398.72,165.68Z"/><path class="cls-2" d="M426.77,165h10.8q.1-3.67.13-7.46h2.9q-.07,3.53-.17,7.46h15.29q-.4,13-.77,18.42-.43,5.73-6.13,5.8-2.73,0-6.6-.13c-.09-.87-.26-1.92-.5-3.17h.1q4.33.4,6.73.37,3.23-.07,3.57-3.56.4-6,.6-15H440.36q-.3,8.68-2.77,13.06-2.63,4.86-10.26,9.36-.93-1.2-2-2.53,7.23-4.06,9.49-8.19,2.35-3.75,2.63-11.69h-10.7Z"/><path class="cls-2" d="M459.65,175.6h14.76V161.68H461.15v-2.57H490.6v2.57H477.21V175.6h14.86v2.56H477.21v12.26h-2.8V178.17H459.65Zm3.2-10.26,2.1-1.47a87.46,87.46,0,0,1,6.43,8.43L469,174.07A93.56,93.56,0,0,0,462.85,165.34Zm17,6.93a54.48,54.48,0,0,0,6.6-8.53l2.5,1.6a93.76,93.76,0,0,1-7,8.66Z"/><path class="cls-2" d="M516.92,161.91q5.23,4.86,9.9,10l-2.36,2q-1.33-1.56-2.7-3.08-15,.63-22.85,1.08a22.49,22.49,0,0,0-3.53.53l-1.1-2.87a9.69,9.69,0,0,0,2.76-1.57,66.58,66.58,0,0,0,10.43-10.76l2.5,1.53a88.88,88.88,0,0,1-10.43,10.43q10.21-.32,20.09-.73-2.28-2.48-4.63-4.83Zm4.9,13.22v15.13h-2.73v-2.2H500.76v2.2H498V175.14Zm-2.73,2.47H500.76v8.06h18.32Z"/><path class="cls-2" d="M529.85,159.44h9.39v27q0,3.33-3.1,3.33-1.7,0-3.16-.1-.14-1-.4-2.37a19.27,19.27,0,0,0,2.93.27,1.21,1.21,0,0,0,1.37-1.37v-7.66h-4.66q.1,7.66-2.77,11.69a11.2,11.2,0,0,0-1.83-1.87q2.23-3.43,2.23-9.73Zm7,2.17h-4.66V168h4.66Zm-4.66,14.89h4.66v-6.43h-4.66ZM542,159.58h16.46q-.17,2.7-.27,4.26-.27,5.16-5.26,5.06l-4.3-.13q-.2-1.3-.43-2.63,2.47.3,4.43.37a2.66,2.66,0,0,0,3.1-2.73q.1-.87.17-1.9H544.54v9.6H558.6v2a24.35,24.35,0,0,1-4.88,10.18,19.93,19.93,0,0,0,7.15,4.25q-1.13,1.33-1.93,2.4A24.18,24.18,0,0,1,552,185.5a27.75,27.75,0,0,1-6,4.43q-.63-1.1-1.37-2.2a23.17,23.17,0,0,0,5.75-4.06,22.31,22.31,0,0,1-4.28-10h-1.57V190.2H542Zm14,14.06h-7.58a19.7,19.7,0,0,0,3.68,8.16A21.07,21.07,0,0,0,556,173.64Z"/><path class="cls-2" d="M571.22,157.18l2.5,1.07q-.75,1.23-1.57,2.4h18v2.23a27,27,0,0,1-8.48,6.58A48.06,48.06,0,0,0,595,172q-1.07,1.5-1.87,2.8a50.44,50.44,0,0,1-14.56-3.88,73.21,73.21,0,0,1-16,4.45q-.57-1-1.37-2.33a71.13,71.13,0,0,0,14.49-3.63,20.51,20.51,0,0,1-6.08-5.48,46.13,46.13,0,0,1-5.71,5.68q-1-1.07-1.83-1.8A33.16,33.16,0,0,0,571.22,157.18Zm-7,19.52h9.7q.23-1.62.4-3.6H577q-.21,2-.45,3.6H590q-.33,6-.63,8.36-.53,4.7-5.6,4.73-2,0-5.9-.13-.2-1.23-.5-2.76,3.83.33,6.33.37a2.88,2.88,0,0,0,3.13-2.86q.3-2.5.43-5.33H576.17q-1.77,8-12.41,11.63-.77-1.1-1.63-2.23,9.56-3.1,11.33-9.39h-9.23Zm22.39-13.86H571.74a20.85,20.85,0,0,0,6.9,5.3A29.16,29.16,0,0,0,586.61,162.84Z"/><path class="cls-2" d="M596,161.14h15.21q-.64-1.18-1.55-2.63l2.57-1.17q1,1.72,2.1,3.8h14.36v2.36H596Zm2.43,7.13h8.09q-1.15-1.68-2.5-3.33l2-1.37q1.6,1.87,2.9,3.46l-1.8,1.23h7.56a43.31,43.31,0,0,0,3.1-4.56l2.53,1.47q-1.58,1.88-2.67,3.1H626v17.46q0,4.2-3.83,4.23-2.07,0-4.66,0a25.4,25.4,0,0,0-.5-2.8q2.63.26,4.33.27,2.17,0,2.17-2.4V170.57H600.9v19.79h-2.5Zm9.76,2.67,1.8,1.73q-3.9,3.33-7.3,5.86a22.5,22.5,0,0,0-1.57-2A53.34,53.34,0,0,0,608.17,170.94Zm-2.57,16.13V176.34H619v9H608v1.77Zm11-3.9v-4.7H608v4.7ZM614,172.77l1.47-1.83q4.94,3.1,7.46,5l-1.67,2.1A84.84,84.84,0,0,0,614,172.77Z"/><path class="cls-2" d="M645.2,185.91H629.9v-1.08l10.71-14.64H630.9v-2.7h14.36v1.07l-10.65,14.66H645.2Z"/><path class="cls-2" d="M647.61,173.52q0-6.83,2.26-10.34a7.34,7.34,0,0,1,6.56-3.51q8.19,0,8.19,13.22,0,6.53-2.31,10a7.35,7.35,0,0,1-6.47,3.46,6.88,6.88,0,0,1-6.09-3.28Q647.61,179.78,647.61,173.52Zm3.33-.15q0,10.28,5.21,10.28t5.13-10.44q0-10.81-5-10.81Q650.94,162.39,650.94,173.37Z"/><path class="cls-2" d="M684,185.91H669.25V183.1H675V163.51l-5.93,1.72v-3l9.18-2.66V183.1H684Z"/><path class="cls-2" d="M688.09,184.2a2.06,2.06,0,0,1,.61-1.52,2.16,2.16,0,0,1,3.7,1.52,2,2,0,0,1-.61,1.49,2.11,2.11,0,0,1-1.57.62,2.1,2.1,0,0,1-2.13-2.12Z"/><path class="cls-2" d="M710,185.08a9.75,9.75,0,0,1-5.1,1.27,8.44,8.44,0,0,1-6.43-2.57,9.27,9.27,0,0,1-2.43-6.65,10.19,10.19,0,0,1,2.62-7.3,9.21,9.21,0,0,1,7-2.77,9.59,9.59,0,0,1,4.33.9v3.23a7.14,7.14,0,0,0-4.33-1.43,5.86,5.86,0,0,0-4.55,1.94,7.41,7.41,0,0,0-1.76,5.17,7.08,7.08,0,0,0,1.66,5,5.79,5.79,0,0,0,4.47,1.8,7.42,7.42,0,0,0,4.5-1.57Z"/><path class="cls-2" d="M713.11,176.9a9.94,9.94,0,0,1,2.55-7.2,9.16,9.16,0,0,1,6.91-2.64,8.43,8.43,0,0,1,6.5,2.54,11.37,11.37,0,0,1-.16,14.07,8.8,8.8,0,0,1-6.75,2.68,8.67,8.67,0,0,1-6.6-2.6A9.54,9.54,0,0,1,713.11,176.9Zm3.33-.1a7.33,7.33,0,0,0,1.61,5,5.46,5.46,0,0,0,4.32,1.83,5.18,5.18,0,0,0,4.26-1.79,9.79,9.79,0,0,0,0-10.3,5.18,5.18,0,0,0-4.26-1.8,5.38,5.38,0,0,0-4.34,1.88A7.75,7.75,0,0,0,716.44,176.8Z"/><path class="cls-2" d="M762.55,185.91h-3.26V175.34a7.52,7.52,0,0,0-.93-4.29,3.53,3.53,0,0,0-3.07-1.29,3.78,3.78,0,0,0-3.08,1.68,6.37,6.37,0,0,0-1.28,4v10.49h-3.26V175q0-5.25-4-5.25a3.73,3.73,0,0,0-3.09,1.6,6.51,6.51,0,0,0-1.23,4.08v10.48H736V167.49h3.26v2.92h.07a6.28,6.28,0,0,1,5.75-3.35,5.45,5.45,0,0,1,3.26,1,5.23,5.23,0,0,1,2,2.75,6.59,6.59,0,0,1,6.13-3.76q6.08,0,6.08,7.5Z"/></g><ellipse id="css2" class="cls-1" cx="102.75" cy="113.95" rx="72.15" ry="73.41"/><g id="css1"><ellipse class="cls-3" cx="72.15" cy="113.95" rx="72.15" ry="73.41"/></g><ellipse class="cls-4" cx="161.1" cy="26.3" rx="2.44" ry="2.11"/><ellipse class="cls-4" cx="159.09" cy="1.47" rx="1.71" ry="1.47"/><ellipse class="cls-4" cx="141.54" cy="29" rx="7.12" ry="5.66"/><path class="cls-5" d="M89,90c0,3.13-3.19,5.66-7.12,5.66S74.79,93.11,74.79,90,78,84.33,81.9,84.33,89,86.86,89,90Z"/><ellipse class="cls-4" cx="104.21" cy="14.83" rx="4.66" ry="4.01"/><ellipse class="cls-4" cx="130.71" cy="84.64" rx="2.44" ry="2.11"/><ellipse class="cls-4" cx="114.09" cy="114.82" rx="2.44" ry="2.1"/><ellipse class="cls-4" cx="46.6" cy="47.69" rx="2.44" ry="2.1"/><ellipse class="cls-4" cx="144.62" cy="76.79" rx="1.71" ry="1.47"/><ellipse class="cls-4" cx="83.61" cy="46.61" rx="1.71" ry="1.47"/><path class="cls-5" d="M89.39,40.95a1.73,1.73,0,1,1-1.71-1.47A1.6,1.6,0,0,1,89.39,40.95Z"/><ellipse class="cls-4" cx="150.72" cy="40.95" rx="1.71" ry="1.47"/><path class="cls-6" d="M153.12,81.52l-3.49-.85C145.87,138,50,152,34.37,83.47c-21.8,4.49-7.53,29.35-7.15,33.89,1,11.7-8.41,10.51,1.19,31.61,2.94,6.48,19.27,12.21,19.14,11.71.55,16.95,91.65-4.93,94.13-8.41,1.76-2.47,7.42-5,9.15-6.58,8.22-7.71,5.17-19.74-1-29.44C168.31,111.33,163.46,92,153.12,81.52Z"/><path class="cls-4" d="M149.18,86a4.37,4.37,0,0,1,1.69,3.18,3.52,3.52,0,0,1,.89-1.9C152.94,86.35,146.29,84.18,149.18,86Z"/><path class="cls-4" d="M145,102.1c-2,2.68-5.77,2.37-8.39,3-3,.71-8.28-1-10.06,1.12-2.28,2.73-2.17,2.85-5.56,2.52-3.89-.4-6.83-1.65-10.29,1-2,1.57-2.8,3.73-5.18,5a21.84,21.84,0,0,0-8.26-3.29c-4.79-.77-7.54,1.34-12,2.36-2.77.64.67-1.63-5.25-.42-4,.82-6.87-3.54-11.05-3.43-1.6,0-4.9,1.59-6.3,1s-7.75.19-8.48-1.14c-3.11-5.6-22.07-1.81-16.81-17.94-1.89-3.14-1.53-9.52-3.41-6.38v.7c-3.48.64-3.48,5.37-2.95,8,.79,3.9,3.95,6.09,7,8.49-7.08,1.54-6.31,5.13-4.32,11.37,1.32,4.13,2.23,9,6.2,11.72-3.87,7.52-4.18,13.88.57,21.27,4.11,6.38,9.33,7.82,15.77,11.26,2.87,1.53,2.4.73,3.36,4,1.13,3.89,70.89-3.59,71.94-7.56,1-3.67,2.34-3,5.77-5.15,7.81-4.81,7.93-17.18,6.22-24.9-.38-1.73-3.39-5.32-3.29-6.65.09-1,1.83-1.89,2.52-2.67a24.13,24.13,0,0,0,4.7-8c1-2.87,4.26-12.75,3.4-18.18-.43,1.77-.64,4.16-1.64,5.12C146.24,97.18,148.44,97.61,145,102.1Z"/><path class="cls-7" d="M100.39,5.58c-.8,0-1.61,0-2.44.05C58.87,7.32,36.33,42.73,37.35,64,51.65,50,72.67,42.53,92.92,42.53c2.54,0,5.07.12,7.57.35l-5.61-1.74A77.83,77.83,0,0,1,107,43.79a64.9,64.9,0,0,1,20.15,7.11c.84-1.52,5.75-11.84-3.18-30.59a57,57,0,0,1,6.64,13.26s1.3-1.21,2.23-1.21c.37,0,.68.19.83.73.52,1.89-2.56,0-1,3.79a135.24,135.24,0,0,1,3.74,20.56c9.3,8.15,12.9,15.8,25.22,18.37a81.63,81.63,0,0,0,15.59,1.78c5.79,0,11.15-1,13-4.41-42.65-6.48-42.89-67.61-89.88-67.61Z"/><path class="cls-8" d="M118,48.28c14.86,7.95,18.8,18.92,18.8,18.92a75.47,75.47,0,0,0-.35-9.76l-.74-.64a53.94,53.94,0,0,0-8.5-5.91l-.12.2L118,48.28Zm-17.47-5.4L118,48.28A60.76,60.76,0,0,0,107,43.79q-3.23-.59-6.53-.9Z"/><path class="cls-9" d="M94.88,41.15l5.61,1.74q3.3.31,6.53.9a77.83,77.83,0,0,0-12.14-2.64ZM124,20.31c8.93,18.75,4,29.07,3.18,30.59a53.94,53.94,0,0,1,8.5,5.91l.74.64a135.24,135.24,0,0,0-3.74-20.56c-1.54-3.79,1.53-1.9,1-3.79-.14-.54-.46-.73-.83-.73-.93,0-2.23,1.21-2.23,1.21A57,57,0,0,0,124,20.31Z"/><ellipse class="cls-10" cx="92.79" cy="92.49" rx="47.12" ry="36.97"/><path class="cls-11" d="M139.91,92.49h-.07c0,10.19-5.26,19.41-13.78,26.09s-20.28,10.82-33.28,10.82S68,125.26,59.51,118.58,45.74,102.67,45.74,92.49,51,73.08,59.51,66.39,79.79,55.58,92.79,55.58s24.76,4.13,33.28,10.82,13.78,15.9,13.78,26.09H140C140,82.26,134.7,73,126.16,66.3S105.82,55.45,92.79,55.45,68,59.6,59.43,66.3,45.6,82.26,45.6,92.49,50.89,112,59.43,118.67s20.34,10.85,33.36,10.85,24.83-4.14,33.37-10.85S140,102.72,140,92.49Z"/><path class="cls-12" d="M70.61,90.71c-.36,0-.72,0-1.08,0-6.16,0-11.4,4.38-11.94,10.18C57,107,61.9,112.4,68.52,112.93c.35,0,.71,0,1.06,0,6.17,0,11.42-4.37,12-10.19C82.13,96.65,77.24,91.25,70.61,90.71Z"/><path class="cls-13" d="M115.9,90.72c-.39,0-.78,0-1.17,0-6.66,0-12.32,4.74-12.91,11-.63,6.64,4.67,12.5,11.82,13.07.38,0,.77,0,1.14,0,6.67,0,12.34-4.73,13-11C128.35,97.14,123.07,91.29,115.9,90.72Z"/><path class="cls-5" d="M153.4,89.52a3,3,0,0,0,.64-.81l-.13,0c.19-.48.53-.94.71-1.29a8.32,8.32,0,0,0,.72-2.44c.72-5.69-3.74-10.94-9.88-11.62a11.78,11.78,0,0,0-3,.05,11.13,11.13,0,0,0,2.27-7.15c0-6.64-4.62-12.55-10.59-13.46,0,0-5.16-6-12.09-6.79-9.47-1-24-6.67-40.15-4.41C59,45,32,61.64,30.63,67.14A9.73,9.73,0,0,0,30.41,72a13.21,13.21,0,0,0-6.21,9.48,12.43,12.43,0,0,0,3.3,10.14,13.21,13.21,0,0,0-2.9,6.83c-.85,6.68,3.62,12.94,10.4,14.94a9.53,9.53,0,0,0-.38,2c-1,7.66,4.9,14.58,13.3,15.5a15.52,15.52,0,0,0,6-.47,14.93,14.93,0,0,0,12.67,9.92,15.88,15.88,0,0,0,11.06-2.93,7.32,7.32,0,0,0,1.27-1.49c.12.14.1.26.22.4a12.21,12.21,0,0,0,2.08-2.53c3.07,6.61,10.68,11.71,20,12.73,10.27,1.13,19.57-2.87,23.8-9.55a8.61,8.61,0,0,0,.76-1.68.45.45,0,0,0,.25.16c.23-.73.59-1.44.82-2.17a17.46,17.46,0,0,0,5.09,1.44c7.2.79,13.8-3.25,16.06-9.27a4,4,0,0,0,.29-1.22,13.41,13.41,0,0,0-1-7,2.7,2.7,0,0,0,1.08,0,6.9,6.9,0,0,0-.48-1.55c7.43.06,13.88-4.88,15-11.78C163.45,97.65,159.46,91.81,153.4,89.52Zm-25.73,13a37.36,37.36,0,0,1-5.45,4.54c-6.55,3.67-28.64-3.43-28.64-3.43s-3.66-2-13.12,3.2c-18,9.93-36.22-11.75-29.36-22.16C68,59,124.95,65.47,134.88,78.84,139.69,85.3,134,96.58,127.67,102.54Z"/><ellipse class="cls-14" cx="93.32" cy="100.48" rx="15.34" ry="12.97"/><path class="cls-11" d="M77.91,86a4.11,4.11,0,1,1-4.08-3.63A3.87,3.87,0,0,1,77.91,86Z"/><path class="cls-11" d="M112.47,86a4.11,4.11,0,1,1-4.08-3.63A3.88,3.88,0,0,1,112.47,86Z"/><ellipse class="cls-4" cx="75.44" cy="84.67" rx="1.55" ry="1.37"/><path class="cls-4" d="M111.19,84.62a1.56,1.56,0,1,1-1.55-1.37A1.47,1.47,0,0,1,111.19,84.62Z"/><path class="cls-11" d="M109.62,76c-.61-.31-1.25-.73-1-1.22.33-.66,1.69-.49,2.41-.19A3.15,3.15,0,0,1,112.68,76c.14.29.38,1-.38,1a5.42,5.42,0,0,1-2.36-.82Z"/><path class="cls-15" d="M108.29,114s1.19,10.22-14.92,10.38l-.34-.63c13.71-.14,13-9.6,13-9.63Z"/></g></g></svg>