<svg xmlns="http://www.w3.org/2000/svg" viewBox="0 0 813.48 196.57"><defs><style>.cls-1{fill:#1d2088;}.cls-2{fill:#1861ae;}.cls-3{fill:#e60012;}</style></defs><title>资源 1</title><g id="图层_2" data-name="图层 2"><g id="z01"><g id="css4"><path class="cls-1" d="M282.46,36.53H238.73V11.63h43.73ZM283,97.42a16.51,16.51,0,0,0,5,10.52q8.3,8.3,31.55,8.3,8.3-.55,26-1.66-18.27,1.66,31.55-2.21V140H300.17q-19.92,0-33.21-13.28L249.24,140l-10-37.09L257,86.35V70.85H238.73V44.28H283Zm15.5,8.3q25.45-.55,29.34-10.52A22.94,22.94,0,0,0,329.51,88q-3.88,2.78-6.64,5-5.54,3.32-11.07,6.09L288,81.37q19.37-5,24.91-7.75a127.12,127.12,0,0,0,14.39-10,24.3,24.3,0,0,1-1.66-2.77q-6.64,5-11.07,7.75a93.15,93.15,0,0,1-17.72,7.2L288,60.89l-1.66-3.32a94.78,94.78,0,0,0,21-6.09q4.43-2.21,9.41-5l-1.66-2.21A132,132,0,0,1,293,52L283,34.32Q298.5,31,307.92,26.57H290.21V1.66h83.58V26.57h-15.5L374.9,44.28Q368.8,51.48,363.27,57q-3.32,3.32-7.75,7.2Q371,75.29,377.11,80.26l-11.63,24.36q-6.64-5.53-14.39-11.07-3.88,24.36-31.55,24.91Zm43.73-79.16q-4.44,3.32-8.3,6.64a62.09,62.09,0,0,1,7.75,9.41,47.1,47.1,0,0,0,6.09-6.09q3.32-3.32,9.41-10Z"/><path class="cls-1" d="M380.43,128.42q11.63-23.79,17.72-54.25L420.84,85.8l-12.18,52Zm8.86-89.67,39.3,10-8.86,27.68-35.43-6.64Zm112.92,67.53a88.9,88.9,0,0,0,16.61,7.19l-14.95,24.36q-21-8.86-31.55-22.7-9.42-11.62-14.95-34.87H453.5v24.36q4.43-1.66,9.41-3.32l7.75,22.14a189.2,189.2,0,0,0-18.27,8.3,52.74,52.74,0,0,0-5.54,3.32,55,55,0,0,0-6.64,3.32l-10.52-8.3V13.28l-5,27.12-39.3-7.2,5-30.45,39.3,9.41,24.35.55V3.32h27.13v9.41h29.89V80.26h-8.3l11.62,10Q507.19,99.65,502.21,106.28ZM453.5,38.19h33.21V33.77H453.5Zm33.21,20.48v-5H453.5v5.54ZM485,88q3.87-4.43,6.64-7.75h-10Z"/><path class="cls-1" d="M522.14,34.87V11.63h11.07l1.66-8.86h17.71l-1.11,8.86h30.45V34.87H547.6l-3.32,22.7h4.43V40.41h21V57.57h10V80.82h-10v6.09l11.63-1.11L583,106.28A93.89,93.89,0,0,0,594.1,91.89q6.64-10.51,6.64-26V60.34a135.08,135.08,0,0,1-10,11.07L574.17,46.5q6.09-3.87,14.95-16.05Q595.76,21,601.29,1.66H626.2a114.24,114.24,0,0,1-3.32,16.05h33.76V42.07q-2.78,18.83-14.95,37.09L626.75,70.3q4.43,17.16,10.52,26t22.7,21l-16.61,22.14Q625.64,125.65,617.9,114a28,28,0,0,0-1.66-2.77q-8.3,14.94-24.91,28.78l-16.06-26,3.32-3.32-8.86,1.11v27.12h-21V114l-23.8,2.21-3.32-24.91,27.12-2.21v-8.3H522.14l7.75-45.94Zm91.34,7.2-.55.55q3.32-5-3.88,6.09h17.71v3.87a52.82,52.82,0,0,0,4.43-10.52Z"/><path class="cls-1" d="M713.66,7.2Q710.34,19.38,707,29.34v109H677.68V80.26l-3.32,3.87-7.75-35.43Q681,28.24,690.41,0Zm-1.11,94.65V72h34.32V53.69H735.25A90.32,90.32,0,0,1,728.05,72L707,53.14q8.3-15.49,12.18-43.73h23.25l-1.66,14.94h6.09V1.11h24.91V24.36h24.36V53.69H771.78V72h27.68v29.89H771.78v36.53H746.87V101.85Z"/></g><g id="css3"><path class="cls-2" d="M270.45,177.54q-1.1,1.37-1.8,2.4a29.39,29.39,0,0,1-5.63-3.46v1.83h-8v3.46h13v2.17H239.53v-2.17h13v-3.46h-8.06v-1.81a37.37,37.37,0,0,1-5.53,3.85,21.73,21.73,0,0,0-1.73-2.1,31.78,31.78,0,0,0,8.88-6.33H237.6v-2.17h6.63V158.58h-5.6v-2.16h5.6v-3.6h2.5v3.6H261v-3.6h2.5v3.6h5.6v2.16h-5.6v11.16H270v2.17h-8.76A24.09,24.09,0,0,0,270.45,177.54ZM252.56,173h2.5v3.23h7.63a30,30,0,0,1-4.35-4.3h-9.18a43.73,43.73,0,0,1-4.33,4.3h7.73Zm-5.83-12.06H261v-2.33H246.73Zm0,4.4H261V163H246.73Zm0,4.43H261v-2.36H246.73Z"/><path class="cls-2" d="M271,171.74A45.52,45.52,0,0,0,276.41,158h-4.33v-2.2h11.83V158h-5.28a59.1,59.1,0,0,1-2.1,7.33h6.08v17h-2.2v-2.23h-3.67v3.16h-2.2V170q-.88,1.83-1.9,3.51A15.35,15.35,0,0,0,271,171.74Zm9.43-4.3h-3.67v10.49h3.67Zm19.79,2v-1.57h-4.83v13.39h5.43v-9.6h2.47v13.49H300.8v-1.5H285.07v-12h2.47v9.6h5.36V167.84h-7.23V156.62h2.47v8.83h4.77V153.15h2.47v12.29h4.83v-8.79h2.47v12.76Z"/><path class="cls-2" d="M309,168.58h4.06v-6.73h2.33v6.73H320v2.2h-4.56v5q2.79-.32,5.43-.65c-.11.84-.19,1.62-.23,2.33q-2.47.27-5.2.6v7.53h-2.33v-7.26l-7.19.93-.3-2.5q3.87-.37,7.5-.75v-5.28h-6.56v-2.1q1.85-4.7,3.13-8.5h-3.53V158h4.25q.93-3,1.45-5.33l2.67.53q-.78,2.43-1.58,4.8h6.95v2.2h-7.7Q310.64,164.51,309,168.58Zm17.69-6.33h2.6q0,3.46-.14,6.4Q331.79,180,339,183.34l-2.1,2.3q-6.07-3.36-8.68-12-1.78,7.55-9.58,12.21c-.51-.73-1.08-1.47-1.7-2.2q9.1-5,9.63-14.86Q326.71,166.75,326.71,162.25Zm-8.33,3.67a49.85,49.85,0,0,0,6.09-13.26l2.63.7q-.92,2.6-1.9,4.93h13.09v2.23l-3.46,6.43-2.6-.57,3-5.8h-11a59.32,59.32,0,0,1-3.57,6.73Q319.68,166.68,318.39,165.91Z"/><path class="cls-2" d="M339.48,169.58a57.89,57.89,0,0,0,7.4-16.46l2.73.8q-1.23,3.88-2.67,7.28v24.4H344.3V166.7a49.5,49.5,0,0,1-3.63,5.78A28.82,28.82,0,0,0,339.48,169.58Zm10,2h11.56v-8.43h-6.34a45.07,45.07,0,0,1-3,6.4,16.24,16.24,0,0,0-2.2-1.76,44,44,0,0,0,4.66-12.43l2.7.77q-.65,2.48-1.4,4.7h5.53v-7.73h2.67v7.73h8v2.33h-8v8.43h9.06v2.33h-9.06v11.66h-2.67V173.91H349.5Z"/><path class="cls-2" d="M373.79,173.74h24.69v2.53H373.79Zm5.63-5.2V166l1.33-13.16h2.77l-.52,5.3h23.64v2.53H382.77l-.51,5.33h22q-.4,7-.9,13-.47,3.53-2,4.77t-5,1.2q-3.28,0-7.58-.13-.2-1.13-.57-2.9,5.07.37,7.56.4,4.46.3,4.86-3.5.44-4.43.73-10.33Z"/><path class="cls-2" d="M408,181.17h15.46v-8.5H411.67v-2.57h11.79v-7.7h-8.79a39.83,39.83,0,0,1-5.1,7.23,18.53,18.53,0,0,0-1.8-2.33,38.77,38.77,0,0,0,7.43-12.86l2.73.73q-.88,2.43-2,4.66h7.48v-7.06h2.87v7.06h12.73v2.57H426.33v7.7h11.79v2.57H426.33v8.5h14.53v2.5H408Z"/><path class="cls-2" d="M445.41,166.28h15.76q2.25-3.31,4-6.6l2.57,1.63q-1.76,2.48-3.7,5h9.86v2.33H448.11v2.33a31.91,31.91,0,0,1-.9,8.79,15.24,15.24,0,0,1-3.53,6.06q-.87-1.07-1.8-2.26a11.8,11.8,0,0,0,2.77-4.93,30.17,30.17,0,0,0,.76-7.66Zm-2.73-9.53h15.21q-.73-1.37-1.61-2.8l2.47-1.23q1.08,1.77,2.21,4H474.8v2.36H442.68Zm7,4.26,2.2-1.47q2.07,2.6,3.67,4.93l-2.36,1.63A55.11,55.11,0,0,0,449.64,161Z"/><path class="cls-2" d="M477.7,160.38h10.8q.1-3.67.13-7.46h2.9q-.07,3.53-.17,7.46h15.29q-.4,13-.77,18.42-.43,5.73-6.13,5.8-2.73,0-6.6-.13c-.09-.87-.26-1.92-.5-3.17h.1q4.33.4,6.73.37,3.23-.07,3.57-3.56.4-6,.6-15H491.29q-.3,8.68-2.77,13.06-2.63,4.86-10.26,9.36-.93-1.2-2-2.53,7.23-4.06,9.49-8.19,2.35-3.75,2.63-11.69H477.7Z"/><path class="cls-2" d="M510.58,170.94h14.76V157H512.08v-2.57h29.45V157H528.13v13.93H543v2.56H528.13v12.26h-2.8V173.51H510.58Zm3.2-10.26,2.1-1.47a87.46,87.46,0,0,1,6.43,8.43l-2.36,1.76A93.56,93.56,0,0,0,513.78,160.68Zm17,6.93a54.48,54.48,0,0,0,6.6-8.53l2.5,1.6a93.76,93.76,0,0,1-7,8.66Z"/><path class="cls-2" d="M567.85,157.25q5.23,4.86,9.9,10l-2.36,2q-1.33-1.56-2.7-3.08-15,.63-22.85,1.08a22.49,22.49,0,0,0-3.53.53l-1.1-2.87a9.69,9.69,0,0,0,2.76-1.57,66.58,66.58,0,0,0,10.43-10.76l2.5,1.53a88.88,88.88,0,0,1-10.43,10.43q10.21-.32,20.09-.73-2.28-2.48-4.63-4.83Zm4.9,13.22V185.6H570v-2.2H551.69v2.2H549V170.48ZM570,172.94H551.69V181H570Z"/><path class="cls-2" d="M580.77,154.78h9.39v27q0,3.33-3.1,3.33-1.7,0-3.16-.1-.14-1-.4-2.37a19.27,19.27,0,0,0,2.93.27,1.21,1.21,0,0,0,1.37-1.37v-7.66h-4.66q.1,7.66-2.77,11.69a11.2,11.2,0,0,0-1.83-1.87q2.23-3.43,2.23-9.73Zm7,2.17h-4.66v6.4h4.66Zm-4.66,14.89h4.66v-6.43h-4.66Zm9.79-16.92h16.46q-.17,2.7-.27,4.26-.27,5.16-5.26,5.06l-4.3-.13q-.2-1.3-.43-2.63,2.47.3,4.43.37a2.66,2.66,0,0,0,3.1-2.73q.1-.87.17-1.9H595.47v9.6h14.06v2A24.35,24.35,0,0,1,604.64,179a19.93,19.93,0,0,0,7.15,4.25q-1.13,1.33-1.93,2.4a24.18,24.18,0,0,1-6.95-4.76,27.75,27.75,0,0,1-6,4.43q-.63-1.1-1.37-2.2a23.17,23.17,0,0,0,5.75-4.06A22.31,22.31,0,0,1,597,169h-1.57v16.56h-2.53Zm14,14.06h-7.58a19.7,19.7,0,0,0,3.68,8.16A21.07,21.07,0,0,0,606.89,169Z"/><path class="cls-2" d="M622.15,152.52l2.5,1.07q-.75,1.23-1.57,2.4h18v2.23a27,27,0,0,1-8.48,6.58A48.06,48.06,0,0,0,646,167.31q-1.07,1.5-1.87,2.8a50.44,50.44,0,0,1-14.56-3.88,73.21,73.21,0,0,1-16,4.45q-.57-1-1.37-2.33a71.13,71.13,0,0,0,14.49-3.63,20.51,20.51,0,0,1-6.08-5.48,46.13,46.13,0,0,1-5.71,5.68q-1-1.07-1.83-1.8A33.16,33.16,0,0,0,622.15,152.52Zm-7,19.52h9.7q.23-1.62.4-3.6h2.7q-.21,2-.45,3.6h13.44q-.33,6-.63,8.36-.53,4.7-5.6,4.73-2,0-5.9-.13-.2-1.23-.5-2.76,3.83.33,6.33.37a2.88,2.88,0,0,0,3.13-2.86q.3-2.5.43-5.33H627.1q-1.77,8-12.41,11.63-.77-1.1-1.63-2.23,9.56-3.1,11.33-9.39h-9.23Zm22.39-13.86H622.67a20.85,20.85,0,0,0,6.9,5.3A29.16,29.16,0,0,0,637.54,158.18Z"/><path class="cls-2" d="M646.9,156.48h15.21q-.64-1.18-1.55-2.63l2.57-1.17q1,1.72,2.1,3.8h14.36v2.36H646.9Zm2.43,7.13h8.09q-1.15-1.68-2.5-3.33l2-1.37q1.6,1.87,2.9,3.46l-1.8,1.23h7.56a43.31,43.31,0,0,0,3.1-4.56l2.53,1.47q-1.58,1.88-2.67,3.1h8.29v17.46q0,4.2-3.83,4.23-2.07,0-4.66,0a25.4,25.4,0,0,0-.5-2.8q2.63.26,4.33.27,2.17,0,2.17-2.4V165.91H651.83V185.7h-2.5Zm9.76,2.67,1.8,1.73q-3.9,3.33-7.3,5.86a22.5,22.5,0,0,0-1.57-2A53.34,53.34,0,0,0,659.1,166.28Zm-2.57,16.13V171.68h13.36v9h-11v1.77Zm11-3.9v-4.7h-8.56v4.7ZM665,168.11l1.47-1.83q4.94,3.1,7.46,5l-1.67,2.1A84.84,84.84,0,0,0,665,168.11Z"/><path class="cls-2" d="M696.12,181.25H680.83v-1.08l10.71-14.64h-9.71v-2.7h14.36v1.07l-10.65,14.66h10.58Z"/><path class="cls-2" d="M698.54,168.86q0-6.83,2.26-10.34a7.34,7.34,0,0,1,6.56-3.51q8.19,0,8.19,13.22,0,6.53-2.31,10a7.35,7.35,0,0,1-6.47,3.46,6.88,6.88,0,0,1-6.09-3.28Q698.54,175.13,698.54,168.86Zm3.33-.15q0,10.28,5.21,10.28t5.13-10.44q0-10.81-5-10.81Q701.87,157.73,701.87,168.71Z"/><path class="cls-2" d="M735,181.25H720.18v-2.81H726V158.85L720,160.57v-3l9.18-2.66v23.54H735Z"/><path class="cls-2" d="M739,179.54a2.06,2.06,0,0,1,.61-1.52,2.16,2.16,0,0,1,3.7,1.52,2,2,0,0,1-.61,1.49,2.11,2.11,0,0,1-1.57.62,2.1,2.1,0,0,1-2.13-2.12Z"/><path class="cls-2" d="M760.89,180.42a9.75,9.75,0,0,1-5.1,1.27,8.44,8.44,0,0,1-6.43-2.57,9.27,9.27,0,0,1-2.43-6.65,10.19,10.19,0,0,1,2.62-7.3,9.21,9.21,0,0,1,7-2.77,9.59,9.59,0,0,1,4.33.9v3.23a7.14,7.14,0,0,0-4.33-1.43A5.86,5.86,0,0,0,752,167a7.41,7.41,0,0,0-1.76,5.17,7.08,7.08,0,0,0,1.66,5,5.79,5.79,0,0,0,4.47,1.8,7.42,7.42,0,0,0,4.5-1.57Z"/><path class="cls-2" d="M764,172.24a9.94,9.94,0,0,1,2.55-7.2,9.16,9.16,0,0,1,6.91-2.64,8.43,8.43,0,0,1,6.5,2.54,11.37,11.37,0,0,1-.16,14.07,8.8,8.8,0,0,1-6.75,2.68,8.67,8.67,0,0,1-6.6-2.6A9.54,9.54,0,0,1,764,172.24Zm3.33-.1a7.33,7.33,0,0,0,1.61,5A5.46,5.46,0,0,0,773.3,179a5.18,5.18,0,0,0,4.26-1.79,9.79,9.79,0,0,0,0-10.3,5.18,5.18,0,0,0-4.26-1.8A5.38,5.38,0,0,0,769,167,7.75,7.75,0,0,0,767.37,172.14Z"/><path class="cls-2" d="M813.48,181.25h-3.26V170.68a7.52,7.52,0,0,0-.93-4.29,3.53,3.53,0,0,0-3.07-1.29,3.78,3.78,0,0,0-3.08,1.68,6.37,6.37,0,0,0-1.28,4v10.49h-3.26V170.34q0-5.25-4-5.25a3.73,3.73,0,0,0-3.09,1.6,6.51,6.51,0,0,0-1.23,4.08v10.48H787V162.83h3.26v2.92h.07A6.28,6.28,0,0,1,796,162.4a5.45,5.45,0,0,1,3.26,1,5.23,5.23,0,0,1,2,2.75,6.59,6.59,0,0,1,6.13-3.76q6.08,0,6.08,7.5Z"/></g><path class="cls-3" d="M27.93,105.11c4.41,12.94,21.34,34.7,35.52,42.82-3.87-6.21-12.25-15.83-17.65-25.18-5.48-1.26-6.8-4.47-6.17-6.9.53-2,4.77-4.54,9.54-4.91C37.8,98.64,34.09,83,34,71.51c-3.63,8.08,3.61,17.64-2,28.78A15.93,15.93,0,0,1,27.93,105.11Z"/><path class="cls-3" d="M125.18,107.64c-4.59,5.14-11.23,9.34-20.9,6.29-7.37-2.33-10.77-6.23-14.58-10.59-1.23,8.52,5.19,12.65,8.94,14.38,18.22,8.39,28.74.3,44.32,3.41,1.7-5.18,5.18-7.17,7.86-10a56.74,56.74,0,0,0,4.65-5.42c10.5-14,10.09-30.26,3.21-40.65-.22-.1-.16-.32-.48-.39-.14,2.9.39,10.26-1.08,15.59C161.12,105.46,128.11,106.72,125.18,107.64Z"/><path class="cls-3" d="M69.74,70.73c-4.3,9.55-8,18.45-3.33,24.06,10.49,12.66,21.74,6.8,21.74,6.8a43.43,43.43,0,0,1-9.6-38.75C78.06,63.54,73.24,63,69.74,70.73Z"/><path class="cls-3" d="M111.39,108.17c7.73-2.57,30-16,29.86-26.09-8.57,7.84-23.31,15.9-35.65,11.4A53.85,53.85,0,0,1,88,82.5c-2.31-3.22-8-2.77-5.44,3.66,1.63,4.06,6.33,10.36,7.5,11.57C99.21,107.14,103.68,110.74,111.39,108.17Z"/><path class="cls-3" d="M134.24,82.81c9.85-2.53,11.23-10.91,10.58-14.09-1-4.69-6.61-9.91-12.18-11.23C137.78,63.77,138.5,73.43,134.24,82.81Z"/><path class="cls-3" d="M144.83,79c-.38,2.07.73,8.44-10,16.93a83.41,83.41,0,0,1-13.05,8.31c9.33,2.65,24.39-3.71,29.72-12.84,6.82-11.67-.16-29.38-12.38-33.62-.19-.06-.23.17.12.25,6.95,3.7,10,9,8,16C146.94,75.12,145,77.84,144.83,79Z"/><path class="cls-3" d="M54.92,43.56c2.94-2.26,6.6-2.84,10.06-3.91A32.69,32.69,0,0,1,73.57,27.9c2.77-2.56,7.1-6.54,10.43-7.49,3.11-.9,8.33-.42,12.83.09a63.93,63.93,0,0,1,22.79,6.94c3.3-.82,16.47-2.58,18.87-1.63,1.17.46,15.15,15.83,18.59,34.7,6.24,6.8,8.07,15.77,7.66,25.45,2.35-4.34,8.18-9.62,6.61-23.53C170.07,51,149.81,14.34,144.22,13.51c-1.07-.16-1.88.36-2.79-.28s-1.52-3.67-2.17-5c-1.16-2.38-2.59-5.15-6.08-6.14-13.82-3.95-45,15.32-48.24,17a78.84,78.84,0,0,0-9.29,5.66C68.33,30,60.46,36.55,54.92,43.56Z"/><path class="cls-3" d="M83.6,157.84c10,5.28,21.49,7.33,31.21,8.19,19.29,1.69,36.22-3.44,49.71-14-4-.1-7.8-.09-11.9-1.39-9.24-2.9-15.86-12-18.85-18.45-2.1,8.61-8.73,15.49-13.58,19-5,3.62-27.13,13.69-56.12-9.6C69.64,148,74.25,152.9,83.6,157.84Z"/><path class="cls-3" d="M193.84,114.43c1.28-4.9,2.29-22-9.18-38.44C177,65,171.54,83.49,164.18,89.47c3.23,24.73-27.12,36.93-27.41,37,2.16,7.31,3,15.48,9,18.6,18.37,9.58,29-1.46,30.83-2.95A57.8,57.8,0,0,0,193.84,114.43Z"/><path class="cls-3" d="M87.12,149.47c14.87,2.54,43,2.31,43.25-22.13-19.71,3-46.34-.27-65.94-9.69-13.23-6.35-19.63-1.66-18.73.67,2.06,5.37,3.43.93,9.5,11.15a38.47,38.47,0,0,0,15.24,14.43A52.69,52.69,0,0,0,87.12,149.47Z"/><path class="cls-3" d="M53.44,49.4c-5.58,6.75-10.14,14.1-17.68,15.84,2.68,7.62,1.52,15.27,3.11,22.59s5.78,13.49,12,18.88c13.49,11.6,39.84,18.33,54.64,17.08-5.8-1.86-16.34-7.9-19.28-14.5-15.24,0-22.4-7.89-25-14.5-1.91-4.9-3.12-11.75,1.47-18-7.16-11.93-.95-30.47,0-34.71C58.77,42.54,56.41,45.81,53.44,49.4Z"/><path class="cls-3" d="M48.4,150.13c-3.36-3.05-8.89-9.08-11-13.06-1-1.89-1.3-4.19-2.66-5.82-3.76-4.5-10.74-6-16.66-7.22-8,7.94-13.41,17.4-7.71,33.07,4.41,12.12,15.42,8.81,15.24,17.07,7.71-5.14,15.28-11.68,24.29-7.26C44.64,162.77,40.5,155.48,48.4,150.13Z"/><path class="cls-3" d="M33.4,125.31c5.21,2.77,7.15,10.19,9.68,14.84a20.14,20.14,0,0,0,18.77,10.63,143.59,143.59,0,0,1-22.51-21.65c-1.46-2-13.34-11.76-17.61-26.91,4.41-2.89,8.35-7.25,9.5-12.42s-2.95-12-.71-19.17c.38-1.27,2.5-5.73,1.07-10.58C43.77,56.65,44.45,44.8,55.32,35.21,64.92,26.73,75.08,21,84.7,14.45c-7.25-3.17-13-3-19.28-2.65a69.66,69.66,0,0,0-14.18,2.28c-8.78,2.35-15.88,6.83-23.57,14.34-11,10.74-4.66,32.66-9.1,26.28-1.09-1.57-2.95-5.53-4.68-6-3.45-.92-7.08,7.71-8.42,11.83C.31,76.37-2,95.44,2,106.9s14,14.39,17,15.77C24.86,125.29,28.78,122.86,33.4,125.31Z"/><path class="cls-3" d="M66.21,179.14c21.77,22.42,42.51,18.39,48.46,14a45.66,45.66,0,0,0,8.31-7.91c2.8-3.55,5.73-7.29,9-6.6s4.26,4.23,6.43,6.29c4.38,4.13,10,3.22,14.92,2.16,11.54-2.5,21.12-6.13,29.33-14.35a55.87,55.87,0,0,0,13.89-22.52A55.9,55.9,0,0,0,199.77,137c.37-3.66.63-10.21-2.19-11.25-3-1.11-7.12,7.85-8.75,10.48-4.21,6.79-10.22,12.22-18.71,17.62-18.17,11.57-27.41,12.89-40.94,15.24-3.43.59-22.34-.27-25.94-1.57-3.3-1.2-25.65-4.12-37.76-18.07C64,158,49,150,48.58,156,48,165.44,58.22,170.92,66.21,179.14Z"/><path class="cls-3" d="M217.11,99.83c1.08-5.13,6.8-17.26,9.92-20.75-.37-.28-1.93-1.28-5.42-3.3-3.3-1.92-5.31-7.6-6.75-11.09-1.88-4.62-13.54-35.54-28.41-44.16-10.09-5.85-23.73-6.24-32.93-5.41,11.13,9.58,20,40.47,22.37,47.86,10.72,6.11,14.52,16.12,17.6,26.87a82.57,82.57,0,0,1,3.43,24.4c0,1.88-.1,7.54-1.33,10.26a4.17,4.17,0,0,1,1.9.35c3.19,1.85,3.83,5.34,4.55,8.44a40.73,40.73,0,0,1,.92,7.62c4.19,0,11.75-8,14.69-15.75C222.07,113.6,215.19,109,217.11,99.83Z"/><path class="cls-3" d="M85.55,22.26c-1.91.2-4.41,2-6.3,3.32a34.42,34.42,0,0,0-5.71,5c-11.1,11.94-12.86,31-9.94,43,.26,1.06.7,2.76,1.38,2.82,1.79-3.79,5.91-16,13.39-16.66C84.24,47.05,98,38.53,102.78,36c.56-.3,10.65-4,15.09-4.73a79.71,79.71,0,0,0-23-7.87C91.66,22.9,88.22,22,85.55,22.26Z"/><path class="cls-3" d="M105.22,78c3.11.45,8.86,1.06,11.48-.31a39,39,0,0,1-9-2.43C106.76,74.69,105.34,77.54,105.22,78Z"/><path class="cls-3" d="M108,66.82c-6.05-1.32-13.13,1-13.15,9.12.95.47,1.6.27,2.58.82C99.4,70.14,104.18,68.14,108,66.82Z"/><path class="cls-3" d="M119,77.21c2.57-1,5.33-1.45,7.51-3.25-2.27-4-11-6.81-14.79-5.75-1.53.43-1.7,3-4.94,3.46-3.09.49-6,.84-8.24,5.33,1.95.4,3.9.78,5.82,1.05a6.31,6.31,0,0,1,2-3.52C109.7,71.23,117.4,73.29,119,77.21Z"/><path class="cls-3" d="M112,52.63c-8.87-.07-20.45,7.8-22.77,21.29l2.87,1.14c.11-2.72-.14-5.3.58-8.29,4.34-2.16,8.8-3.67,13.74-3.27,1.81.13,3.42,1.14,5.68,1.41,2,.25,4.9-.9,7.51-1.17,4.23-.43,9.57-.54,13.66,2.71C132.76,63.53,126.84,52.74,112,52.63Z"/><path class="cls-3" d="M86.84,77.76C91.47,82.89,103,88.25,111,89.43c9.6,1.42,15.44-1.89,17.47-4a66.26,66.26,0,0,0-.75-9.59c-9.43,11.84-25.95,6.06-38.91-1C88.13,75.71,87.5,76.78,86.84,77.76Z"/><path class="cls-3" d="M129.4,85.06c1.16-1,1.62-2.74,2.07-4.17a16.12,16.12,0,0,0,.57-7.24c-1.42-7-9.95-8.15-16.57-7.39,5.77,1.17,10.67,3.39,12.53,7.66C129.53,77.42,129.15,80.93,129.4,85.06Z"/><path class="cls-3" d="M135.6,30c-.18-.14-.58-.09-.79-.11-10.46-.36-20.67,3.22-29.81,7.71a61.21,61.21,0,0,0-13,8.15c-10.52,9-11.47,17.86-11.79,20.12-1.31,9.23.68,16.58,6.18,10.86,1.94-2,1.42-5.23,2.52-7.93C101.32,38.61,128.67,52,131,55.37c19.36-3.18,24,17.89,24.56,22.37,2.82-14.48-3.3-27.18-10.9-37.51C142,36.68,139,32.7,135.6,30Z"/></g></g></svg>