<svg xmlns="http://www.w3.org/2000/svg" xmlns:xlink="http://www.w3.org/1999/xlink" viewBox="0 0 873.53 189.65"><defs><style>.cls-1{fill:none;}.cls-2{isolation:isolate;}.cls-3{fill:#1d2088;}.cls-4{fill:#1861ae;}.cls-5{fill:url(#radial-gradient);}.cls-6{opacity:0.3;}.cls-6,.cls-9{mix-blend-mode:overlay;}.cls-7{clip-path:url(#clip-path);}.cls-8{fill:#fff;}.cls-9{opacity:0.5;}.cls-10{fill:url(#radial-gradient-2);}.cls-11{fill:#fff100;}</style><radialGradient id="radial-gradient" cx="183.35" cy="94.9" r="121.57" gradientTransform="translate(4.16) scale(0.9 1)" gradientUnits="userSpaceOnUse"><stop offset="0" stop-color="#d51a19"/><stop offset="1" stop-color="#b51d23"/></radialGradient><clipPath id="clip-path"><path class="cls-1" d="M294.25,75.35c-2.55-8.87-6.83-16.55-12.42-22.13a32.52,32.52,0,0,0-9.34-6.6A27,27,0,0,0,267.86,45a21.3,21.3,0,0,0,.33-3.67A18.69,18.69,0,0,0,266.72,34,17.55,17.55,0,0,0,264,29.61a16.77,16.77,0,0,0-5.52-4.33,14.87,14.87,0,0,0-6.47-1.53,12.68,12.68,0,0,0-6.61,1.82A13,13,0,0,0,242.54,28a14.1,14.1,0,0,0-1,1.24,26.38,26.38,0,0,0,.73-6.09,23.49,23.49,0,0,0-1.88-9.3,22.23,22.23,0,0,0-3.59-5.75,22.48,22.48,0,0,0-8-5.88A24.79,24.79,0,0,0,218.81.15a32.83,32.83,0,0,0-17,5.1,33.27,33.27,0,0,1-7.62,3.48,21.7,21.7,0,0,1-6.27,1A19.09,19.09,0,0,1,182.75,9a25.44,25.44,0,0,1-6.51-3c-1-.61-1.9-1.24-2.78-1.87s-1.73-1.25-2.56-1.84a4.24,4.24,0,0,0-4.92,0c-1.12.78-2.24,1.63-3.46,2.47a32.26,32.26,0,0,1-6.08,3.42,19.61,19.61,0,0,1-7.54,1.53,21.69,21.69,0,0,1-6.27-1A33.25,33.25,0,0,1,135,5.25a32.83,32.83,0,0,0-17-5.1,23.69,23.69,0,0,0-16.48,6.34,22.21,22.21,0,0,0-5.12,7.36,23.51,23.51,0,0,0-1.88,9.3,26.42,26.42,0,0,0,.78,6.29A14.06,14.06,0,0,0,94.21,28a12.67,12.67,0,0,0-4.52-3.25,12.81,12.81,0,0,0-5-1A14.73,14.73,0,0,0,78.91,25a16.81,16.81,0,0,0-7.21,6,17.66,17.66,0,0,0-2.29,4.74,19,19,0,0,0-.84,5.65A21.18,21.18,0,0,0,68.89,45,28,28,0,0,0,61,48.41a36.13,36.13,0,0,0-8.71,7.77,52.33,52.33,0,0,0-9.06,17,70.79,70.79,0,0,0-.67,40.47c2.55,8.87,6.83,16.55,12.42,22.13a32.51,32.51,0,0,0,9.34,6.6A26.8,26.8,0,0,0,68.89,144a21.18,21.18,0,0,0-.33,3.66A18.71,18.71,0,0,0,70,155a17.48,17.48,0,0,0,2.67,4.37,16.76,16.76,0,0,0,5.52,4.33,14.87,14.87,0,0,0,6.47,1.53,12.64,12.64,0,0,0,6.61-1.82A12.87,12.87,0,0,0,94.21,161a14.34,14.34,0,0,0,1.51-2c-.11.37-.22.74-.32,1.13a26.48,26.48,0,0,0-.86,6.61,23.51,23.51,0,0,0,1.88,9.3,22.25,22.25,0,0,0,3.59,5.75,22.49,22.49,0,0,0,8,5.88A24.79,24.79,0,0,0,118,189.65a32.83,32.83,0,0,0,17-5.1,33.26,33.26,0,0,1,7.62-3.49,21.68,21.68,0,0,1,6.27-1,19,19,0,0,1,5.21.72,25.38,25.38,0,0,1,6.51,3c1,.61,1.9,1.24,2.78,1.87s1.73,1.25,2.56,1.84a4.24,4.24,0,0,0,4.92,0c1.11-.78,2.24-1.63,3.46-2.47a32.28,32.28,0,0,1,6.08-3.42A19.62,19.62,0,0,1,188,180.1a21.69,21.69,0,0,1,6.27,1,33.26,33.26,0,0,1,7.62,3.49,32.83,32.83,0,0,0,17,5.1,23.69,23.69,0,0,0,16.48-6.34,22.2,22.2,0,0,0,5.12-7.36,23.49,23.49,0,0,0,1.88-9.3,26.44,26.44,0,0,0-.86-6.61c-.08-.3-.17-.58-.25-.87a14.12,14.12,0,0,0,1.36,1.8,12.61,12.61,0,0,0,9.52,4.25,14.73,14.73,0,0,0,5.78-1.22,16.82,16.82,0,0,0,7.21-6,17.72,17.72,0,0,0,2.29-4.74,19,19,0,0,0,.84-5.65,21.2,21.2,0,0,0-.33-3.66,28,28,0,0,0,7.94-3.42,36.05,36.05,0,0,0,8.71-7.77,52.29,52.29,0,0,0,9.06-17,68.76,68.76,0,0,0,3.3-21.33A69.48,69.48,0,0,0,294.25,75.35Z"/></clipPath><radialGradient id="radial-gradient-2" cx="183.33" cy="94.89" r="109.41" gradientTransform="translate(4.16) scale(0.9 1)" gradientUnits="userSpaceOnUse"><stop offset="0" stop-color="#b81c22"/><stop offset="1" stop-color="#7f191e"/></radialGradient></defs><title>资源 4</title><g class="cls-2"><g id="图层_2" data-name="图层 2"><g id="z01"><g id="css4"><path class="cls-3" d="M342.51,39.73H298.78V14.83h43.73Zm.55,60.89a16.51,16.51,0,0,0,5,10.52q8.3,8.3,31.55,8.3,8.3-.55,26-1.66-18.27,1.66,31.55-2.21v27.68H360.22Q340.3,143.25,327,130L309.3,143.25l-10-37.09L317,89.55V74.05H298.78V47.48h44.28Zm15.5,8.3q25.45-.55,29.34-10.52a22.94,22.94,0,0,0,1.66-7.19q-3.88,2.78-6.64,5-5.54,3.32-11.07,6.09L348,84.57q19.37-5,24.91-7.75a127.12,127.12,0,0,0,14.39-10,24.3,24.3,0,0,1-1.66-2.77q-6.64,5-11.07,7.75A93.15,93.15,0,0,1,356.9,79L348,64.09l-1.66-3.32a94.78,94.78,0,0,0,21-6.09q4.43-2.21,9.41-5l-1.66-2.21A132,132,0,0,1,353,55.23l-10-17.71Q358.55,34.2,368,29.77H350.26V4.86h83.58V29.77h-15.5l16.61,17.71q-6.09,7.2-11.62,12.73-3.32,3.32-7.75,7.2,15.49,11.08,21.59,16.05l-11.63,24.36q-6.64-5.53-14.39-11.07-3.88,24.36-31.55,24.91Zm43.73-79.16q-4.44,3.32-8.3,6.64a62.09,62.09,0,0,1,7.75,9.41,47.1,47.1,0,0,0,6.09-6.09q3.32-3.32,9.41-10Z"/><path class="cls-3" d="M440.48,131.62q11.63-23.79,17.72-54.25L480.89,89l-12.18,52Zm8.86-89.67,39.3,10-8.86,27.68-35.43-6.64Zm112.92,67.53a88.9,88.9,0,0,0,16.61,7.19L563.92,141q-21-8.86-31.55-22.7Q523,106.71,517.43,83.46h-3.88v24.36q4.43-1.66,9.41-3.32l7.75,22.14a189.2,189.2,0,0,0-18.27,8.3,52.74,52.74,0,0,0-5.54,3.32,55,55,0,0,0-6.64,3.32l-10.52-8.3V16.48l-5,27.12-39.3-7.2,5-30.45,39.3,9.41,24.35.55V6.52h27.13v9.41h29.89V83.46h-8.3l11.62,10Q567.24,102.85,562.26,109.48ZM513.55,41.39h33.21V37H513.55Zm33.21,20.48v-5H513.55v5.54ZM545.1,91.21q3.87-4.43,6.64-7.75h-10Z"/><path class="cls-3" d="M582.19,38.07V14.83h11.07L594.92,6h17.71l-1.11,8.86H642V38.07H607.65l-3.32,22.7h4.43V43.61h21V60.77h10V84h-10v6.09L641.42,89l1.66,20.48a93.89,93.89,0,0,0,11.07-14.39q6.64-10.51,6.64-26V63.54a135.08,135.08,0,0,1-10,11.07L634.22,49.7q6.09-3.87,14.95-16.05,6.64-9.41,12.18-28.78h24.91a114.24,114.24,0,0,1-3.32,16.05H716.7V45.27q-2.78,18.83-14.95,37.09L686.81,73.5q4.43,17.16,10.52,26t22.7,21l-16.61,22.14Q685.69,128.85,678,117.23a28,28,0,0,0-1.66-2.77q-8.3,14.94-24.91,28.78l-16.06-26,3.32-3.32L629.79,115v27.12h-21V117.23L585,119.44l-3.32-24.91,27.12-2.21V84H582.19l7.75-45.94Zm91.34,7.2-.55.55q3.32-5-3.88,6.09h17.71v3.87a52.82,52.82,0,0,0,4.43-10.52Z"/><path class="cls-3" d="M773.71,10.4q-3.32,12.18-6.64,22.14v109H737.73V83.46l-3.32,3.87-7.75-35.43q14.39-20.47,23.8-48.71Zm-1.11,94.65V75.16h34.32V56.89H795.3a90.32,90.32,0,0,1-7.19,18.27l-21-18.82q8.3-15.49,12.18-43.73H802.5l-1.66,14.94h6.09V4.31h24.91V27.56h24.36V56.89H831.84V75.16h27.68v29.89H831.84v36.53H806.93V105.05Z"/></g><g id="css3"><path class="cls-4" d="M330.5,180.74q-1.1,1.37-1.8,2.4a29.39,29.39,0,0,1-5.63-3.46v1.83h-8V185h13v2.17H299.58V185h13v-3.46h-8.06v-1.81a37.37,37.37,0,0,1-5.53,3.85,21.73,21.73,0,0,0-1.73-2.1,31.78,31.78,0,0,0,8.88-6.33h-8.51v-2.17h6.63V161.78h-5.6v-2.16h5.6V156h2.5v3.6h14.29V156h2.5v3.6h5.6v2.16h-5.6v11.16h6.53v2.17h-8.76A24.09,24.09,0,0,0,330.5,180.74Zm-17.89-4.56h2.5v3.23h7.63a30,30,0,0,1-4.35-4.3h-9.18a43.73,43.73,0,0,1-4.33,4.3h7.73Zm-5.83-12.06h14.29v-2.33H306.78Zm0,4.4h14.29v-2.33H306.78Zm0,4.43h14.29v-2.36H306.78Z"/><path class="cls-4" d="M331,174.94a45.52,45.52,0,0,0,5.43-13.76h-4.33V159H344v2.2h-5.28a59.1,59.1,0,0,1-2.1,7.33h6.08v17h-2.2v-2.23h-3.67v3.16h-2.2V173.23q-.88,1.83-1.9,3.51A15.35,15.35,0,0,0,331,174.94Zm9.43-4.3h-3.67v10.49h3.67Zm19.79,2V171h-4.83v13.39h5.43v-9.6h2.47v13.49h-2.47v-1.5H345.12v-12h2.47v9.6H353V171h-7.23V159.82h2.47v8.83H353V156.35h2.47v12.29h4.83v-8.79h2.47v12.76Z"/><path class="cls-4" d="M369.08,171.78h4.06V165h2.33v6.73H380V174h-4.56v5q2.79-.32,5.43-.65c-.11.84-.19,1.62-.23,2.33q-2.47.27-5.2.6v7.53h-2.33v-7.26l-7.19.93-.3-2.5q3.87-.37,7.5-.75V174h-6.56v-2.1q1.85-4.7,3.13-8.5h-3.53v-2.2h4.25q.93-3,1.45-5.33l2.67.53q-.78,2.43-1.58,4.8h6.95v2.2h-7.7Q370.69,167.71,369.08,171.78Zm17.69-6.33h2.6q0,3.46-.14,6.4,2.62,11.39,9.86,14.69l-2.1,2.3q-6.07-3.36-8.68-12-1.78,7.55-9.58,12.21c-.51-.73-1.08-1.47-1.7-2.2q9.1-5,9.63-14.86Q386.77,169.95,386.77,165.45Zm-8.33,3.67a49.85,49.85,0,0,0,6.09-13.26l2.63.7q-.92,2.6-1.9,4.93h13.09v2.23l-3.46,6.43-2.6-.57,3-5.8h-11a59.32,59.32,0,0,1-3.57,6.73Q379.74,169.88,378.44,169.11Z"/><path class="cls-4" d="M399.53,172.78a57.89,57.89,0,0,0,7.4-16.46l2.73.8Q408.42,161,407,164.4v24.4h-2.63V169.9a49.5,49.5,0,0,1-3.63,5.78A28.82,28.82,0,0,0,399.53,172.78Zm10,2h11.56v-8.43h-6.34a45.07,45.07,0,0,1-3,6.4,16.24,16.24,0,0,0-2.2-1.76,44,44,0,0,0,4.66-12.43l2.7.77q-.65,2.48-1.4,4.7h5.53v-7.73h2.67V164h8v2.33h-8v8.43h9.06v2.33h-9.06v11.66h-2.67V177.11H409.56Z"/><path class="cls-4" d="M433.84,176.94h24.69v2.53H433.84Zm5.63-5.2v-2.53l1.33-13.16h2.77l-.52,5.3h23.64v2.53H442.82l-.51,5.33h22q-.4,7-.9,13-.47,3.53-2,4.77t-5,1.2q-3.28,0-7.58-.13-.2-1.13-.57-2.9,5.07.37,7.56.4,4.46.3,4.86-3.5.44-4.43.73-10.33Z"/><path class="cls-4" d="M468.06,184.37h15.46v-8.5H471.72v-2.57h11.79v-7.7h-8.79a39.83,39.83,0,0,1-5.1,7.23,18.53,18.53,0,0,0-1.8-2.33,38.77,38.77,0,0,0,7.43-12.86l2.73.73q-.88,2.43-2,4.66h7.48V156h2.87V163h12.73v2.57H486.38v7.7h11.79v2.57H486.38v8.5h14.53v2.5H468.06Z"/><path class="cls-4" d="M505.47,169.48h15.76q2.25-3.31,4-6.6l2.57,1.63q-1.76,2.48-3.7,5H534v2.33H508.17v2.33a31.91,31.91,0,0,1-.9,8.79,15.24,15.24,0,0,1-3.53,6.06q-.87-1.07-1.8-2.26a11.8,11.8,0,0,0,2.77-4.93,30.17,30.17,0,0,0,.76-7.66ZM502.74,160h15.21q-.73-1.37-1.61-2.8l2.47-1.23q1.08,1.77,2.21,4h13.84v2.36H502.74Zm7,4.26,2.2-1.47q2.07,2.6,3.67,4.93l-2.36,1.63A55.11,55.11,0,0,0,509.7,164.22Z"/><path class="cls-4" d="M537.75,163.58h10.8q.1-3.67.13-7.46h2.9q-.07,3.53-.17,7.46H566.7q-.4,13-.77,18.42-.43,5.73-6.13,5.8-2.73,0-6.6-.13c-.09-.87-.26-1.92-.5-3.17h.1q4.33.4,6.73.37,3.23-.07,3.57-3.56.4-6,.6-15H551.34q-.3,8.68-2.77,13.06-2.63,4.86-10.26,9.36-.93-1.2-2-2.53,7.23-4.06,9.49-8.19,2.35-3.75,2.63-11.69h-10.7Z"/><path class="cls-4" d="M570.63,174.14h14.76V160.22H572.13v-2.57h29.45v2.57H588.19v13.93H603v2.56H588.19V189h-2.8V176.71H570.63Zm3.2-10.26,2.1-1.47a87.46,87.46,0,0,1,6.43,8.43L580,172.61A93.56,93.56,0,0,0,573.83,163.88Zm17,6.93a54.48,54.48,0,0,0,6.6-8.53l2.5,1.6a93.76,93.76,0,0,1-7,8.66Z"/><path class="cls-4" d="M627.9,160.45q5.23,4.86,9.9,10l-2.36,2q-1.33-1.56-2.7-3.08-15,.63-22.85,1.08a22.49,22.49,0,0,0-3.53.53l-1.1-2.87a9.69,9.69,0,0,0,2.76-1.57,66.58,66.58,0,0,0,10.43-10.76l2.5,1.53a88.88,88.88,0,0,1-10.43,10.43q10.21-.32,20.09-.73-2.28-2.48-4.63-4.83Zm4.9,13.22V188.8h-2.73v-2.2H611.74v2.2H609V173.68Zm-2.73,2.47H611.74v8.06h18.32Z"/><path class="cls-4" d="M640.83,158h9.39v27q0,3.33-3.1,3.33-1.7,0-3.16-.1-.14-1-.4-2.37a19.27,19.27,0,0,0,2.93.27,1.21,1.21,0,0,0,1.37-1.37v-7.66h-4.66q.1,7.66-2.77,11.69a11.2,11.2,0,0,0-1.83-1.87q2.23-3.43,2.23-9.73Zm7,2.17h-4.66v6.4h4.66ZM643.19,175h4.66v-6.43h-4.66ZM653,158.12h16.46q-.17,2.7-.27,4.26-.27,5.16-5.26,5.06l-4.3-.13q-.2-1.3-.43-2.63,2.47.3,4.43.37a2.66,2.66,0,0,0,3.1-2.73q.1-.87.17-1.9H655.52V170h14.06v2a24.35,24.35,0,0,1-4.88,10.18,19.93,19.93,0,0,0,7.15,4.25q-1.13,1.33-1.93,2.4A24.18,24.18,0,0,1,663,184a27.75,27.75,0,0,1-6,4.43q-.63-1.1-1.37-2.2a23.17,23.17,0,0,0,5.75-4.06,22.31,22.31,0,0,1-4.28-10h-1.57v16.56H653Zm14,14.06h-7.58a19.7,19.7,0,0,0,3.68,8.16A21.07,21.07,0,0,0,666.94,172.18Z"/><path class="cls-4" d="M682.2,155.72l2.5,1.07q-.75,1.23-1.57,2.4h18v2.23a27,27,0,0,1-8.48,6.58A48.06,48.06,0,0,0,706,170.51q-1.07,1.5-1.87,2.8a50.44,50.44,0,0,1-14.56-3.88,73.21,73.21,0,0,1-16,4.45q-.57-1-1.37-2.33a71.13,71.13,0,0,0,14.49-3.63,20.51,20.51,0,0,1-6.08-5.48,46.13,46.13,0,0,1-5.71,5.68q-1-1.07-1.83-1.8A33.16,33.16,0,0,0,682.2,155.72Zm-7,19.52h9.7q.23-1.62.4-3.6H688q-.21,2-.45,3.6H701q-.33,6-.63,8.36-.53,4.7-5.6,4.73-2,0-5.9-.13-.2-1.23-.5-2.76,3.83.33,6.33.37a2.88,2.88,0,0,0,3.13-2.86q.3-2.5.43-5.33H687.15q-1.77,8-12.41,11.63-.77-1.1-1.63-2.23,9.56-3.1,11.33-9.39h-9.23Zm22.39-13.86H682.72a20.85,20.85,0,0,0,6.9,5.3A29.16,29.16,0,0,0,697.59,161.38Z"/><path class="cls-4" d="M707,159.68h15.21q-.64-1.18-1.55-2.63l2.57-1.17q1,1.72,2.1,3.8h14.36V162H707Zm2.43,7.13h8.09q-1.15-1.68-2.5-3.33l2-1.37q1.6,1.87,2.9,3.46l-1.8,1.23h7.56a43.31,43.31,0,0,0,3.1-4.56l2.53,1.47q-1.58,1.88-2.67,3.1h8.29v17.46q0,4.2-3.83,4.23-2.07,0-4.66,0a25.4,25.4,0,0,0-.5-2.8q2.63.26,4.33.27,2.17,0,2.17-2.4V169.11H711.89V188.9h-2.5Zm9.76,2.67,1.8,1.73q-3.9,3.33-7.3,5.86a22.5,22.5,0,0,0-1.57-2A53.34,53.34,0,0,0,719.15,169.48Zm-2.57,16.13V174.88h13.36v9H719v1.77Zm11-3.9V177H719v4.7ZM725,171.31l1.47-1.83q4.94,3.1,7.46,5l-1.67,2.1A84.84,84.84,0,0,0,725,171.31Z"/><path class="cls-4" d="M756.18,184.45H740.89v-1.08l10.71-14.64h-9.71V166h14.36v1.07L745.6,181.76h10.58Z"/><path class="cls-4" d="M758.59,172.06q0-6.83,2.26-10.34a7.34,7.34,0,0,1,6.56-3.51q8.19,0,8.19,13.22,0,6.53-2.31,10a7.35,7.35,0,0,1-6.47,3.46,6.88,6.88,0,0,1-6.09-3.28Q758.59,178.33,758.59,172.06Zm3.33-.15q0,10.28,5.21,10.28t5.13-10.44q0-10.81-5-10.81Q761.92,160.93,761.92,171.91Z"/><path class="cls-4" d="M795,184.45H780.23v-2.81H786V162l-5.93,1.72v-3l9.18-2.66v23.54H795Z"/><path class="cls-4" d="M799.07,182.74a2.06,2.06,0,0,1,.61-1.52,2.16,2.16,0,0,1,3.7,1.52,2,2,0,0,1-.61,1.49,2.11,2.11,0,0,1-1.57.62,2.1,2.1,0,0,1-2.13-2.12Z"/><path class="cls-4" d="M820.94,183.62a9.75,9.75,0,0,1-5.1,1.27,8.44,8.44,0,0,1-6.43-2.57,9.27,9.27,0,0,1-2.43-6.65,10.19,10.19,0,0,1,2.62-7.3,9.21,9.21,0,0,1,7-2.77,9.59,9.59,0,0,1,4.33.9v3.23a7.14,7.14,0,0,0-4.33-1.43,5.86,5.86,0,0,0-4.55,1.94,7.41,7.41,0,0,0-1.76,5.17,7.08,7.08,0,0,0,1.66,5,5.79,5.79,0,0,0,4.47,1.8,7.42,7.42,0,0,0,4.5-1.57Z"/><path class="cls-4" d="M824.09,175.44a9.94,9.94,0,0,1,2.55-7.2,9.16,9.16,0,0,1,6.91-2.64,8.43,8.43,0,0,1,6.5,2.54,11.37,11.37,0,0,1-.16,14.07,8.8,8.8,0,0,1-6.75,2.68,8.67,8.67,0,0,1-6.6-2.6A9.54,9.54,0,0,1,824.09,175.44Zm3.33-.1a7.33,7.33,0,0,0,1.61,5,5.46,5.46,0,0,0,4.32,1.83,5.18,5.18,0,0,0,4.26-1.79,9.79,9.79,0,0,0,0-10.3,5.18,5.18,0,0,0-4.26-1.8,5.38,5.38,0,0,0-4.34,1.88A7.75,7.75,0,0,0,827.42,175.34Z"/><path class="cls-4" d="M873.53,184.45h-3.26V173.88a7.52,7.52,0,0,0-.93-4.29,3.53,3.53,0,0,0-3.07-1.29,3.78,3.78,0,0,0-3.08,1.68,6.37,6.37,0,0,0-1.28,4v10.49h-3.26V173.54q0-5.25-4-5.25a3.73,3.73,0,0,0-3.09,1.6,6.51,6.51,0,0,0-1.23,4.08v10.48H847V166h3.26v2.92h.07a6.28,6.28,0,0,1,5.75-3.35,5.45,5.45,0,0,1,3.26,1,5.23,5.23,0,0,1,2,2.75,6.59,6.59,0,0,1,6.13-3.76q6.08,0,6.08,7.5Z"/></g><path class="cls-5" d="M294.25,75.35c-2.55-8.87-6.83-16.55-12.42-22.13a32.52,32.52,0,0,0-9.34-6.6A27,27,0,0,0,267.86,45a21.3,21.3,0,0,0,.33-3.67A18.69,18.69,0,0,0,266.72,34,17.55,17.55,0,0,0,264,29.61a16.77,16.77,0,0,0-5.52-4.33,14.87,14.87,0,0,0-6.47-1.53,12.68,12.68,0,0,0-6.61,1.82A13,13,0,0,0,242.54,28a14.1,14.1,0,0,0-1,1.24,26.38,26.38,0,0,0,.73-6.09,23.49,23.49,0,0,0-1.88-9.3,22.23,22.23,0,0,0-3.59-5.75,22.48,22.48,0,0,0-8-5.88A24.79,24.79,0,0,0,218.81.15a32.83,32.83,0,0,0-17,5.1,33.27,33.27,0,0,1-7.62,3.48,21.7,21.7,0,0,1-6.27,1A19.09,19.09,0,0,1,182.75,9a25.44,25.44,0,0,1-6.51-3c-1-.61-1.9-1.24-2.78-1.87s-1.73-1.25-2.56-1.84a4.24,4.24,0,0,0-4.92,0c-1.12.78-2.24,1.63-3.46,2.47a32.26,32.26,0,0,1-6.08,3.42,19.61,19.61,0,0,1-7.54,1.53,21.69,21.69,0,0,1-6.27-1A33.25,33.25,0,0,1,135,5.25a32.83,32.83,0,0,0-17-5.1,23.69,23.69,0,0,0-16.48,6.34,22.21,22.21,0,0,0-5.12,7.36,23.51,23.51,0,0,0-1.88,9.3,26.42,26.42,0,0,0,.78,6.29A14.06,14.06,0,0,0,94.21,28a12.67,12.67,0,0,0-4.52-3.25,12.81,12.81,0,0,0-5-1A14.73,14.73,0,0,0,78.91,25a16.81,16.81,0,0,0-7.21,6,17.66,17.66,0,0,0-2.29,4.74,19,19,0,0,0-.84,5.65A21.18,21.18,0,0,0,68.89,45,28,28,0,0,0,61,48.41a36.13,36.13,0,0,0-8.71,7.77,52.33,52.33,0,0,0-9.06,17,70.79,70.79,0,0,0-.67,40.47c2.55,8.87,6.83,16.55,12.42,22.13a32.51,32.51,0,0,0,9.34,6.6A26.8,26.8,0,0,0,68.89,144a21.18,21.18,0,0,0-.33,3.66A18.71,18.71,0,0,0,70,155a17.48,17.48,0,0,0,2.67,4.37,16.76,16.76,0,0,0,5.52,4.33,14.87,14.87,0,0,0,6.47,1.53,12.64,12.64,0,0,0,6.61-1.82A12.87,12.87,0,0,0,94.21,161a14.34,14.34,0,0,0,1.51-2c-.11.37-.22.74-.32,1.13a26.48,26.48,0,0,0-.86,6.61,23.51,23.51,0,0,0,1.88,9.3,22.25,22.25,0,0,0,3.59,5.75,22.49,22.49,0,0,0,8,5.88A24.79,24.79,0,0,0,118,189.65a32.83,32.83,0,0,0,17-5.1,33.26,33.26,0,0,1,7.62-3.49,21.68,21.68,0,0,1,6.27-1,19,19,0,0,1,5.21.72,25.38,25.38,0,0,1,6.51,3c1,.61,1.9,1.24,2.78,1.87s1.73,1.25,2.56,1.84a4.24,4.24,0,0,0,4.92,0c1.11-.78,2.24-1.63,3.46-2.47a32.28,32.28,0,0,1,6.08-3.42A19.62,19.62,0,0,1,188,180.1a21.69,21.69,0,0,1,6.27,1,33.26,33.26,0,0,1,7.62,3.49,32.83,32.83,0,0,0,17,5.1,23.69,23.69,0,0,0,16.48-6.34,22.2,22.2,0,0,0,5.12-7.36,23.49,23.49,0,0,0,1.88-9.3,26.44,26.44,0,0,0-.86-6.61c-.08-.3-.17-.58-.25-.87a14.12,14.12,0,0,0,1.36,1.8,12.61,12.61,0,0,0,9.52,4.25,14.73,14.73,0,0,0,5.78-1.22,16.82,16.82,0,0,0,7.21-6,17.72,17.72,0,0,0,2.29-4.74,19,19,0,0,0,.84-5.65,21.2,21.2,0,0,0-.33-3.66,28,28,0,0,0,7.94-3.42,36.05,36.05,0,0,0,8.71-7.77,52.29,52.29,0,0,0,9.06-17,68.76,68.76,0,0,0,3.3-21.33A69.48,69.48,0,0,0,294.25,75.35Z"/><g class="cls-6"><g class="cls-7"><path class="cls-8" d="M100.47,159.21c0-17-15.63-31.12-34.85-31.12S30.77,142.2,30.77,159.21H27.7c0-18.8,17-33.87,37.92-33.87s37.92,15.06,37.92,33.87Z"/><path class="cls-8" d="M96.18,159.21c0-15.22-13.71-27.3-30.56-27.3S35.06,144,35.06,159.21H32c0-17,15.09-30,33.63-30s33.63,13,33.63,30Z"/><path class="cls-8" d="M91,159.21c0-12.54-11.37-22.63-25.34-22.63s-25.34,10.1-25.34,22.63H37.21c0-14.33,12.75-25.37,28.41-25.37S94,144.89,94,159.21Z"/><path class="cls-8" d="M85.59,159.21c0-9.85-9-17.84-20-17.84s-20,8-20,17.84H42.58c0-11.64,10.34-20.58,23-20.58s23,8.94,23,20.58Z"/><path class="cls-8" d="M80.06,159.21c0-7.16-6.48-12.9-14.44-12.9S51.18,152,51.18,159.21H48.11c0-9,7.86-15.64,17.51-15.64s17.51,6.69,17.51,15.64Z"/><path class="cls-8" d="M152.51,159.21c0-17-15.63-31.12-34.85-31.12S82.81,142.2,82.81,159.21H79.74c0-18.8,17-33.87,37.92-33.87s37.92,15.06,37.92,33.87Z"/><path class="cls-8" d="M148.23,159.21c0-15.22-13.71-27.3-30.56-27.3S87.1,144,87.1,159.21H84c0-17,15.09-30,33.63-30s33.63,13,33.63,30Z"/><path class="cls-8" d="M143,159.21c0-12.54-11.37-22.63-25.34-22.63s-25.34,10.1-25.34,22.63H89.25c0-14.33,12.75-25.37,28.41-25.37s28.41,11,28.41,25.38Z"/><path class="cls-8" d="M137.63,159.21c0-9.85-9-17.84-20-17.84s-20,8-20,17.84H94.62c0-11.64,10.34-20.58,23-20.58s23,8.94,23,20.58Z"/><path class="cls-8" d="M132.11,159.21c0-7.16-6.48-12.9-14.44-12.9s-14.44,5.73-14.44,12.9h-3.07c0-9,7.86-15.64,17.51-15.64s17.51,6.69,17.51,15.64Z"/><path class="cls-8" d="M204.56,159.21c0-17-15.63-31.12-34.85-31.12s-34.85,14.11-34.85,31.12h-3.07c0-18.8,17-33.87,37.92-33.87s37.92,15.06,37.92,33.87Z"/><path class="cls-8" d="M200.27,159.21c0-15.22-13.71-27.3-30.56-27.3s-30.56,12.07-30.56,27.3h-3.07c0-17,15.09-30,33.63-30s33.63,13,33.63,30Z"/><path class="cls-8" d="M195.05,159.21c0-12.54-11.37-22.63-25.34-22.63s-25.34,10.1-25.34,22.63h-3.07c0-14.33,12.75-25.37,28.41-25.37s28.42,11,28.42,25.38Z"/><path class="cls-8" d="M189.68,159.21c0-9.85-9-17.84-20-17.84s-20,8-20,17.84h-3.07c0-11.64,10.34-20.58,23-20.58s23,8.94,23,20.58Z"/><path class="cls-8" d="M184.15,159.21c0-7.16-6.48-12.9-14.44-12.9s-14.44,5.73-14.44,12.9h-3.07c0-9,7.86-15.64,17.51-15.64s17.51,6.69,17.51,15.64Z"/><path class="cls-8" d="M256.6,159.21c0-17-15.63-31.12-34.85-31.12S186.9,142.2,186.9,159.21h-3.07c0-18.8,17-33.87,37.92-33.87s37.92,15.06,37.92,33.87Z"/><path class="cls-8" d="M252.31,159.21c0-15.22-13.71-27.3-30.56-27.3s-30.56,12.07-30.56,27.3h-3.07c0-17,15.09-30,33.63-30s33.63,13,33.63,30Z"/><path class="cls-8" d="M247.09,159.21c0-12.54-11.37-22.63-25.34-22.63s-25.34,10.1-25.34,22.63h-3.07c0-14.33,12.75-25.37,28.41-25.37s28.41,11,28.41,25.38Z"/><path class="cls-8" d="M241.72,159.21c0-9.85-9-17.84-20-17.84s-20,8-20,17.84h-3.07c0-11.64,10.34-20.58,23-20.58s23,8.94,23,20.58Z"/><path class="cls-8" d="M236.19,159.21c0-7.16-6.48-12.9-14.44-12.9s-14.44,5.73-14.44,12.9h-3.07c0-9,7.86-15.64,17.51-15.64s17.51,6.69,17.51,15.64Z"/><path class="cls-8" d="M308.64,159.21c0-17-15.63-31.12-34.85-31.12s-34.85,14.11-34.85,31.12h-3.07c0-18.8,17-33.87,37.92-33.87s37.92,15.06,37.92,33.87Z"/><path class="cls-8" d="M304.36,159.21c0-15.22-13.71-27.3-30.56-27.3s-30.56,12.07-30.56,27.3h-3.07c0-17,15.09-30,33.63-30s33.63,13,33.63,30Z"/><path class="cls-8" d="M299.14,159.21c0-12.54-11.37-22.63-25.34-22.63s-25.34,10.1-25.34,22.63h-3.07c0-14.33,12.75-25.37,28.41-25.37s28.42,11,28.42,25.38Z"/><path class="cls-8" d="M293.76,159.21c0-9.85-9-17.84-20-17.84s-20,8-20,17.84h-3.07c0-11.64,10.34-20.58,23-20.58s23,8.94,23,20.58Z"/><path class="cls-8" d="M288.24,159.21c0-7.16-6.48-12.9-14.44-12.9s-14.44,5.73-14.44,12.9h-3.07c0-9,7.86-15.64,17.51-15.64s17.51,6.69,17.51,15.64Z"/><path class="cls-8" d="M72.77,189.65c0-17-15.63-31.12-34.85-31.12S3.07,172.64,3.07,189.65H0c0-17.91,17-33.86,37.92-33.86s37.92,16,37.92,33.86Z"/><path class="cls-8" d="M68.48,189.65c0-14.33-13.71-27.29-30.56-27.29s-30.56,13-30.56,27.29H4.29c0-16.12,15.09-30,33.63-30s33.63,13.92,33.63,30Z"/><path class="cls-8" d="M63.26,189.65C63.26,178,51.89,167,37.92,167s-25.34,11-25.34,22.63H9.51c0-13.43,12.75-25.38,28.41-25.38s28.41,11.95,28.41,25.38Z"/><path class="cls-8" d="M57.89,189.65c0-9.85-9-17.83-20-17.83s-20,8-20,17.83H14.88c0-10.74,10.34-20.58,23-20.58s23,9.83,23,20.58Z"/><path class="cls-8" d="M52.36,189.65c0-6.27-6.48-12.9-14.44-12.9s-14.44,6.63-14.44,12.9H20.41c0-8.06,7.86-15.64,17.51-15.64s17.51,7.58,17.51,15.64Z"/><path class="cls-8" d="M124.81,189.65c0-17-15.63-31.12-34.85-31.12s-34.85,14.11-34.85,31.12H52c0-17.91,17-33.86,37.92-33.86s37.92,16,37.92,33.86Z"/><path class="cls-8" d="M120.53,189.65c0-14.33-13.71-27.29-30.56-27.29s-30.56,13-30.56,27.29H56.33c0-16.12,15.09-30,33.63-30s33.63,13.92,33.63,30Z"/><path class="cls-8" d="M115.31,189.65C115.31,178,103.94,167,90,167s-25.34,11-25.34,22.63H61.55c0-13.43,12.75-25.38,28.41-25.38s28.41,11.95,28.41,25.38Z"/><path class="cls-8" d="M109.93,189.65c0-9.85-9-17.83-20-17.83s-20,8-20,17.83H66.92c0-10.74,10.34-20.58,23-20.58s23,9.83,23,20.58Z"/><path class="cls-8" d="M104.41,189.65c0-6.27-6.48-12.9-14.44-12.9s-14.44,6.63-14.44,12.9H72.45C72.45,181.6,80.31,174,90,174s17.51,7.58,17.51,15.64Z"/><path class="cls-8" d="M176.86,189.65c0-17-15.63-31.12-34.85-31.12s-34.85,14.11-34.85,31.12h-3.07c0-17.91,17-33.86,37.92-33.86s37.92,16,37.92,33.86Z"/><path class="cls-8" d="M172.57,189.65c0-14.33-13.71-27.29-30.56-27.29s-30.56,13-30.56,27.29h-3.07c0-16.12,15.09-30,33.63-30s33.63,13.92,33.63,30Z"/><path class="cls-8" d="M167.35,189.65C167.35,178,156,167,142,167s-25.34,11-25.34,22.63h-3.07c0-13.43,12.75-25.38,28.41-25.38s28.41,11.95,28.41,25.38Z"/><path class="cls-8" d="M162,189.65c0-9.85-9-17.83-20-17.83s-20,8-20,17.83H119c0-10.74,10.34-20.58,23-20.58s23,9.83,23,20.58Z"/><path class="cls-8" d="M156.45,189.65c0-6.27-6.48-12.9-14.44-12.9s-14.44,6.63-14.44,12.9h-3.07c0-8.06,7.86-15.64,17.51-15.64s17.51,7.58,17.51,15.64Z"/><path class="cls-8" d="M228.9,189.65c0-17-15.63-31.12-34.85-31.12s-34.85,14.11-34.85,31.12h-3.07c0-17.91,17-33.86,37.92-33.86s37.92,16,37.92,33.86Z"/><path class="cls-8" d="M224.61,189.65c0-14.33-13.71-27.29-30.56-27.29s-30.56,13-30.56,27.29h-3.07c0-16.12,15.09-30,33.63-30s33.63,13.92,33.63,30Z"/><path class="cls-8" d="M219.39,189.65C219.39,178,208,167,194,167s-25.34,11-25.34,22.63h-3.07c0-13.43,12.75-25.38,28.41-25.38s28.41,11.95,28.41,25.38Z"/><path class="cls-8" d="M214,189.65c0-9.85-9-17.83-20-17.83s-20,8-20,17.83H171c0-10.74,10.34-20.58,23-20.58s23,9.83,23,20.58Z"/><path class="cls-8" d="M208.49,189.65c0-6.27-6.48-12.9-14.44-12.9s-14.44,6.63-14.44,12.9h-3.07c0-8.06,7.86-15.64,17.51-15.64s17.51,7.58,17.51,15.64Z"/><path class="cls-8" d="M280.94,189.65c0-17-15.63-31.12-34.85-31.12s-34.85,14.11-34.85,31.12h-3.07c0-17.91,17-33.86,37.92-33.86s37.92,16,37.92,33.86Z"/><path class="cls-8" d="M276.66,189.65c0-14.33-13.71-27.29-30.56-27.29s-30.56,13-30.56,27.29h-3.07c0-16.12,15.09-30,33.63-30s33.63,13.92,33.63,30Z"/><path class="cls-8" d="M271.44,189.65c0-11.64-11.37-22.63-25.34-22.63s-25.34,11-25.34,22.63h-3.07c0-13.43,12.75-25.38,28.41-25.38s28.41,11.95,28.41,25.38Z"/><path class="cls-8" d="M266.06,189.65c0-9.85-9-17.83-20-17.83s-20,8-20,17.83h-3.07c0-10.74,10.34-20.58,23-20.58s23,9.83,23,20.58Z"/><path class="cls-8" d="M260.54,189.65c0-6.27-6.48-12.9-14.44-12.9s-14.44,6.63-14.44,12.9h-3.07c0-8.06,7.86-15.64,17.51-15.64s17.51,7.58,17.51,15.64Z"/><path class="cls-8" d="M333,189.65c0-17-15.63-31.12-34.85-31.12s-34.85,14.11-34.85,31.12h-3.07c0-17.91,17-33.86,37.92-33.86s37.92,16,37.92,33.86Z"/><path class="cls-8" d="M328.7,189.65c0-14.33-13.71-27.29-30.56-27.29s-30.56,13-30.56,27.29H264.5c0-16.12,15.09-30,33.63-30s33.63,13.92,33.63,30Z"/><path class="cls-8" d="M323.48,189.65c0-11.64-11.37-22.63-25.34-22.63s-25.34,11-25.34,22.63h-3.07c0-13.43,12.74-25.38,28.41-25.38s28.41,11.95,28.41,25.38Z"/><path class="cls-8" d="M318.11,189.65c0-9.85-9-17.83-20-17.83s-20,8-20,17.83H275.1c0-10.74,10.33-20.58,23-20.58s23,9.83,23,20.58Z"/><path class="cls-8" d="M312.58,189.65c0-6.27-6.48-12.9-14.44-12.9s-14.44,6.63-14.44,12.9h-3.07c0-8.06,7.86-15.64,17.51-15.64s17.51,7.58,17.51,15.64Z"/><path class="cls-8" d="M100.47,96.54c0-17-15.63-31.12-34.85-31.12S30.77,79.53,30.77,96.54H27.7c0-18.8,17-33.87,37.92-33.87s37.92,15.06,37.92,33.87Z"/><path class="cls-8" d="M96.18,96.54c0-15.22-13.71-27.29-30.56-27.29S35.06,81.32,35.06,96.54H32c0-16.12,15.09-30,33.63-30s33.63,13.92,33.63,30Z"/><path class="cls-8" d="M91,96.54C91,84,79.59,73.91,65.62,73.91S40.28,84,40.28,96.54H37.21c0-14.33,12.75-25.37,28.41-25.37S94,82.21,94,96.54Z"/><path class="cls-8" d="M85.59,96.54c0-9.85-9-17.83-20-17.83s-20,8-20,17.83H42.58C42.58,84.9,52.92,76,65.62,76s23,8.94,23,20.58Z"/><path class="cls-8" d="M80.06,96.54c0-7.16-6.48-12.9-14.44-12.9s-14.44,5.74-14.44,12.9H48.11c0-9,7.86-15.64,17.51-15.64s17.51,6.69,17.51,15.64Z"/><path class="cls-8" d="M152.51,96.54c0-17-15.63-31.12-34.85-31.12S82.81,79.53,82.81,96.54H79.74c0-18.8,17-33.87,37.92-33.87s37.92,15.06,37.92,33.87Z"/><path class="cls-8" d="M148.23,96.54c0-15.22-13.71-27.29-30.56-27.29S87.1,81.32,87.1,96.54H84c0-16.12,15.09-30,33.63-30s33.63,13.92,33.63,30Z"/><path class="cls-8" d="M143,96.54c0-12.54-11.37-22.63-25.34-22.63S92.32,84,92.32,96.54H89.25c0-14.33,12.75-25.37,28.41-25.37s28.41,11,28.41,25.38Z"/><path class="cls-8" d="M137.63,96.54c0-9.85-9-17.83-20-17.83s-20,8-20,17.83H94.62C94.62,84.9,105,76,117.66,76s23,8.94,23,20.58Z"/><path class="cls-8" d="M132.11,96.54c0-7.16-6.48-12.9-14.44-12.9s-14.44,5.74-14.44,12.9h-3.07c0-9,7.86-15.64,17.51-15.64s17.51,6.69,17.51,15.64Z"/><path class="cls-8" d="M204.56,96.54c0-17-15.63-31.12-34.85-31.12s-34.85,14.11-34.85,31.12h-3.07c0-18.8,17-33.87,37.92-33.87s37.92,15.06,37.92,33.87Z"/><path class="cls-8" d="M200.27,96.54c0-15.22-13.71-27.29-30.56-27.29s-30.56,12.07-30.56,27.29h-3.07c0-16.12,15.09-30,33.63-30s33.63,13.92,33.63,30Z"/><path class="cls-8" d="M195.05,96.54c0-12.54-11.37-22.63-25.34-22.63S144.36,84,144.36,96.54h-3.07c0-14.33,12.75-25.37,28.41-25.37s28.42,11,28.42,25.38Z"/><path class="cls-8" d="M189.68,96.54c0-9.85-9-17.83-20-17.83s-20,8-20,17.83h-3.07C146.67,84.9,157,76,169.71,76s23,8.94,23,20.58Z"/><path class="cls-8" d="M184.15,96.54c0-7.16-6.48-12.9-14.44-12.9s-14.44,5.74-14.44,12.9h-3.07c0-9,7.86-15.64,17.51-15.64s17.51,6.69,17.51,15.64Z"/><path class="cls-8" d="M256.6,96.54c0-17-15.63-31.12-34.85-31.12S186.9,79.53,186.9,96.54h-3.07c0-18.8,17-33.87,37.92-33.87s37.92,15.06,37.92,33.87Z"/><path class="cls-8" d="M252.31,96.54c0-15.22-13.71-27.29-30.56-27.29s-30.56,12.07-30.56,27.29h-3.07c0-16.12,15.09-30,33.63-30s33.63,13.92,33.63,30Z"/><path class="cls-8" d="M247.09,96.54c0-12.54-11.37-22.63-25.34-22.63S196.41,84,196.41,96.54h-3.07c0-14.33,12.75-25.37,28.41-25.37s28.41,11,28.41,25.38Z"/><path class="cls-8" d="M241.72,96.54c0-9.85-9-17.83-20-17.83s-20,8-20,17.83h-3.07C198.71,84.9,209,76,221.75,76s23,8.94,23,20.58Z"/><path class="cls-8" d="M236.19,96.54c0-7.16-6.48-12.9-14.44-12.9s-14.44,5.74-14.44,12.9h-3.07c0-9,7.86-15.64,17.51-15.64s17.51,6.69,17.51,15.64Z"/><path class="cls-8" d="M308.64,96.54c0-17-15.63-31.12-34.85-31.12s-34.85,14.11-34.85,31.12h-3.07c0-18.8,17-33.87,37.92-33.87s37.92,15.06,37.92,33.87Z"/><path class="cls-8" d="M304.36,96.54c0-15.22-13.71-27.29-30.56-27.29s-30.56,12.07-30.56,27.29h-3.07c0-16.12,15.09-30,33.63-30s33.63,13.92,33.63,30Z"/><path class="cls-8" d="M299.14,96.54c0-12.54-11.37-22.63-25.34-22.63S248.45,84,248.45,96.54h-3.07c0-14.33,12.75-25.37,28.41-25.37s28.42,11,28.42,25.38Z"/><path class="cls-8" d="M293.76,96.54c0-9.85-9-17.83-20-17.83s-20,8-20,17.83h-3.07c0-11.64,10.34-20.58,23-20.58s23,8.94,23,20.58Z"/><path class="cls-8" d="M288.24,96.54c0-7.16-6.48-12.9-14.44-12.9s-14.44,5.74-14.44,12.9h-3.07c0-9,7.86-15.64,17.51-15.64s17.51,6.69,17.51,15.64Z"/><path class="cls-8" d="M72.77,127.88c0-17.9-15.63-31.12-34.85-31.12S3.07,110,3.07,127.88H0C0,109.08,17,94,37.92,94s37.92,15.07,37.92,33.87Z"/><path class="cls-8" d="M68.48,127.88c0-15.22-13.71-27.29-30.56-27.29S7.36,112.66,7.36,127.88H4.29c0-17,15.09-30,33.63-30s33.63,13,33.63,30Z"/><path class="cls-8" d="M63.26,127.88c0-12.53-11.37-22.63-25.34-22.63s-25.34,10.1-25.34,22.63H9.51c0-14.32,12.75-25.37,28.41-25.37s28.41,11.05,28.41,25.38Z"/><path class="cls-8" d="M57.89,127.88c0-9.85-9-17.83-20-17.83s-20,8-20,17.83H14.88c0-11.64,10.34-20.58,23-20.58s23,8.94,23,20.58Z"/><path class="cls-8" d="M52.36,127.88c0-7.16-6.48-12.9-14.44-12.9s-14.44,5.73-14.44,12.9H20.41c0-9,7.86-15.64,17.51-15.64s17.51,6.69,17.51,15.64Z"/><path class="cls-8" d="M124.81,127.88c0-17.9-15.63-31.12-34.85-31.12S55.11,110,55.11,127.88H52C52,109.08,69.05,94,90,94s37.92,15.07,37.92,33.87Z"/><path class="cls-8" d="M120.53,127.88c0-15.22-13.71-27.29-30.56-27.29S59.4,112.66,59.4,127.88H56.33c0-17,15.09-30,33.63-30s33.63,13,33.63,30Z"/><path class="cls-8" d="M115.31,127.88c0-12.53-11.37-22.63-25.34-22.63s-25.34,10.1-25.34,22.63H61.55c0-14.32,12.75-25.37,28.41-25.37s28.41,11.05,28.41,25.38Z"/><path class="cls-8" d="M109.93,127.88c0-9.85-9-17.83-20-17.83s-20,8-20,17.83H66.92c0-11.64,10.34-20.58,23-20.58s23,8.94,23,20.58Z"/><path class="cls-8" d="M104.41,127.88c0-7.16-6.48-12.9-14.44-12.9s-14.44,5.73-14.44,12.9H72.45c0-9,7.86-15.64,17.51-15.64s17.51,6.69,17.51,15.64Z"/><path class="cls-8" d="M176.86,127.88c0-17.9-15.63-31.12-34.85-31.12S107.16,110,107.16,127.88h-3.07c0-18.8,17-33.87,37.92-33.87s37.92,15.07,37.92,33.87Z"/><path class="cls-8" d="M172.57,127.88c0-15.22-13.71-27.29-30.56-27.29s-30.56,12.07-30.56,27.29h-3.07c0-17,15.09-30,33.63-30s33.63,13,33.63,30Z"/><path class="cls-8" d="M167.35,127.88c0-12.53-11.37-22.63-25.34-22.63s-25.34,10.1-25.34,22.63h-3.07c0-14.32,12.75-25.37,28.41-25.37s28.41,11.05,28.41,25.38Z"/><path class="cls-8" d="M162,127.88C162,118,153,110,142,110s-20,8-20,17.83H119c0-11.64,10.34-20.58,23-20.58s23,8.94,23,20.58Z"/><path class="cls-8" d="M156.45,127.88c0-7.16-6.48-12.9-14.44-12.9s-14.44,5.73-14.44,12.9h-3.07c0-9,7.86-15.64,17.51-15.64s17.51,6.69,17.51,15.64Z"/><path class="cls-8" d="M228.9,127.88c0-17.9-15.63-31.12-34.85-31.12S159.2,110,159.2,127.88h-3.07c0-18.8,17-33.87,37.92-33.87S232,109.08,232,127.88Z"/><path class="cls-8" d="M224.61,127.88c0-15.22-13.71-27.29-30.56-27.29s-30.56,12.07-30.56,27.29h-3.07c0-17,15.09-30,33.63-30s33.63,13,33.63,30Z"/><path class="cls-8" d="M219.39,127.88c0-12.53-11.37-22.63-25.34-22.63s-25.34,10.1-25.34,22.63h-3.07c0-14.32,12.75-25.37,28.41-25.37s28.41,11.05,28.41,25.38Z"/><path class="cls-8" d="M214,127.88c0-9.85-9-17.83-20-17.83s-20,8-20,17.83H171c0-11.64,10.34-20.58,23-20.58s23,8.94,23,20.58Z"/><path class="cls-8" d="M208.49,127.88c0-7.16-6.48-12.9-14.44-12.9s-14.44,5.73-14.44,12.9h-3.07c0-9,7.86-15.64,17.51-15.64s17.51,6.69,17.51,15.64Z"/><path class="cls-8" d="M280.94,127.88c0-17.9-15.63-31.12-34.85-31.12S211.24,110,211.24,127.88h-3.07c0-18.8,17-33.87,37.92-33.87S284,109.08,284,127.88Z"/><path class="cls-8" d="M276.66,127.88c0-15.22-13.71-27.29-30.56-27.29s-30.56,12.07-30.56,27.29h-3.07c0-17,15.09-30,33.63-30s33.63,13,33.63,30Z"/><path class="cls-8" d="M271.44,127.88c0-12.53-11.37-22.63-25.34-22.63s-25.34,10.1-25.34,22.63h-3.07c0-14.32,12.75-25.37,28.41-25.37s28.41,11.05,28.41,25.38Z"/><path class="cls-8" d="M266.06,127.88c0-9.85-9-17.83-20-17.83s-20,8-20,17.83h-3.07c0-11.64,10.34-20.58,23-20.58s23,8.94,23,20.58Z"/><path class="cls-8" d="M260.54,127.88c0-7.16-6.48-12.9-14.44-12.9s-14.44,5.73-14.44,12.9h-3.07c0-9,7.86-15.64,17.51-15.64s17.51,6.69,17.51,15.64Z"/><path class="cls-8" d="M333,127.88c0-17.9-15.63-31.12-34.85-31.12S263.29,110,263.29,127.88h-3.07c0-18.8,17-33.87,37.92-33.87s37.92,15.07,37.92,33.87Z"/><path class="cls-8" d="M328.7,127.88c0-15.22-13.71-27.29-30.56-27.29s-30.56,12.07-30.56,27.29H264.5c0-17,15.09-30,33.63-30s33.63,13,33.63,30Z"/><path class="cls-8" d="M323.48,127.88c0-12.53-11.37-22.63-25.34-22.63s-25.34,10.1-25.34,22.63h-3.07c0-14.32,12.74-25.37,28.41-25.37s28.41,11.05,28.41,25.38Z"/><path class="cls-8" d="M318.11,127.88c0-9.85-9-17.83-20-17.83s-20,8-20,17.83H275.1c0-11.64,10.33-20.58,23-20.58s23,8.94,23,20.58Z"/><path class="cls-8" d="M312.58,127.88c0-7.16-6.48-12.9-14.44-12.9s-14.44,5.73-14.44,12.9h-3.07c0-9,7.86-15.64,17.51-15.64s17.51,6.69,17.51,15.64Z"/><path class="cls-8" d="M100.47,33.87c0-17-15.63-31.12-34.85-31.12S30.77,16.85,30.77,33.87H27.7C27.7,15.06,44.71,0,65.62,0s37.92,15.06,37.92,33.87Z"/><path class="cls-8" d="M96.18,33.87c0-15.22-13.71-27.3-30.56-27.3S35.06,18.65,35.06,33.87H32c0-16.12,15.09-30,33.63-30s33.63,13.92,33.63,30Z"/><path class="cls-8" d="M91,33.87c0-12.54-11.37-22.63-25.34-22.63S40.28,21.33,40.28,33.87H37.21C37.21,20.44,50,8.49,65.62,8.49S94,20.44,94,33.87Z"/><path class="cls-8" d="M85.59,33.87c0-9.85-9-17.83-20-17.83s-20,8-20,17.83H42.58c0-11.64,10.34-20.58,23-20.58s23,8.94,23,20.58Z"/><path class="cls-8" d="M80.06,33.87c0-7.16-6.48-12.9-14.44-12.9S51.18,26.7,51.18,33.87H48.11c0-8.06,7.86-15.64,17.51-15.64s17.51,7.59,17.51,15.64Z"/><path class="cls-8" d="M152.51,33.87c0-17-15.63-31.12-34.85-31.12S82.81,16.85,82.81,33.87H79.74c0-18.8,17-33.87,37.92-33.87s37.92,15.06,37.92,33.87Z"/><path class="cls-8" d="M148.23,33.87c0-15.22-13.71-27.3-30.56-27.3S87.1,18.65,87.1,33.87H84c0-16.12,15.09-30,33.63-30s33.63,13.92,33.63,30Z"/><path class="cls-8" d="M143,33.87c0-12.54-11.37-22.63-25.34-22.63S92.32,21.33,92.32,33.87H89.25c0-13.43,12.75-25.38,28.41-25.38s28.41,11.95,28.41,25.38Z"/><path class="cls-8" d="M137.63,33.87c0-9.85-9-17.83-20-17.83s-20,8-20,17.83H94.62c0-11.64,10.34-20.58,23-20.58s23,8.94,23,20.58Z"/><path class="cls-8" d="M132.11,33.87c0-7.16-6.48-12.9-14.44-12.9s-14.44,5.74-14.44,12.9h-3.07c0-8.06,7.86-15.64,17.51-15.64s17.51,7.59,17.51,15.64Z"/><path class="cls-8" d="M204.56,33.87c0-17-15.63-31.12-34.85-31.12s-34.85,14.11-34.85,31.12h-3.07c0-18.8,17-33.87,37.92-33.87s37.92,15.06,37.92,33.87Z"/><path class="cls-8" d="M200.27,33.87c0-15.22-13.71-27.3-30.56-27.3s-30.56,12.08-30.56,27.3h-3.07c0-16.12,15.09-30,33.63-30s33.63,13.92,33.63,30Z"/><path class="cls-8" d="M195.05,33.87c0-12.54-11.37-22.63-25.34-22.63s-25.34,10.1-25.34,22.63h-3.07c0-13.43,12.75-25.38,28.41-25.38s28.42,11.95,28.42,25.38Z"/><path class="cls-8" d="M189.68,33.87c0-9.85-9-17.83-20-17.83s-20,8-20,17.83h-3.07c0-11.64,10.34-20.58,23-20.58s23,8.94,23,20.58Z"/><path class="cls-8" d="M184.15,33.87c0-7.16-6.48-12.9-14.44-12.9s-14.44,5.74-14.44,12.9h-3.07c0-8.06,7.86-15.64,17.51-15.64s17.51,7.59,17.51,15.64Z"/><path class="cls-8" d="M256.6,33.87c0-17-15.63-31.12-34.85-31.12S186.9,16.85,186.9,33.87h-3.07c0-18.8,17-33.87,37.92-33.87s37.92,15.06,37.92,33.87Z"/><path class="cls-8" d="M252.31,33.87c0-15.22-13.71-27.3-30.56-27.3s-30.56,12.08-30.56,27.3h-3.07c0-16.12,15.09-30,33.63-30s33.63,13.92,33.63,30Z"/><path class="cls-8" d="M247.09,33.87c0-12.54-11.37-22.63-25.34-22.63s-25.34,10.1-25.34,22.63h-3.07c0-13.43,12.75-25.38,28.41-25.38s28.41,11.95,28.41,25.38Z"/><path class="cls-8" d="M241.72,33.87c0-9.85-9-17.83-20-17.83s-20,8-20,17.83h-3.07c0-11.64,10.34-20.58,23-20.58s23,8.94,23,20.58Z"/><path class="cls-8" d="M236.19,33.87c0-7.16-6.48-12.9-14.44-12.9s-14.44,5.74-14.44,12.9h-3.07c0-8.06,7.86-15.64,17.51-15.64s17.51,7.59,17.51,15.64Z"/><path class="cls-8" d="M308.64,33.87c0-17-15.63-31.12-34.85-31.12s-34.85,14.11-34.85,31.12h-3.07c0-18.8,17-33.87,37.92-33.87s37.92,15.06,37.92,33.87Z"/><path class="cls-8" d="M304.36,33.87c0-15.22-13.71-27.3-30.56-27.3s-30.56,12.08-30.56,27.3h-3.07c0-16.12,15.09-30,33.63-30s33.63,13.92,33.63,30Z"/><path class="cls-8" d="M299.14,33.87c0-12.54-11.37-22.63-25.34-22.63s-25.34,10.1-25.34,22.63h-3.07c0-13.43,12.75-25.38,28.41-25.38s28.42,11.95,28.42,25.38Z"/><path class="cls-8" d="M293.76,33.87c0-9.85-9-17.83-20-17.83s-20,8-20,17.83h-3.07c0-11.64,10.34-20.58,23-20.58s23,8.94,23,20.58Z"/><path class="cls-8" d="M288.24,33.87c0-7.16-6.48-12.9-14.44-12.9s-14.44,5.74-14.44,12.9h-3.07c0-8.06,7.86-15.64,17.51-15.64s17.51,7.59,17.51,15.64Z"/><path class="cls-8" d="M72.77,65.2c0-17-15.63-31.12-34.85-31.12S3.07,48.19,3.07,65.2H0C0,46.4,17,31.34,37.92,31.34S75.84,46.4,75.84,65.2Z"/><path class="cls-8" d="M68.48,65.2c0-15.22-13.71-27.29-30.56-27.29S7.36,50,7.36,65.2H4.29c0-17,15.09-30,33.63-30s33.63,13,33.63,30Z"/><path class="cls-8" d="M63.26,65.2c0-12.54-11.37-22.63-25.34-22.63S12.58,52.67,12.58,65.2H9.51c0-14.33,12.75-25.38,28.41-25.38S66.33,50.88,66.33,65.2Z"/><path class="cls-8" d="M57.89,65.2c0-9.85-9-17.84-20-17.84s-20,8-20,17.84H14.88c0-11.64,10.34-20.58,23-20.58S61,53.56,61,65.2Z"/><path class="cls-8" d="M52.36,65.2c0-7.16-6.48-12.9-14.44-12.9S23.48,58,23.48,65.2H20.41c0-9,7.86-15.64,17.51-15.64S55.43,56.25,55.43,65.2Z"/><path class="cls-8" d="M124.81,65.2c0-17-15.63-31.12-34.85-31.12S55.11,48.19,55.11,65.2H52c0-18.8,17-33.87,37.92-33.87S127.88,46.4,127.88,65.2Z"/><path class="cls-8" d="M120.53,65.2C120.53,50,106.82,37.91,90,37.91S59.4,50,59.4,65.2H56.33c0-17,15.09-30,33.63-30s33.63,13,33.63,30Z"/><path class="cls-8" d="M115.31,65.2c0-12.54-11.37-22.63-25.34-22.63S64.62,52.67,64.62,65.2H61.55C61.55,50.88,74.3,39.83,90,39.83s28.41,11.05,28.41,25.38Z"/><path class="cls-8" d="M109.93,65.2c0-9.85-9-17.84-20-17.84s-20,8-20,17.84H66.92c0-11.64,10.34-20.58,23-20.58s23,8.94,23,20.58Z"/><path class="cls-8" d="M104.41,65.2c0-7.16-6.48-12.9-14.44-12.9S75.52,58,75.52,65.2H72.45c0-9,7.86-15.64,17.51-15.64s17.51,6.69,17.51,15.64Z"/><path class="cls-8" d="M176.86,65.2c0-17-15.63-31.12-34.85-31.12S107.16,48.19,107.16,65.2h-3.07c0-18.8,17-33.87,37.92-33.87S179.93,46.4,179.93,65.2Z"/><path class="cls-8" d="M172.57,65.2c0-15.22-13.71-27.29-30.56-27.29S111.44,50,111.44,65.2h-3.07c0-17,15.09-30,33.63-30s33.63,13,33.63,30Z"/><path class="cls-8" d="M167.35,65.2c0-12.54-11.37-22.63-25.34-22.63s-25.34,10.1-25.34,22.63h-3.07c0-14.33,12.75-25.38,28.41-25.38s28.41,11.05,28.41,25.38Z"/><path class="cls-8" d="M162,65.2c0-9.85-9-17.84-20-17.84s-20,8-20,17.84H119c0-11.64,10.34-20.58,23-20.58s23,8.94,23,20.58Z"/><path class="cls-8" d="M156.45,65.2C156.45,58,150,52.3,142,52.3S127.56,58,127.56,65.2h-3.07c0-9,7.86-15.64,17.51-15.64s17.51,6.69,17.51,15.64Z"/><path class="cls-8" d="M228.9,65.2c0-17-15.63-31.12-34.85-31.12S159.2,48.19,159.2,65.2h-3.07c0-18.8,17-33.87,37.92-33.87S232,46.4,232,65.2Z"/><path class="cls-8" d="M224.61,65.2C224.61,50,210.9,37.91,194,37.91S163.49,50,163.49,65.2h-3.07c0-17,15.09-30,33.63-30s33.63,13,33.63,30Z"/><path class="cls-8" d="M219.39,65.2c0-12.54-11.37-22.63-25.34-22.63s-25.34,10.1-25.34,22.63h-3.07c0-14.33,12.75-25.38,28.41-25.38s28.41,11.05,28.41,25.38Z"/><path class="cls-8" d="M214,65.2c0-9.85-9-17.84-20-17.84s-20,8-20,17.84H171c0-11.64,10.34-20.58,23-20.58s23,8.94,23,20.58Z"/><path class="cls-8" d="M208.49,65.2C208.49,58,202,52.3,194,52.3S179.61,58,179.61,65.2h-3.07c0-9,7.86-15.64,17.51-15.64s17.51,6.69,17.51,15.64Z"/><path class="cls-8" d="M280.94,65.2c0-17-15.63-31.12-34.85-31.12S211.24,48.19,211.24,65.2h-3.07c0-18.8,17-33.87,37.92-33.87S284,46.4,284,65.2Z"/><path class="cls-8" d="M276.66,65.2c0-15.22-13.71-27.29-30.56-27.29S215.53,50,215.53,65.2h-3.07c0-17,15.09-30,33.63-30s33.63,13,33.63,30Z"/><path class="cls-8" d="M271.44,65.2c0-12.54-11.37-22.63-25.34-22.63s-25.34,10.1-25.34,22.63h-3.07c0-14.33,12.75-25.38,28.41-25.38s28.41,11.05,28.41,25.38Z"/><path class="cls-8" d="M266.06,65.2c0-9.85-9-17.84-20-17.84s-20,8-20,17.84h-3.07c0-11.64,10.34-20.58,23-20.58s23,8.94,23,20.58Z"/><path class="cls-8" d="M260.54,65.2c0-7.16-6.48-12.9-14.44-12.9S231.65,58,231.65,65.2h-3.07c0-9,7.86-15.64,17.51-15.64s17.51,6.69,17.51,15.64Z"/><path class="cls-8" d="M333,65.2c0-17-15.63-31.12-34.85-31.12S263.29,48.19,263.29,65.2h-3.07c0-18.8,17-33.87,37.92-33.87S336.06,46.4,336.06,65.2Z"/><path class="cls-8" d="M328.7,65.2C328.7,50,315,37.91,298.14,37.91S267.57,50,267.57,65.2H264.5c0-17,15.09-30,33.63-30s33.63,13,33.63,30Z"/><path class="cls-8" d="M323.48,65.2c0-12.54-11.37-22.63-25.34-22.63s-25.34,10.1-25.34,22.63h-3.07c0-14.33,12.74-25.38,28.41-25.38s28.41,11.05,28.41,25.38Z"/><path class="cls-8" d="M318.11,65.2c0-9.85-9-17.84-20-17.84s-20,8-20,17.84H275.1c0-11.64,10.33-20.58,23-20.58s23,8.94,23,20.58Z"/><path class="cls-8" d="M312.58,65.2c0-7.16-6.48-12.9-14.44-12.9S283.69,58,283.69,65.2h-3.07c0-9,7.86-15.64,17.51-15.64s17.51,6.69,17.51,15.64Z"/></g></g><g class="cls-9"><path class="cls-8" d="M119.08,178.68a.84.84,0,0,1-.79-.84.86.86,0,0,1,.75-.93,18,18,0,0,0,3-.46.8.8,0,0,1,.94.68.89.89,0,0,1-.61,1.05,19.28,19.28,0,0,1-3.27.49Zm98-.06H217a20.23,20.23,0,0,1-3.25-.61.9.9,0,0,1-.58-1.07.8.8,0,0,1,1-.65,18.89,18.89,0,0,0,3,.57.87.87,0,0,1,.72,1A.84.84,0,0,1,217.09,178.62Zm4-.07a.83.83,0,0,1-.79-.77.87.87,0,0,1,.68-1,12.73,12.73,0,0,0,2.92-.78.78.78,0,0,1,1,.53.92.92,0,0,1-.48,1.14,14.19,14.19,0,0,1-3.25.87Zm-105.94-.12H115a13.71,13.71,0,0,1-2.88-.9l-.33-.15a.93.93,0,0,1-.42-1.16.77.77,0,0,1,1-.47l.3.13a12.29,12.29,0,0,0,2.58.81.88.88,0,0,1,.64,1A.83.83,0,0,1,115.12,178.43Zm10.91-1.5a.8.8,0,0,1-.74-.57.92.92,0,0,1,.45-1.15,26.33,26.33,0,0,0,2.81-1.43.75.75,0,0,1,1.07.38.94.94,0,0,1-.34,1.2,28,28,0,0,1-3,1.51A.72.72,0,0,1,126,176.93Zm84.16-.29a.72.72,0,0,1-.31-.07,28.57,28.57,0,0,1-2.71-1.46L207,175a.94.94,0,0,1-.33-1.2.76.76,0,0,1,1.07-.37l.23.14a27.7,27.7,0,0,0,2.57,1.38.93.93,0,0,1,.43,1.16A.8.8,0,0,1,210.19,176.63Zm-41.75-.78a.73.73,0,0,1-.41-.13c-.5-.34-1.06-.71-1.65-1.09a1,1,0,0,1-.3-1.21.75.75,0,0,1,1.08-.33l1.28.84.66-.44a.75.75,0,0,1,1.09.32,1,1,0,0,1-.29,1.21l-1,.7A.72.72,0,0,1,168.44,175.85Zm59.15-.31a.78.78,0,0,1-.66-.39,1,1,0,0,1,.19-1.21,8.17,8.17,0,0,0,1.76-2.44.75.75,0,0,1,1.07-.38.94.94,0,0,1,.34,1.2,9.82,9.82,0,0,1-2.17,3l-.08.07A.74.74,0,0,1,227.58,175.54ZM108.77,175a.75.75,0,0,1-.56-.25l-.16-.18a9.75,9.75,0,0,1-1.57-2.51q-.11-.26-.21-.53a.92.92,0,0,1,.44-1.15.77.77,0,0,1,1,.5c.05.14.11.28.17.42a8,8,0,0,0,1.29,2.05l.13.15a1,1,0,0,1,0,1.26A.76.76,0,0,1,108.77,175Zm23.7-1.55a.79.79,0,0,1-.72-.52.93.93,0,0,1,.39-1.18c1-.51,2-1,3-1.4a.77.77,0,0,1,1,.51.92.92,0,0,1-.46,1.14c-.95.4-1.92.86-2.88,1.35A.72.72,0,0,1,132.47,173.46Zm71.29-.32a.71.71,0,0,1-.32-.08c-1-.48-1.94-.92-2.9-1.3a.92.92,0,0,1-.48-1.14.77.77,0,0,1,1-.53c1,.4,2,.86,3,1.35a.93.93,0,0,1,.41,1.17A.79.79,0,0,1,203.76,173.13ZM173,173.06a.79.79,0,0,1-.72-.51.94.94,0,0,1,.38-1.18c1-.53,2-1,3-1.43a.77.77,0,0,1,1,.52.92.92,0,0,1-.46,1.14c-.94.4-1.91.86-2.86,1.37A.73.73,0,0,1,173,173.06Zm-9.78-.33a.72.72,0,0,1-.33-.08c-1-.49-1.93-.93-2.88-1.31a.92.92,0,0,1-.48-1.13.78.78,0,0,1,1-.54c1,.4,2,.86,3,1.37a.93.93,0,0,1,.39,1.17A.79.79,0,0,1,163.22,172.73Zm-24-2a.81.81,0,0,1-.77-.65.91.91,0,0,1,.55-1.1l.36-.11c.93-.28,1.87-.52,2.79-.72a.81.81,0,0,1,.93.7.89.89,0,0,1-.63,1c-.89.19-1.79.42-2.68.69l-.35.11A.68.68,0,0,1,139.17,170.69Zm57.84-.21a.7.7,0,0,1-.2,0c-1-.29-2-.54-3-.73a.88.88,0,0,1-.65-1A.81.81,0,0,1,194,168c1.05.2,2.12.46,3.17.76a.9.9,0,0,1,.57,1.08A.82.82,0,0,1,197,170.48Zm-17.3-.16a.82.82,0,0,1-.77-.67.9.9,0,0,1,.57-1.08,31.86,31.86,0,0,1,3.19-.74.81.81,0,0,1,.91.74.88.88,0,0,1-.66,1,29,29,0,0,0-3,.7Zm-23.25-.19-.18,0a29.62,29.62,0,0,0-3.05-.63.88.88,0,0,1-.68-1,.82.82,0,0,1,.89-.76,31.45,31.45,0,0,1,3.2.66.9.9,0,0,1,.59,1.07A.82.82,0,0,1,156.47,170.13Zm-10.27-.86a.84.84,0,0,1-.79-.82.86.86,0,0,1,.73-1c.92-.08,1.85-.12,2.75-.12h.5a.89.89,0,0,1,0,1.78h-.47c-.86,0-1.75,0-2.63.12Zm43.76-.05h0a29.48,29.48,0,0,0-3.1,0,.83.83,0,0,1-.82-.86.85.85,0,0,1,.77-.92,30.25,30.25,0,0,1,3.25,0,.86.86,0,0,1,.75.94A.84.84,0,0,1,190,169.22Zm40.41-.72a.84.84,0,0,1-.79-.84,11.06,11.06,0,0,0-.33-2.13l-.16-.53c-.06-.21-.11-.41-.16-.61a.9.9,0,0,1,.56-1.09.79.79,0,0,1,1,.62q.07.27.14.53l.17.56a13.19,13.19,0,0,1,.4,2.55.86.86,0,0,1-.75.94Zm-123.79-.78h-.11a.88.88,0,0,1-.68-1,13.83,13.83,0,0,1,.33-1.75c.05-.21.11-.41.17-.62.11-.37.21-.76.29-1.15a.8.8,0,0,1,1-.66.9.9,0,0,1,.6,1.06c-.09.44-.2.88-.33,1.31-.05.18-.11.36-.15.54a11.89,11.89,0,0,0-.29,1.5A.83.83,0,0,1,106.58,167.72Zm122.72-7.07h-.05a.86.86,0,0,1-.74-.95,15.68,15.68,0,0,1,.67-3.7.78.78,0,0,1,1-.55.92.92,0,0,1,.49,1.13,13.7,13.7,0,0,0-.59,3.24A.84.84,0,0,1,229.3,160.65Zm-121.7-.78a.83.83,0,0,1-.79-.79,13.63,13.63,0,0,0-.7-3.21.92.92,0,0,1,.45-1.15.77.77,0,0,1,1,.5,15.59,15.59,0,0,1,.8,3.67.87.87,0,0,1-.71,1Zm144.48-5.61h0a2.74,2.74,0,0,1-1.08-.2,1.62,1.62,0,0,1-.57-.4,2.25,2.25,0,0,1-.19-.27l-.35-.51a1,1,0,0,1,.12-1.25.74.74,0,0,1,1.12.14l.4.58.06.09a3.82,3.82,0,0,0,.5,0h0a3,3,0,0,0,1-.18.78.78,0,0,1,1,.59.91.91,0,0,1-.52,1.11A4.47,4.47,0,0,1,252.08,154.27Zm-167.37,0a4.53,4.53,0,0,1-1.67-.33.92.92,0,0,1-.49-1.13.78.78,0,0,1,1-.54,3.13,3.13,0,0,0,1.14.23,1.19,1.19,0,0,0,.51-.09l0-.06.24-.37a.74.74,0,0,1,1.11-.19,1,1,0,0,1,.17,1.24l-.21.33a2.74,2.74,0,0,1-.19.28A1.61,1.61,0,0,1,86,154,2.52,2.52,0,0,1,84.72,154.27Zm147.11-1a.74.74,0,0,1-.49-.19,1,1,0,0,1-.13-1.25,13.36,13.36,0,0,1,2.43-2.63.74.74,0,0,1,1.11.19,1,1,0,0,1-.17,1.24,11.85,11.85,0,0,0-2.12,2.3A.77.77,0,0,1,231.82,153.31Zm-127-.66a.76.76,0,0,1-.61-.31,11.62,11.62,0,0,0-2.2-2.2,1,1,0,0,1-.21-1.23.75.75,0,0,1,1.1-.23,13.27,13.27,0,0,1,2.52,2.52,1,1,0,0,1-.09,1.25A.74.74,0,0,1,104.82,152.65Zm151.31-1.46a.73.73,0,0,1-.24,0,.91.91,0,0,1-.52-1.11,3.39,3.39,0,0,0,.12-.91,5.61,5.61,0,0,0-.09-.95c-.08-.43-.13-.87-.17-1.3a.87.87,0,0,1,.71-1,.83.83,0,0,1,.87.79c0,.38.09.76.15,1.14a7.53,7.53,0,0,1,.12,1.29,5.33,5.33,0,0,1-.19,1.44A.81.81,0,0,1,256.12,151.19ZM80.6,151a.82.82,0,0,1-.77-.67,5.54,5.54,0,0,1-.13-1.2,7.56,7.56,0,0,1,.12-1.27c.08-.44.13-.89.17-1.34a.81.81,0,0,1,.86-.81.87.87,0,0,1,.72,1c0,.51-.1,1-.19,1.53a5.61,5.61,0,0,0-.09.93,3.58,3.58,0,0,0,.08.77.9.9,0,0,1-.58,1.08Zm8.39-.67a.77.77,0,0,1-.66-.38,1,1,0,0,1,.21-1.23,12.19,12.19,0,0,1,3-1.7.78.78,0,0,1,1,.55.91.91,0,0,1-.49,1.13,10.69,10.69,0,0,0-2.64,1.49A.74.74,0,0,1,89,150.31Zm158.56,0a.74.74,0,0,1-.42-.14,10.63,10.63,0,0,0-2.69-1.37.91.91,0,0,1-.53-1.11.79.79,0,0,1,1-.59,12.16,12.16,0,0,1,3.08,1.57,1,1,0,0,1,.25,1.22A.78.78,0,0,1,247.55,150.28Zm-9.93-1.44a.81.81,0,0,1-.76-.62.91.91,0,0,1,.52-1.11,11.51,11.51,0,0,1,3.33-.64.82.82,0,0,1,.82.85.85.85,0,0,1-.76.92,10.06,10.06,0,0,0-2.92.56A.68.68,0,0,1,237.62,148.84Zm-138.76-.4a.71.71,0,0,1-.21,0,9.26,9.26,0,0,0-2.91-.43l0-1.78h0a11.46,11.46,0,0,1,3.34.5.9.9,0,0,1,.56,1.09A.81.81,0,0,1,98.87,148.44Zm157.4-5.16-.19,0a.9.9,0,0,1-.59-1.07,15.32,15.32,0,0,1,1.21-3.52.75.75,0,0,1,1.08-.35.94.94,0,0,1,.32,1.2,13.43,13.43,0,0,0-1.06,3.09A.82.82,0,0,1,256.27,143.27Zm-175.8-.21a.82.82,0,0,1-.77-.67,13.26,13.26,0,0,0-1.1-3.06,1,1,0,0,1,.3-1.21.75.75,0,0,1,1.08.33,15.22,15.22,0,0,1,1.26,3.5.9.9,0,0,1-.57,1.08A.68.68,0,0,1,80.47,143.07Zm179.38-6.57a.76.76,0,0,1-.59-.29,1,1,0,0,1,.05-1.25,12.68,12.68,0,0,1,2.78-2.15.76.76,0,0,1,1.07.39.94.94,0,0,1-.35,1.19,11.07,11.07,0,0,0-2.43,1.88A.75.75,0,0,1,259.85,136.5Zm-183.06-.14a.74.74,0,0,1-.53-.22,11,11,0,0,0-2.46-1.83.94.94,0,0,1-.36-1.19.76.76,0,0,1,1.06-.41,12.61,12.61,0,0,1,2.81,2.1,1,1,0,0,1,.07,1.25A.76.76,0,0,1,76.79,136.35Zm189.42-3.27a.81.81,0,0,1-.76-.64.91.91,0,0,1,.54-1.1,16.2,16.2,0,0,0,2.83-1.23.76.76,0,0,1,1.07.4.94.94,0,0,1-.36,1.19,17.6,17.6,0,0,1-3.09,1.35A.73.73,0,0,1,266.22,133.08ZM70.39,133a.72.72,0,0,1-.23,0,16.15,16.15,0,0,1-1.65-.65c-.48-.22-1-.46-1.43-.73a.94.94,0,0,1-.35-1.19A.76.76,0,0,1,67.8,130c.43.24.87.47,1.31.67a15.25,15.25,0,0,0,1.5.59.91.91,0,0,1,.53,1.1A.81.81,0,0,1,70.39,133Zm202.15-3.58a.77.77,0,0,1-.63-.35,1,1,0,0,1,.15-1.24,24.88,24.88,0,0,0,2.31-2.26.74.74,0,0,1,1.12,0,1,1,0,0,1,0,1.26,26.34,26.34,0,0,1-2.47,2.41A.74.74,0,0,1,272.54,129.44ZM64.1,129.31a.75.75,0,0,1-.49-.19q-.63-.55-1.25-1.16t-1.2-1.27a1,1,0,0,1,0-1.26.74.74,0,0,1,1.12,0q.55.62,1.13,1.19c.38.38.77.75,1.17,1.09a1,1,0,0,1,.14,1.25A.77.77,0,0,1,64.1,129.31Zm213.43-5.56a.73.73,0,0,1-.48-.18,1,1,0,0,1-.16-1.24c.61-.9,1.2-1.87,1.74-2.86a.75.75,0,0,1,1.09-.3,1,1,0,0,1,.27,1.22c-.57,1-1.18,2.06-1.83,3A.76.76,0,0,1,277.53,123.75Zm-218.39-.16a.77.77,0,0,1-.64-.36c-.64-1-1.25-2-1.81-3A1,1,0,0,1,57,119a.75.75,0,0,1,1.09.31c.54,1,1.12,2,1.72,2.88a1,1,0,0,1-.16,1.24A.74.74,0,0,1,59.14,123.59Zm222-6.69a.74.74,0,0,1-.33-.08.93.93,0,0,1-.39-1.18c.43-1,.82-2.11,1.18-3.22a.78.78,0,0,1,1-.53.92.92,0,0,1,.47,1.14c-.38,1.15-.79,2.27-1.24,3.35A.8.8,0,0,1,281.18,116.9Zm-225.65-.19a.79.79,0,0,1-.72-.52c-.44-1.08-.85-2.21-1.22-3.36a.92.92,0,0,1,.48-1.13.77.77,0,0,1,1,.53c.36,1.1.75,2.19,1.17,3.22a.93.93,0,0,1-.39,1.17A.72.72,0,0,1,55.53,116.71Zm227.74-6.11a.72.72,0,0,1-.22,0,.91.91,0,0,1-.54-1.1c.29-1.1.54-2.24.75-3.38a.8.8,0,0,1,.94-.69.89.89,0,0,1,.61,1.05c-.22,1.19-.48,2.37-.78,3.51A.82.82,0,0,1,283.27,110.6Zm-230.1-1.43a.81.81,0,0,1-.77-.67c-.26-1.15-.49-2.34-.68-3.54a.88.88,0,0,1,.64-1,.8.8,0,0,1,.92.72c.18,1.15.4,2.3.66,3.41a.9.9,0,0,1-.57,1.08A.69.69,0,0,1,53.17,109.18Zm231.49-6.4h-.09a.87.87,0,0,1-.7-1c.12-1.15.2-2.32.25-3.48a.83.83,0,0,1,.83-.85.86.86,0,0,1,.76.93c0,1.2-.13,2.41-.26,3.6A.83.83,0,0,1,284.66,102.78ZM52,101.31a.84.84,0,0,1-.79-.81c-.09-1.19-.15-2.4-.17-3.61a.8.8,0,1,1,1.59,0c0,1.17.07,2.34.16,3.48a.87.87,0,0,1-.72,1ZM284.93,94.8a.84.84,0,0,1-.79-.85c0-1.17-.12-2.34-.23-3.48a.87.87,0,0,1,.7-1,.82.82,0,0,1,.87.79c.12,1.18.2,2.39.24,3.6a.85.85,0,0,1-.76.92Zm-233-1.47h-.05a.86.86,0,0,1-.74-.95c.07-1.21.18-2.42.33-3.6a.81.81,0,0,1,.9-.76A.88.88,0,0,1,53,89c-.14,1.13-.25,2.3-.32,3.47A.84.84,0,0,1,51.92,93.33Zm232.16-6.45a.82.82,0,0,1-.78-.71c-.2-1.14-.45-2.28-.73-3.39a.9.9,0,0,1,.55-1.09.79.79,0,0,1,1,.62c.29,1.15.54,2.34.76,3.52a.89.89,0,0,1-.62,1ZM53,85.43l-.18,0a.9.9,0,0,1-.59-1.07c.25-1.18.53-2.35.86-3.49a.78.78,0,0,1,1-.58.91.91,0,0,1,.52,1.11c-.31,1.1-.59,2.23-.82,3.36A.82.82,0,0,1,53,85.43Zm229.12-6.22a.8.8,0,0,1-.74-.57c-.38-1.09-.8-2.16-1.25-3.18a.94.94,0,0,1,.37-1.19.76.76,0,0,1,1.06.41c.47,1.06.9,2.18,1.3,3.32a.92.92,0,0,1-.45,1.15A.7.7,0,0,1,282.09,79.22ZM55.19,77.85a.72.72,0,0,1-.31-.07.93.93,0,0,1-.42-1.17c.43-1.13.91-2.23,1.41-3.27A.75.75,0,0,1,56.94,73a.94.94,0,0,1,.32,1.2c-.48,1-.93,2.05-1.35,3.13A.8.8,0,0,1,55.19,77.85ZM278.87,72.1a.78.78,0,0,1-.67-.41c-.57-1-1.18-1.93-1.81-2.81a1,1,0,0,1,.12-1.25.74.74,0,0,1,1.12.14c.66.93,1.3,1.92,1.9,3A1,1,0,0,1,279.3,72,.73.73,0,0,1,278.87,72.1ZM58.65,70.87a.75.75,0,0,1-.46-.16A1,1,0,0,1,58,69.47a34.07,34.07,0,0,1,2-2.86.74.74,0,0,1,1.12-.08,1,1,0,0,1,.07,1.25A32.63,32.63,0,0,0,59.3,70.5.78.78,0,0,1,58.65,70.87ZM274.32,66a.76.76,0,0,1-.55-.24l-.41-.42a23.16,23.16,0,0,0-2-1.75,1,1,0,0,1-.19-1.24.74.74,0,0,1,1.11-.21A24.41,24.41,0,0,1,274.43,64l.44.45a1,1,0,0,1,0,1.25A.76.76,0,0,1,274.32,66ZM63.45,65a.76.76,0,0,1-.61-.32,1,1,0,0,1,.1-1.25,23.34,23.34,0,0,1,2.67-2.15.75.75,0,0,1,1.09.29,1,1,0,0,1-.26,1.22,21.44,21.44,0,0,0-2.48,2A.74.74,0,0,1,63.45,65Zm205-3.46a.72.72,0,0,1-.32-.08l-.42-.2a15.3,15.3,0,0,0-2.45-.87.9.9,0,0,1-.59-1.07.8.8,0,0,1,1-.66,16.7,16.7,0,0,1,2.69,1l.47.22a.93.93,0,0,1,.4,1.17A.79.79,0,0,1,268.41,61.52ZM69.6,61a.8.8,0,0,1-.75-.59.92.92,0,0,1,.48-1.13,16.87,16.87,0,0,1,2-.66,10,10,0,0,0,1-.32.78.78,0,0,1,1,.56A.91.91,0,0,1,72.9,60a11.81,11.81,0,0,1-1.19.37,15.36,15.36,0,0,0-1.85.6A.71.71,0,0,1,69.6,61Zm192.13-2.2a.72.72,0,0,1-.41-.13,13.07,13.07,0,0,1-2.64-2.36,1,1,0,0,1,0-1.26.74.74,0,0,1,1.12,0,11.34,11.34,0,0,0,2.31,2.07.94.94,0,0,1,.27,1.22A.78.78,0,0,1,261.72,58.77ZM76.15,57.94a.77.77,0,0,1-.63-.35,1,1,0,0,1,.15-1.25A11.84,11.84,0,0,0,77.76,54a.74.74,0,0,1,1.11-.17A1,1,0,0,1,79,55.08a13.59,13.59,0,0,1-2.39,2.67A.74.74,0,0,1,76.15,57.94ZM257,52.9a.8.8,0,0,1-.72-.52,15.5,15.5,0,0,1-1-3.61.88.88,0,0,1,.66-1,.81.81,0,0,1,.91.73,13.45,13.45,0,0,0,.86,3.16.93.93,0,0,1-.39,1.18A.72.72,0,0,1,257,52.9ZM80.23,51.52a.7.7,0,0,1-.25,0,.91.91,0,0,1-.51-1.12A13.68,13.68,0,0,0,80,47.11a.8.8,0,1,1,1.59.09A15.62,15.62,0,0,1,81,50.91.81.81,0,0,1,80.23,51.52ZM256.12,45.1H256a.88.88,0,0,1-.65-1l.05-.31a5.68,5.68,0,0,0,.09-.94,3.11,3.11,0,0,0-.23-1.23,2.69,2.69,0,0,0-.15-.32,1,1,0,0,1,.24-1.23.75.75,0,0,1,1.1.27,5.51,5.51,0,0,1,.25.51,5.1,5.1,0,0,1,.38,2A7.66,7.66,0,0,1,257,44.1l0,.27A.82.82,0,0,1,256.12,45.1Zm-161.74,0h-.07a11.54,11.54,0,0,1-3.3-.8.92.92,0,0,1-.48-1.13.77.77,0,0,1,1-.53,10.21,10.21,0,0,0,2.89.7.86.86,0,0,1,.73,1A.84.84,0,0,1,94.39,45.07Zm145.29-.32h-.13a11.77,11.77,0,0,1-3.24-1.09.93.93,0,0,1-.4-1.18A.76.76,0,0,1,237,42a10.26,10.26,0,0,0,2.83,1,.88.88,0,0,1,.66,1A.83.83,0,0,1,239.68,44.75Zm4,0a.83.83,0,0,1-.78-.73.88.88,0,0,1,.65-1,10.38,10.38,0,0,0,2.82-1,.76.76,0,0,1,1.06.43.93.93,0,0,1-.38,1.18,11.81,11.81,0,0,1-3.22,1.14Zm-145.31,0a.82.82,0,0,1-.77-.67.9.9,0,0,1,.57-1.08,10.47,10.47,0,0,0,2.16-.9l.58-.34A.75.75,0,0,1,102,42a1,1,0,0,1-.3,1.21l-.66.39a12.07,12.07,0,0,1-2.47,1A.7.7,0,0,1,98.33,44.7ZM80.5,43.63h0a.85.85,0,0,1-.78-.9,5.22,5.22,0,0,1,.23-1.5A4.65,4.65,0,0,1,80.54,40a5.45,5.45,0,0,1,.87-1,.74.74,0,0,1,1.12.15,1,1,0,0,1-.13,1.25,3.69,3.69,0,0,0-.59.67,2.88,2.88,0,0,0-.37.76,3.32,3.32,0,0,0-.14.94A.84.84,0,0,1,80.5,43.63Zm7.34-1.48a.74.74,0,0,1-.5-.2,13.72,13.72,0,0,1-2.09-2.4l0,0a.93.93,0,0,1-.31-1.19A.76.76,0,0,1,86,38a1.56,1.56,0,0,1,.36.29l0,0,.12.17a12,12,0,0,0,1.83,2.1,1,1,0,0,1,.12,1.25A.77.77,0,0,1,87.84,42.15Zm145.52-.89a.75.75,0,0,1-.55-.24,14,14,0,0,1-2.12-2.94,1,1,0,0,1,.27-1.22.75.75,0,0,1,1.09.3,12.27,12.27,0,0,0,1.85,2.57,1,1,0,0,1,0,1.25A.76.76,0,0,1,233.36,41.26Zm16.55-.13a.75.75,0,0,1-.57-.27,1,1,0,0,1,0-1.26,12.51,12.51,0,0,0,.94-1.16h0a.84.84,0,0,1,.13-.18,1.67,1.67,0,0,1,.35-.3,2.55,2.55,0,0,1,1.3-.32l.49,0a.87.87,0,0,1,.7,1,.82.82,0,0,1-.87.79,1.84,1.84,0,0,0-.83.07l0,0a14.13,14.13,0,0,1-1.08,1.33A.75.75,0,0,1,249.91,41.13Zm-145.58-.57a.75.75,0,0,1-.52-.22,1,1,0,0,1-.08-1.25,12.64,12.64,0,0,0,1.63-2.75.76.76,0,0,1,1.06-.41.93.93,0,0,1,.37,1.19,14.48,14.48,0,0,1-1.87,3.15A.76.76,0,0,1,104.33,40.57ZM229.91,34.4a.82.82,0,0,1-.78-.7,15.83,15.83,0,0,1-.28-3c0-.26,0-.53,0-.79a.84.84,0,0,1,.84-.84.86.86,0,0,1,.75.94c0,.23,0,.46,0,.69a13.8,13.8,0,0,0,.25,2.6.89.89,0,0,1-.61,1.05Zm-122.72-1h-.1a.87.87,0,0,1-.69-1,13.81,13.81,0,0,0,0-3.3.88.88,0,0,1,.67-1,.82.82,0,0,1,.9.75,15.72,15.72,0,0,1,.05,3.78A.83.83,0,0,1,107.19,33.38ZM230.33,26.5h-.09a.87.87,0,0,1-.71-1c0-.3,0-.6,0-.89a8.23,8.23,0,0,0-.31-2.25.91.91,0,0,1,.52-1.12.78.78,0,0,1,1,.58,10.21,10.21,0,0,1,.38,2.79c0,.35,0,.71-.05,1.08A.83.83,0,0,1,230.33,26.5Zm-123.84-1h0a.85.85,0,0,1-.79-.89,10,10,0,0,1,.76-3.81.76.76,0,0,1,1.06-.43.94.94,0,0,1,.38,1.18,8,8,0,0,0-.61,3.07A.84.84,0,0,1,106.49,25.47Zm80.71-.1h0a30.54,30.54,0,0,1-3.25-.26.87.87,0,0,1-.7-1,.82.82,0,0,1,.88-.78,28.71,28.71,0,0,0,3.09.24.85.85,0,0,1,.78.91A.84.84,0,0,1,187.2,25.37Zm-36.61,0a.84.84,0,0,1-.79-.84.86.86,0,0,1,.75-.93,28.92,28.92,0,0,0,3.09-.34.81.81,0,0,1,.9.75.88.88,0,0,1-.67,1,30.22,30.22,0,0,1-3.24.36Zm-4,0h-.05c-1.06-.08-2.15-.22-3.23-.41a.88.88,0,0,1-.66-1,.81.81,0,0,1,.91-.74c1,.18,2.07.31,3.09.39a.86.86,0,0,1,.74.95A.84.84,0,0,1,146.63,25.3Zm44.55-.09a.84.84,0,0,1-.79-.81.87.87,0,0,1,.72-1c1-.11,2.06-.27,3.08-.47a.8.8,0,0,1,.93.71.89.89,0,0,1-.64,1c-1.07.22-2.15.39-3.22.5Zm-11-.88-.19,0-.28-.08c-1-.27-1.91-.59-2.85-.94a.92.92,0,0,1-.49-1.13.78.78,0,0,1,1-.55c.89.34,1.81.64,2.72.9l.26.07a.9.9,0,0,1,.59,1.07A.82.82,0,0,1,180.13,24.33Zm-22.48-.26a.81.81,0,0,1-.77-.65.9.9,0,0,1,.56-1.09c.93-.28,1.89-.62,2.83-1l.13-.05a.77.77,0,0,1,1,.52.92.92,0,0,1-.47,1.14l-.13.06c-1,.4-2,.76-3,1.05A.71.71,0,0,1,157.65,24.08ZM139.58,24l-.17,0-.08,0c-1-.3-2-.66-3-1.05a.92.92,0,0,1-.49-1.13.77.77,0,0,1,1-.54c1,.38,2,.72,2.94,1a.92.92,0,0,1,.59,1.08A.81.81,0,0,1,139.58,24Zm58.61-.28a.81.81,0,0,1-.76-.64A.91.91,0,0,1,198,22c1-.32,2-.69,3-1.1a.77.77,0,0,1,1,.52.92.92,0,0,1-.47,1.14c-1,.43-2.06.81-3.07,1.14A.75.75,0,0,1,198.19,23.7Zm-24.8-2a.72.72,0,0,1-.33-.08c-.95-.49-1.92-1-2.88-1.64a.94.94,0,0,1-.31-1.21.76.76,0,0,1,1.08-.35c.93.58,1.87,1.11,2.78,1.58a.93.93,0,0,1,.39,1.18A.8.8,0,0,1,173.39,21.68Zm-40.53-.4a.73.73,0,0,1-.33-.08c-1-.48-1.94-1-2.9-1.58a.94.94,0,0,1-.33-1.2.76.76,0,0,1,1.07-.37c.93.55,1.88,1.06,2.82,1.53a.93.93,0,0,1,.4,1.17A.8.8,0,0,1,132.85,21.28Zm31.47,0a.79.79,0,0,1-.71-.5.94.94,0,0,1,.36-1.19c.91-.5,1.83-1.05,2.76-1.65a.75.75,0,0,1,1.09.33,1,1,0,0,1-.29,1.21c-1,.62-1.91,1.19-2.85,1.7A.72.72,0,0,1,164.32,21.23Zm40.54-.39a.8.8,0,0,1-.72-.51.94.94,0,0,1,.38-1.18c.88-.46,1.77-1,2.65-1.5l.15-.09a.75.75,0,0,1,1.08.36.94.94,0,0,1-.32,1.2l-.15.09c-.9.54-1.82,1.06-2.72,1.54A.71.71,0,0,1,204.86,20.85Zm23-1.53a.75.75,0,0,1-.54-.24,9.63,9.63,0,0,0-2.43-1.82.93.93,0,0,1-.38-1.18.76.76,0,0,1,1.06-.42,11.15,11.15,0,0,1,2.83,2.12,1,1,0,0,1,0,1.25A.76.76,0,0,1,227.89,19.31Zm-118.2-.66a.77.77,0,0,1-.63-.35,1,1,0,0,1,.15-1.24,11.79,11.79,0,0,1,3-1.83.77.77,0,0,1,1,.51.92.92,0,0,1-.45,1.15,10.3,10.3,0,0,0-2.58,1.59A.74.74,0,0,1,109.69,18.65Zm16.73-.86a.71.71,0,0,1-.3-.07,22.9,22.9,0,0,0-2.92-1.1.9.9,0,0,1-.56-1.09.79.79,0,0,1,1-.63,24.49,24.49,0,0,1,3.11,1.17.93.93,0,0,1,.44,1.16A.8.8,0,0,1,126.42,17.79Zm84.9-.37a.81.81,0,0,1-.75-.58A.92.92,0,0,1,211,15.7a23.52,23.52,0,0,1,3.15-1,.8.8,0,0,1,.95.67.9.9,0,0,1-.6,1.06,21.82,21.82,0,0,0-2.95,1A.74.74,0,0,1,211.32,17.42Zm10.15-1.36h-.13a14.73,14.73,0,0,0-3-.21.89.89,0,0,1,0-1.78,16.31,16.31,0,0,1,3.32.23.88.88,0,0,1,.66,1A.83.83,0,0,1,221.47,16.06Zm-105.15-.13a.83.83,0,0,1-.79-.8.87.87,0,0,1,.71-1,17.07,17.07,0,0,1,3.32,0,.86.86,0,0,1,.73,1,.84.84,0,0,1-.85.82,15.4,15.4,0,0,0-3,0Z"/></g><path class="cls-10" d="M119.06,177.2a.84.84,0,0,1-.79-.84.85.85,0,0,1,.75-.93,18,18,0,0,0,3-.46.8.8,0,0,1,.94.68.89.89,0,0,1-.61,1.05,19.48,19.48,0,0,1-3.27.49Zm98-.06H217a20.24,20.24,0,0,1-3.25-.62.9.9,0,0,1-.58-1.07.8.8,0,0,1,1-.65,18.66,18.66,0,0,0,3,.57.87.87,0,0,1,.72,1A.83.83,0,0,1,217.08,177.14Zm4-.07a.83.83,0,0,1-.79-.77.87.87,0,0,1,.68-1,12.63,12.63,0,0,0,2.92-.78.78.78,0,0,1,1,.53.92.92,0,0,1-.47,1.14,14.09,14.09,0,0,1-3.25.87Zm-105.94-.12H115a13.71,13.71,0,0,1-2.88-.9l-.33-.15a.93.93,0,0,1-.42-1.16.77.77,0,0,1,1-.47l.3.14a12.29,12.29,0,0,0,2.58.8.88.88,0,0,1,.65,1A.83.83,0,0,1,115.11,176.95Zm10.91-1.5a.8.8,0,0,1-.74-.57.92.92,0,0,1,.45-1.15,26.33,26.33,0,0,0,2.81-1.43.76.76,0,0,1,1.07.38.94.94,0,0,1-.34,1.2,28.06,28.06,0,0,1-3,1.51A.72.72,0,0,1,126,175.45Zm84.16-.29a.72.72,0,0,1-.31-.07,28.44,28.44,0,0,1-2.71-1.45l-.21-.13a.94.94,0,0,1-.33-1.2.76.76,0,0,1,1.07-.37l.23.14a27.59,27.59,0,0,0,2.57,1.38.93.93,0,0,1,.43,1.16A.8.8,0,0,1,210.17,175.15Zm-41.75-.78a.74.74,0,0,1-.41-.13c-.5-.34-1.06-.71-1.65-1.09a.94.94,0,0,1-.3-1.21.75.75,0,0,1,1.08-.34l1.28.84.66-.44a.75.75,0,0,1,1.09.32,1,1,0,0,1-.29,1.21l-1,.7A.74.74,0,0,1,168.42,174.37Zm59.14-.31a.77.77,0,0,1-.66-.39,1,1,0,0,1,.19-1.2,8.2,8.2,0,0,0,1.76-2.44.76.76,0,0,1,1.07-.38.94.94,0,0,1,.34,1.2,9.82,9.82,0,0,1-2.17,3l-.08.07A.73.73,0,0,1,227.57,174.06Zm-118.81-.53a.75.75,0,0,1-.56-.26l-.16-.18a9.73,9.73,0,0,1-1.57-2.51c-.07-.17-.14-.35-.21-.53a.93.93,0,0,1,.44-1.15.77.77,0,0,1,1,.5c.05.14.11.28.17.42a7.92,7.92,0,0,0,1.29,2.05l.13.15a1,1,0,0,1,0,1.26A.75.75,0,0,1,108.76,173.53Zm23.7-1.55a.79.79,0,0,1-.72-.52.93.93,0,0,1,.39-1.18c1-.51,2-1,3-1.4a.77.77,0,0,1,1,.51.92.92,0,0,1-.46,1.15c-.95.4-1.92.86-2.88,1.35A.72.72,0,0,1,132.46,172Zm71.29-.32a.73.73,0,0,1-.32-.08c-1-.48-1.94-.92-2.9-1.31a.92.92,0,0,1-.48-1.14.77.77,0,0,1,1-.53c1,.4,2,.86,3,1.35a.93.93,0,0,1,.41,1.17A.8.8,0,0,1,203.74,171.65ZM173,171.58a.79.79,0,0,1-.72-.51.93.93,0,0,1,.38-1.18c1-.53,2-1,3-1.43a.77.77,0,0,1,1,.51.92.92,0,0,1-.46,1.14c-.94.4-1.91.86-2.86,1.37A.74.74,0,0,1,173,171.58Zm-9.79-.33a.72.72,0,0,1-.33-.08c-1-.49-1.93-.93-2.88-1.31a.92.92,0,0,1-.48-1.13.78.78,0,0,1,1-.54c1,.4,2,.86,3,1.37a.93.93,0,0,1,.39,1.18A.79.79,0,0,1,163.21,171.25Zm-24-2a.81.81,0,0,1-.77-.65.9.9,0,0,1,.55-1.09l.36-.11c.93-.28,1.87-.52,2.79-.72a.81.81,0,0,1,.93.7.89.89,0,0,1-.63,1c-.89.19-1.79.42-2.68.69l-.35.11A.68.68,0,0,1,139.16,169.21ZM197,169l-.2,0c-1-.29-2-.54-3-.73a.88.88,0,0,1-.65-1,.81.81,0,0,1,.92-.73c1.05.2,2.12.46,3.17.76a.9.9,0,0,1,.57,1.08A.82.82,0,0,1,197,169Zm-17.3-.16a.82.82,0,0,1-.77-.67.9.9,0,0,1,.57-1.08,30.79,30.79,0,0,1,3.19-.74.81.81,0,0,1,.91.74.88.88,0,0,1-.66,1,30.05,30.05,0,0,0-3,.7A.7.7,0,0,1,179.7,168.84Zm-23.25-.19-.18,0a29.61,29.61,0,0,0-3.05-.62.88.88,0,0,1-.68-1,.82.82,0,0,1,.89-.76,30.89,30.89,0,0,1,3.2.66.89.89,0,0,1,.59,1.06A.82.82,0,0,1,156.46,168.65Zm-10.27-.85a.84.84,0,0,1-.79-.82.86.86,0,0,1,.73-1c.92-.08,1.85-.12,2.75-.12h.5a.89.89,0,0,1,0,1.78h-.47c-.86,0-1.75,0-2.63.12Zm43.76-.05h0a30.58,30.58,0,0,0-3.1,0,.83.83,0,0,1-.82-.86.85.85,0,0,1,.77-.92,30.79,30.79,0,0,1,3.25,0,.86.86,0,0,1,.75.94A.84.84,0,0,1,189.95,167.74Zm40.4-.72a.84.84,0,0,1-.79-.84,11,11,0,0,0-.33-2.13l-.16-.53c-.06-.21-.11-.41-.16-.61a.91.91,0,0,1,.56-1.09.79.79,0,0,1,1,.62c0,.18.09.36.14.53l.17.56a13,13,0,0,1,.4,2.55.86.86,0,0,1-.75.94Zm-123.79-.78h-.11a.88.88,0,0,1-.68-1,13.82,13.82,0,0,1,.33-1.75c.06-.21.11-.41.18-.62.11-.38.21-.76.29-1.15a.8.8,0,0,1,1-.66.9.9,0,0,1,.6,1.07c-.09.44-.2.88-.33,1.31-.05.18-.11.36-.15.54a11.89,11.89,0,0,0-.29,1.5A.83.83,0,0,1,106.56,166.24Zm122.72-7.07h-.05a.86.86,0,0,1-.74-.95,15.66,15.66,0,0,1,.67-3.7.78.78,0,0,1,1-.55.92.92,0,0,1,.49,1.13,13.71,13.71,0,0,0-.59,3.24A.84.84,0,0,1,229.28,159.17Zm-121.7-.78a.83.83,0,0,1-.79-.79,13.65,13.65,0,0,0-.7-3.21.92.92,0,0,1,.45-1.15.77.77,0,0,1,1,.5,15.57,15.57,0,0,1,.8,3.67.87.87,0,0,1-.71,1Zm144.48-5.6h0a2.77,2.77,0,0,1-1.08-.2,1.66,1.66,0,0,1-.57-.4,2.08,2.08,0,0,1-.19-.27l-.35-.51a1,1,0,0,1,.12-1.25.74.74,0,0,1,1.12.14q.2.28.4.59l.06.08a3.7,3.7,0,0,0,.5,0h0a3,3,0,0,0,1-.18.78.78,0,0,1,1,.59.91.91,0,0,1-.52,1.11A4.46,4.46,0,0,1,252.07,152.79Zm-167.37,0a4.57,4.57,0,0,1-1.67-.33.92.92,0,0,1-.49-1.13.78.78,0,0,1,1-.54,3.13,3.13,0,0,0,1.14.23,1.22,1.22,0,0,0,.51-.09l0-.06.24-.37a.74.74,0,0,1,1.11-.19,1,1,0,0,1,.17,1.24l-.21.33a2.69,2.69,0,0,1-.19.28,1.59,1.59,0,0,1-.39.33A2.52,2.52,0,0,1,84.7,152.79Zm147.11-1a.74.74,0,0,1-.49-.19,1,1,0,0,1-.13-1.25,13.43,13.43,0,0,1,2.43-2.63.74.74,0,0,1,1.11.19,1,1,0,0,1-.17,1.24,11.74,11.74,0,0,0-2.12,2.3A.76.76,0,0,1,231.81,151.83Zm-127-.66a.77.77,0,0,1-.61-.31,11.57,11.57,0,0,0-2.2-2.21,1,1,0,0,1-.21-1.23.74.74,0,0,1,1.1-.24,13.32,13.32,0,0,1,2.52,2.52,1,1,0,0,1-.09,1.25A.74.74,0,0,1,104.8,151.17Zm151.31-1.46a.72.72,0,0,1-.24,0,.91.91,0,0,1-.52-1.11,3.36,3.36,0,0,0,.12-.91,5.65,5.65,0,0,0-.09-.95c-.08-.43-.13-.87-.17-1.3a.87.87,0,0,1,.71-1,.84.84,0,0,1,.87.79q.05.57.15,1.14a7.54,7.54,0,0,1,.12,1.29,5.29,5.29,0,0,1-.19,1.44A.81.81,0,0,1,256.11,149.71Zm-175.52-.21a.82.82,0,0,1-.77-.67,5.56,5.56,0,0,1-.13-1.2,7.6,7.6,0,0,1,.12-1.27c.08-.44.13-.89.17-1.34a.81.81,0,0,1,.86-.81.87.87,0,0,1,.72,1c0,.51-.1,1-.19,1.53a5.58,5.58,0,0,0-.09.93,3.6,3.6,0,0,0,.08.77.9.9,0,0,1-.58,1.07Zm8.39-.67a.78.78,0,0,1-.66-.38,1,1,0,0,1,.21-1.23,12.24,12.24,0,0,1,3-1.7.78.78,0,0,1,1,.55.91.91,0,0,1-.49,1.13,10.76,10.76,0,0,0-2.64,1.49A.74.74,0,0,1,89,148.83Zm158.56,0a.73.73,0,0,1-.42-.13,10.54,10.54,0,0,0-2.69-1.37.91.91,0,0,1-.53-1.11.78.78,0,0,1,1-.59,12.16,12.16,0,0,1,3.08,1.57,1,1,0,0,1,.25,1.22A.78.78,0,0,1,247.54,148.8Zm-9.93-1.44a.81.81,0,0,1-.76-.62.91.91,0,0,1,.52-1.11,11.51,11.51,0,0,1,3.33-.64.83.83,0,0,1,.82.85.85.85,0,0,1-.76.92,10.06,10.06,0,0,0-2.92.56A.73.73,0,0,1,237.61,147.36ZM98.85,147a.71.71,0,0,1-.21,0,9.2,9.2,0,0,0-2.9-.43l0-1.78h0a11.45,11.45,0,0,1,3.34.49.9.9,0,0,1,.56,1.09A.81.81,0,0,1,98.85,147Zm157.41-5.16-.19,0a.9.9,0,0,1-.59-1.07,15.26,15.26,0,0,1,1.21-3.52.75.75,0,0,1,1.08-.36.94.94,0,0,1,.32,1.21,13.45,13.45,0,0,0-1.06,3.08A.82.82,0,0,1,256.26,141.8Zm-175.8-.21a.82.82,0,0,1-.77-.67,13.32,13.32,0,0,0-1.1-3.06,1,1,0,0,1,.3-1.21A.75.75,0,0,1,80,137a15.19,15.19,0,0,1,1.26,3.5.9.9,0,0,1-.57,1.08A.69.69,0,0,1,80.45,141.59ZM259.84,135a.76.76,0,0,1-.59-.29,1,1,0,0,1,.05-1.26,12.75,12.75,0,0,1,2.78-2.15.75.75,0,0,1,1.07.39.94.94,0,0,1-.35,1.19,11.14,11.14,0,0,0-2.43,1.88A.75.75,0,0,1,259.84,135Zm-183.06-.15a.75.75,0,0,1-.53-.22,11,11,0,0,0-2.46-1.84.94.94,0,0,1-.36-1.19.76.76,0,0,1,1.06-.41,12.66,12.66,0,0,1,2.81,2.1,1,1,0,0,1,.07,1.25A.76.76,0,0,1,76.78,134.87ZM266.2,131.6a.81.81,0,0,1-.76-.64.91.91,0,0,1,.54-1.1,16,16,0,0,0,2.83-1.23.76.76,0,0,1,1.07.4.94.94,0,0,1-.36,1.19,17.53,17.53,0,0,1-3.09,1.35A.73.73,0,0,1,266.2,131.6Zm-195.83-.06a.72.72,0,0,1-.23,0,16.62,16.62,0,0,1-1.65-.65c-.48-.22-1-.46-1.43-.73a.94.94,0,0,1-.35-1.19.76.76,0,0,1,1.07-.39c.43.25.87.47,1.31.67a14.76,14.76,0,0,0,1.5.59.91.91,0,0,1,.53,1.1A.81.81,0,0,1,70.37,131.54ZM272.52,128a.77.77,0,0,1-.63-.35,1,1,0,0,1,.15-1.24,24.85,24.85,0,0,0,2.31-2.26.74.74,0,0,1,1.12,0,1,1,0,0,1,0,1.26,26.58,26.58,0,0,1-2.47,2.41A.74.74,0,0,1,272.52,128Zm-208.44-.13a.74.74,0,0,1-.49-.19q-.63-.55-1.25-1.16t-1.2-1.27a1,1,0,0,1,0-1.25.74.74,0,0,1,1.12,0q.55.62,1.13,1.2t1.17,1.09a1,1,0,0,1,.14,1.25A.77.77,0,0,1,64.08,127.83Zm213.43-5.56a.74.74,0,0,1-.48-.18,1,1,0,0,1-.16-1.24c.61-.9,1.2-1.87,1.74-2.86a.75.75,0,0,1,1.09-.3.94.94,0,0,1,.27,1.22c-.57,1-1.18,2.06-1.83,3A.76.76,0,0,1,277.52,122.27Zm-218.39-.17a.77.77,0,0,1-.64-.36c-.64-1-1.25-2-1.81-3a1,1,0,0,1,.27-1.22.75.75,0,0,1,1.09.3c.54,1,1.12,2,1.72,2.88a1,1,0,0,1-.16,1.24A.74.74,0,0,1,59.13,122.11Zm222-6.69a.72.72,0,0,1-.33-.08.93.93,0,0,1-.39-1.18c.43-1,.82-2.11,1.19-3.21a.78.78,0,0,1,1-.53.92.92,0,0,1,.47,1.14c-.38,1.15-.79,2.28-1.24,3.35A.8.8,0,0,1,281.16,115.42Zm-225.65-.19a.8.8,0,0,1-.72-.52c-.44-1.08-.85-2.21-1.22-3.36a.92.92,0,0,1,.48-1.13.78.78,0,0,1,1,.53c.36,1.1.75,2.19,1.17,3.22a.93.93,0,0,1-.39,1.18A.72.72,0,0,1,55.51,115.23Zm227.74-6.11a.74.74,0,0,1-.22,0,.9.9,0,0,1-.54-1.1c.28-1.1.54-2.24.75-3.38a.79.79,0,0,1,.94-.69.89.89,0,0,1,.62,1c-.22,1.19-.48,2.37-.78,3.51A.81.81,0,0,1,283.25,109.12ZM53.16,107.7a.82.82,0,0,1-.77-.67c-.26-1.15-.49-2.34-.68-3.53a.88.88,0,0,1,.64-1,.8.8,0,0,1,.92.72c.18,1.15.4,2.29.66,3.41a.9.9,0,0,1-.57,1.08Zm231.49-6.4h-.09a.87.87,0,0,1-.7-1c.12-1.15.2-2.32.25-3.48a.83.83,0,0,1,.83-.85.86.86,0,0,1,.76.93c0,1.2-.13,2.41-.26,3.6A.83.83,0,0,1,284.65,101.3ZM52,99.83a.84.84,0,0,1-.79-.81c-.09-1.19-.15-2.4-.17-3.61a.8.8,0,1,1,1.59,0c0,1.16.07,2.34.16,3.48a.86.86,0,0,1-.72,1Zm232.94-6.51a.84.84,0,0,1-.79-.85c0-1.17-.12-2.34-.23-3.48a.87.87,0,0,1,.7-1,.82.82,0,0,1,.88.79c.12,1.18.2,2.39.24,3.6a.85.85,0,0,1-.76.92Zm-233-1.47h-.05a.86.86,0,0,1-.74-.95c.07-1.21.18-2.42.33-3.59a.81.81,0,0,1,.9-.76.88.88,0,0,1,.68,1c-.14,1.14-.25,2.3-.32,3.47A.84.84,0,0,1,51.91,91.85ZM284.07,85.4a.82.82,0,0,1-.78-.71c-.2-1.14-.45-2.28-.73-3.39a.9.9,0,0,1,.55-1.09.79.79,0,0,1,1,.62c.29,1.15.54,2.34.76,3.52a.89.89,0,0,1-.62,1ZM53,84l-.18,0a.89.89,0,0,1-.59-1.07c.25-1.17.53-2.35.86-3.49a.78.78,0,0,1,1-.58.91.91,0,0,1,.52,1.12c-.31,1.1-.59,2.23-.82,3.36A.82.82,0,0,1,53,84Zm229.12-6.22a.8.8,0,0,1-.74-.56c-.38-1.09-.8-2.16-1.25-3.18a.94.94,0,0,1,.36-1.19.76.76,0,0,1,1.06.41c.47,1.06.9,2.18,1.3,3.32a.92.92,0,0,1-.45,1.15A.72.72,0,0,1,282.08,77.74ZM55.18,76.37a.7.7,0,0,1-.31-.07.93.93,0,0,1-.42-1.16c.43-1.13.91-2.23,1.41-3.27a.75.75,0,0,1,1.08-.36.94.94,0,0,1,.32,1.2c-.48,1-.93,2.05-1.35,3.13A.8.8,0,0,1,55.18,76.37Zm223.68-5.75a.78.78,0,0,1-.67-.41c-.57-1-1.18-1.93-1.81-2.81a1,1,0,0,1,.12-1.25.74.74,0,0,1,1.12.14c.66.93,1.3,1.92,1.9,3a1,1,0,0,1-.24,1.23A.74.74,0,0,1,278.85,70.62ZM58.64,69.39a.74.74,0,0,1-.46-.16A1,1,0,0,1,58,68a33.64,33.64,0,0,1,2-2.86A.74.74,0,0,1,61.13,65a1,1,0,0,1,.07,1.25A32.28,32.28,0,0,0,59.29,69,.77.77,0,0,1,58.64,69.39Zm215.67-4.91a.75.75,0,0,1-.54-.24l-.41-.42a22.84,22.84,0,0,0-2-1.75,1,1,0,0,1-.19-1.24.74.74,0,0,1,1.11-.21,24.42,24.42,0,0,1,2.11,1.87l.44.45a1,1,0,0,1,0,1.25A.75.75,0,0,1,274.31,64.48Zm-210.87-1a.77.77,0,0,1-.61-.32,1,1,0,0,1,.1-1.25,23.29,23.29,0,0,1,2.67-2.15.75.75,0,0,1,1.09.29,1,1,0,0,1-.26,1.22,21.41,21.41,0,0,0-2.48,2A.75.75,0,0,1,63.44,63.5ZM268.4,60a.74.74,0,0,1-.32-.08l-.42-.2a15.3,15.3,0,0,0-2.45-.87.9.9,0,0,1-.59-1.07.8.8,0,0,1,1-.66,16.49,16.49,0,0,1,2.69,1l.46.22a.93.93,0,0,1,.4,1.17A.79.79,0,0,1,268.4,60ZM69.58,59.49a.81.81,0,0,1-.75-.59.92.92,0,0,1,.48-1.13,16.87,16.87,0,0,1,2-.66,10.53,10.53,0,0,0,1-.32.78.78,0,0,1,1,.56.91.91,0,0,1-.51,1.12,11.31,11.31,0,0,1-1.19.37,15,15,0,0,0-1.85.6A.75.75,0,0,1,69.58,59.49Zm192.13-2.2a.73.73,0,0,1-.41-.13,13.05,13.05,0,0,1-2.64-2.36,1,1,0,0,1,0-1.25.74.74,0,0,1,1.12,0,11.45,11.45,0,0,0,2.31,2.06,1,1,0,0,1,.27,1.22A.78.78,0,0,1,261.71,57.29ZM76.14,56.46a.77.77,0,0,1-.63-.35,1,1,0,0,1,.15-1.24,12,12,0,0,0,2.09-2.34.74.74,0,0,1,1.11-.17A1,1,0,0,1,79,53.6a13.64,13.64,0,0,1-2.39,2.67A.74.74,0,0,1,76.14,56.46Zm180.88-5a.79.79,0,0,1-.72-.52,15.38,15.38,0,0,1-1-3.61.88.88,0,0,1,.66-1,.81.81,0,0,1,.91.73,13.45,13.45,0,0,0,.86,3.16.93.93,0,0,1-.39,1.18A.72.72,0,0,1,257,51.42ZM80.22,50A.7.7,0,0,1,80,50a.91.91,0,0,1-.51-1.12A13.7,13.7,0,0,0,80,45.63a.8.8,0,1,1,1.59.09A15.59,15.59,0,0,1,81,49.43.81.81,0,0,1,80.22,50Zm175.89-6.42H256a.88.88,0,0,1-.65-1l.05-.31a5.67,5.67,0,0,0,.09-.94,3.12,3.12,0,0,0-.23-1.23,3,3,0,0,0-.16-.32,1,1,0,0,1,.24-1.22.74.74,0,0,1,1.1.27,5,5,0,0,1,.25.51,5.07,5.07,0,0,1,.38,2,7.59,7.59,0,0,1-.13,1.28l0,.27A.82.82,0,0,1,256.11,43.62Zm-161.74,0h-.07a11.66,11.66,0,0,1-3.3-.8.92.92,0,0,1-.48-1.14.77.77,0,0,1,1-.53,10.15,10.15,0,0,0,2.89.7.86.86,0,0,1,.73,1A.84.84,0,0,1,94.37,43.59Zm145.29-.32h-.13a11.77,11.77,0,0,1-3.24-1.09.93.93,0,0,1-.4-1.18.76.76,0,0,1,1.05-.44,10.32,10.32,0,0,0,2.83,1,.88.88,0,0,1,.66,1A.83.83,0,0,1,239.66,43.27Zm4,0a.83.83,0,0,1-.78-.73.89.89,0,0,1,.65-1,10.32,10.32,0,0,0,2.82-1,.76.76,0,0,1,1.06.43.94.94,0,0,1-.38,1.18,11.89,11.89,0,0,1-3.22,1.14Zm-145.31,0a.82.82,0,0,1-.77-.67.9.9,0,0,1,.57-1.08,10.46,10.46,0,0,0,2.16-.9l.58-.34a.75.75,0,0,1,1.08.33,1,1,0,0,1-.3,1.21l-.66.39a12,12,0,0,1-2.47,1ZM80.49,42.15h0a.85.85,0,0,1-.78-.9,5.24,5.24,0,0,1,.23-1.5,4.66,4.66,0,0,1,.61-1.25,5.34,5.34,0,0,1,.87-1,.74.74,0,0,1,1.12.14,1,1,0,0,1-.13,1.25,3.61,3.61,0,0,0-.59.67,2.84,2.84,0,0,0-.37.76,3.3,3.3,0,0,0-.14.94A.84.84,0,0,1,80.49,42.15Zm7.34-1.48a.74.74,0,0,1-.5-.2,13.62,13.62,0,0,1-2.09-2.4l0,0a.93.93,0,0,1-.31-1.19A.76.76,0,0,1,86,36.48a1.56,1.56,0,0,1,.36.29l0,0,.12.17a12,12,0,0,0,1.83,2.11,1,1,0,0,1,.12,1.25A.76.76,0,0,1,87.83,40.67Zm145.52-.89a.75.75,0,0,1-.55-.24,14,14,0,0,1-2.12-2.94,1,1,0,0,1,.27-1.22.75.75,0,0,1,1.09.3,12.24,12.24,0,0,0,1.85,2.57,1,1,0,0,1,0,1.26A.76.76,0,0,1,233.35,39.78Zm16.55-.13a.75.75,0,0,1-.57-.27,1,1,0,0,1,0-1.25,12.28,12.28,0,0,0,.94-1.16h0a.85.85,0,0,1,.13-.18,1.65,1.65,0,0,1,.35-.3,2.55,2.55,0,0,1,1.3-.32,3.75,3.75,0,0,1,.49,0,.87.87,0,0,1,.7,1,.82.82,0,0,1-.88.79,1.87,1.87,0,0,0-.83.07l0,0a14.35,14.35,0,0,1-1.08,1.33A.75.75,0,0,1,249.89,39.65Zm-145.58-.57a.74.74,0,0,1-.52-.22,1,1,0,0,1-.08-1.25,12.66,12.66,0,0,0,1.63-2.76.76.76,0,0,1,1.06-.41.94.94,0,0,1,.37,1.19,14.43,14.43,0,0,1-1.87,3.15A.76.76,0,0,1,104.31,39.09ZM229.9,32.92a.82.82,0,0,1-.78-.7,15.85,15.85,0,0,1-.28-3c0-.26,0-.53,0-.79a.84.84,0,0,1,.84-.84.86.86,0,0,1,.75.94c0,.23,0,.46,0,.69a13.89,13.89,0,0,0,.25,2.6.89.89,0,0,1-.61,1.05Zm-122.72-1h-.1a.87.87,0,0,1-.7-1,13.81,13.81,0,0,0,0-3.3.88.88,0,0,1,.67-1,.82.82,0,0,1,.9.75,15.73,15.73,0,0,1,.14,2.1,15.91,15.91,0,0,1-.09,1.68A.83.83,0,0,1,107.18,31.9ZM230.32,25h-.09a.87.87,0,0,1-.71-1c0-.3,0-.6,0-.89a8.2,8.2,0,0,0-.31-2.25.91.91,0,0,1,.52-1.12.78.78,0,0,1,1,.58,10.22,10.22,0,0,1,.38,2.79c0,.35,0,.71-.05,1.08A.83.83,0,0,1,230.32,25ZM106.48,24h0a.85.85,0,0,1-.79-.89,10,10,0,0,1,.76-3.81.76.76,0,0,1,1.06-.43.93.93,0,0,1,.38,1.18,8,8,0,0,0-.61,3.06A.85.85,0,0,1,106.48,24Zm80.71-.1h0a30.52,30.52,0,0,1-3.25-.26.87.87,0,0,1-.7-1,.82.82,0,0,1,.88-.78,29.21,29.21,0,0,0,3.09.24A.85.85,0,0,1,188,23,.84.84,0,0,1,187.19,23.89Zm-36.61,0a.84.84,0,0,1-.79-.84.86.86,0,0,1,.75-.93,28.9,28.9,0,0,0,3.09-.34.81.81,0,0,1,.9.75.88.88,0,0,1-.67,1,30.74,30.74,0,0,1-3.24.36Zm-4,0h-.05c-1.06-.08-2.15-.22-3.23-.41a.88.88,0,0,1-.66-1,.81.81,0,0,1,.91-.74c1,.18,2.07.31,3.09.39a.86.86,0,0,1,.74.95A.84.84,0,0,1,146.61,23.82Zm44.55-.09a.84.84,0,0,1-.79-.8.87.87,0,0,1,.72-1c1-.11,2.06-.27,3.08-.48a.8.8,0,0,1,.93.71.88.88,0,0,1-.64,1c-1.07.22-2.15.39-3.22.5Zm-11-.88-.19,0-.28-.08c-1-.27-1.91-.58-2.85-.94a.92.92,0,0,1-.49-1.13.78.78,0,0,1,1-.55c.89.34,1.81.64,2.72.9l.26.07a.9.9,0,0,1,.59,1.07A.82.82,0,0,1,180.11,22.85Zm-22.48-.26a.81.81,0,0,1-.77-.65.9.9,0,0,1,.56-1.09c.93-.29,1.89-.62,2.83-1l.13-.05a.77.77,0,0,1,1,.52.92.92,0,0,1-.47,1.14l-.13.05c-1,.4-2,.76-3,1.06Zm-18.07-.1-.17,0-.08,0c-1-.3-2-.66-3-1.06a.92.92,0,0,1-.49-1.13.78.78,0,0,1,1-.54c1,.38,2,.72,2.94,1a.92.92,0,0,1,.59,1.08A.81.81,0,0,1,139.56,22.5Zm58.61-.28a.81.81,0,0,1-.76-.64.91.91,0,0,1,.54-1.1c1-.32,2-.69,3-1.1a.78.78,0,0,1,1,.52.92.92,0,0,1-.47,1.14c-1,.43-2.06.82-3.07,1.14A.69.69,0,0,1,198.17,22.22Zm-24.8-2a.72.72,0,0,1-.33-.08c-.95-.49-1.92-1-2.88-1.64a.94.94,0,0,1-.31-1.21.76.76,0,0,1,1.08-.35c.93.58,1.87,1.11,2.78,1.58a.93.93,0,0,1,.39,1.18A.8.8,0,0,1,173.37,20.2Zm-40.53-.4a.73.73,0,0,1-.33-.08c-1-.48-1.94-1-2.9-1.58a.94.94,0,0,1-.34-1.2.76.76,0,0,1,1.07-.37c.93.55,1.88,1.06,2.82,1.53a.93.93,0,0,1,.4,1.17A.8.8,0,0,1,132.84,19.8Zm31.47,0a.79.79,0,0,1-.71-.5.94.94,0,0,1,.36-1.19c.91-.5,1.83-1,2.76-1.64a.75.75,0,0,1,1.09.32,1,1,0,0,1-.29,1.21c-1,.62-1.91,1.19-2.85,1.7A.71.71,0,0,1,164.31,19.75Zm40.54-.39a.79.79,0,0,1-.72-.51.93.93,0,0,1,.38-1.18c.88-.46,1.77-1,2.65-1.5l.15-.09a.75.75,0,0,1,1.08.36.94.94,0,0,1-.32,1.2l-.15.09c-.9.54-1.82,1.06-2.72,1.54A.73.73,0,0,1,204.85,19.37Zm23-1.53a.75.75,0,0,1-.54-.24,9.71,9.71,0,0,0-2.43-1.82.94.94,0,0,1-.38-1.18.76.76,0,0,1,1.06-.42,11.17,11.17,0,0,1,2.83,2.12,1,1,0,0,1,0,1.25A.76.76,0,0,1,227.88,17.83Zm-118.2-.66a.77.77,0,0,1-.63-.35,1,1,0,0,1,.15-1.24,11.79,11.79,0,0,1,3-1.83.77.77,0,0,1,1,.5.92.92,0,0,1-.45,1.15A10.29,10.29,0,0,0,110.16,17,.74.74,0,0,1,109.68,17.17Zm16.73-.86a.71.71,0,0,1-.3-.06,23.22,23.22,0,0,0-2.92-1.1.9.9,0,0,1-.56-1.09.79.79,0,0,1,1-.63,24.21,24.21,0,0,1,3.11,1.17.93.93,0,0,1,.44,1.16A.8.8,0,0,1,126.4,16.31Zm84.9-.37a.8.8,0,0,1-.75-.58.92.92,0,0,1,.47-1.14,23.8,23.8,0,0,1,3.15-1,.8.8,0,0,1,1,.67.89.89,0,0,1-.6,1.06,22.05,22.05,0,0,0-2.95,1A.71.71,0,0,1,211.31,15.94Zm10.15-1.36h-.13a14.88,14.88,0,0,0-3-.21.84.84,0,0,1-.82-.86.85.85,0,0,1,.77-.91,16.17,16.17,0,0,1,3.32.23.88.88,0,0,1,.66,1A.83.83,0,0,1,221.46,14.58Zm-105.15-.13a.83.83,0,0,1-.79-.8.87.87,0,0,1,.71-1,17.08,17.08,0,0,1,3.32,0,.86.86,0,0,1,.73,1,.83.83,0,0,1-.85.82,15.56,15.56,0,0,0-3,0Z"/><path class="cls-11" d="M102.35,137.9a1.24,1.24,0,0,0-1.53.38l-.77.38c-.26-1.79-.51-2.68-.77-2.68l-.77.38a3,3,0,0,0-1.15-.38L97,135.6q0-1.53-2.3-1.15-1.53,0-1.15-1.15v-4.21l-.38-1.53a1.07,1.07,0,0,1,.77-1.53h.38a91.85,91.85,0,0,0,5.74-7.66q3.06-5.36,7.27-11.48a38.71,38.71,0,0,1,3.45-3.83,53.1,53.1,0,0,0,3.45-4.21,102.29,102.29,0,0,0,7.27-9.19c.77-1,.51-1.53-.77-1.53a3,3,0,0,0-1.91.38q0,.39-2.3,1.53L114.22,92a25.26,25.26,0,0,0-3.83,1.53L107.71,95A38.42,38.42,0,0,1,102,98.08a6.72,6.72,0,0,0-1.91.77,15.77,15.77,0,0,0-1.91.77,10.9,10.9,0,0,0-2.3,1.91,4,4,0,0,1-4.59.77A5.14,5.14,0,0,1,89,97.7c.25-2.55.38-4.21.38-5a4.15,4.15,0,0,1,1.91-1.53c.25-.25.77-.13,1.53.38a5.92,5.92,0,0,0,4.21,0,45.41,45.41,0,0,1,4.21-2.3,18.49,18.49,0,0,1,4.21-1.91,28.8,28.8,0,0,0,3.45-1.53,16.85,16.85,0,0,1,3.06-1.53,45.48,45.48,0,0,0,5.74-3.06A52.06,52.06,0,0,1,123,78.56c.77-.25,1.78-.63,3.06-1.15a12.07,12.07,0,0,1,2.68-1.15c2.55-1,4-1.91,4.21-2.68a26.17,26.17,0,0,1,1.91-2.68,3,3,0,0,1,1.91-.38h.77a1.08,1.08,0,0,0,.77.38,4.83,4.83,0,0,1,3.45.38c.25.26,1,.38,2.3.38.77.26,1,.38.77.38,2.3.51,3.19.77,2.68.77a3.7,3.7,0,0,1,3.06,2.68,16.7,16.7,0,0,1,.38,2.68l-2.68,2.68a1.11,1.11,0,0,1-.77.38q-1.92-.76-4.21,1.91-.39.77-3.45,5.74-1.53,1.92,1.53,3.06a3.65,3.65,0,0,1,2.3,4.21,42.26,42.26,0,0,0-.77,4.21,16.29,16.29,0,0,0-.77,4.21,35.47,35.47,0,0,0-1.15,6.13,59,59,0,0,0-.77,6.13v5.36a1.35,1.35,0,0,0,1.53,1.53q7.65,1.15,8.8,1.15a62.45,62.45,0,0,0,9.57-.77c.77,0,2.3-.63,4.59-1.91l.38-1.91a6.23,6.23,0,0,0,0-3.06,15.81,15.81,0,0,1-.38-2.68V97.32c.77.51,1.53,2.3,2.3,5.36q3.45,11.11,2.68,8.42.38,1.15,2.3,5.74a5,5,0,0,1,.38,4.21,3.86,3.86,0,0,0,.77,1.53h.38v2.68a5.66,5.66,0,0,1-1.91,1.15,1.11,1.11,0,0,0-.38.77,1.87,1.87,0,0,1-1.15,2.3,1.08,1.08,0,0,0-.38.77,2.31,2.31,0,0,1-1.53,1.53q-1.53,0-1.15,1.15c0,.51-.13.77-.38.77q-1.53.38-3.83,1.15l-4.21.77a10.1,10.1,0,0,1-3.06.38,11.56,11.56,0,0,0-3.45.38h-.38q-8.43-1.15-9.57-1.53a58.63,58.63,0,0,1-6.12-1.15l-1.15-.38a14.54,14.54,0,0,1-5-1.53l-1.53-1.15q-2.68-1.92-3.45-6.51c-.26-.25-.26-1.53,0-3.83v-.77a44,44,0,0,1,1.53-6.89q0-.38,1.53-6.89h-.38v-.38l-1.15,1.15a12.81,12.81,0,0,1-1.53,1.91l-.77,1.53q-.39.39-3.83,4.21l-.77.77q.38.39-1.15,1.91a9,9,0,0,0-1.91,3.83,2.2,2.2,0,0,1-.77,1.53,2.49,2.49,0,0,0-1.15,1.15l-.77,1.53L112.69,126a46.23,46.23,0,0,1-2.3,4.21,4.66,4.66,0,0,1-2.68,2.68,1.53,1.53,0,0,0-.77,1.53q-.39,2.3-3.45,4.21ZM136.81,56l.38-.38a4.87,4.87,0,0,0,1.15-2.3q.38-.76,0-1.15t-1.15,0l-5.36,1.53a3.43,3.43,0,0,0-1.53.38,3.91,3.91,0,0,1-1.53.77q-1.53-1.52-1.53.38a1.11,1.11,0,0,0-.77.38q-3.07,1.15-5,1.91-4.22,1.92-3.45,1.15L116.9,59.8a4.47,4.47,0,0,0-1.15.77,5.67,5.67,0,0,1-5,0,4.56,4.56,0,0,1-2.68-3.45c0-.25-.13-1.91-.38-5V50.23a2.7,2.7,0,0,1,.38-2.3l.77-.77h.77a3,3,0,0,1,1.15-.38,2.3,2.3,0,0,1,2.3.38q1.52,1.53,6.13.77a43.63,43.63,0,0,0,5-1.15,16.33,16.33,0,0,0,3.06-.38,6.18,6.18,0,0,1,2.68-.77q6.12-1.52,10.72-2.3a42,42,0,0,1,4.21-.38,17.5,17.5,0,0,1,5.36,1.53,7.77,7.77,0,0,1,3.06,3.45q1.15,1.92-.77,2.68,1.15-.38-4.59,2.3a11.88,11.88,0,0,0-1.53,1.15c-.77.51-1.41.51-1.91,0a1.26,1.26,0,0,0-1.53.38q-.77.39-5,3.45c-.51,1-1.91,1.53-4.21,1.53Z"/><path class="cls-11" d="M169.74,82l.77-2.68q3.45-11.48,1.15-5a16.76,16.76,0,0,1,2.68-5.74,24.33,24.33,0,0,1,6.51-5.74l2.3-1.91,2.68,4.59q.76,1.15-.77,3.06A41.23,41.23,0,0,0,183.52,77l1.91.38a38,38,0,0,1,6.51-4.59q-7.66,3.83,1.91-1.15L199.22,69q5-1.91,9.19-3.45,3.45-1.15,7.66-2.3,6.89-1.52,13.4-2.68h18.38a9.24,9.24,0,0,1,5,3.06c1.53,1.79,2.17,3.32,1.91,4.59l-.38,4.59a26.27,26.27,0,0,0-1.15,3.45L252,77.79a21.16,21.16,0,0,1-4.21,1.15c-.77-.25-1.15,0-1.15.77a3.1,3.1,0,0,1-1.53,2.3c-2.3,1.53-3.58,2.68-3.83,3.45A24.2,24.2,0,0,1,235.59,87c.25-.77.51-1.15.77-1.15l1.15-.38a6.53,6.53,0,0,0-.38-1.53q3.06-1.91,3.06-2.3,1.52-1.52,3.83-4.21a38.83,38.83,0,0,0,2.3-3.83,14.55,14.55,0,0,0,1.53-5.36q-.39-1.52-3.45-1.91h-.77l-1.91-.38a25.42,25.42,0,0,1-4.21,1.15,12.3,12.3,0,0,0-2.3.38l-8.42.38q8.42-1.91-4.21,1.15l-.38-.38c-.77-.25-1.28-.13-1.53.38l-5.74.77a8,8,0,0,0-4.21,1.15l-4.21,1.53q-5,1.53-2.3.77H203a6.2,6.2,0,0,0-3.45,1.53h-3.06l.77.77-1.15,1.15-1.91-.38q-4.22,5.37-2.3,2.68c-.77.26-1.15.51-1.15.77l-.77.77A2.43,2.43,0,0,0,188.12,82l-2.3,3.06a4.64,4.64,0,0,0-.38,4.21l1.15,3.45q1.15,3.45-1.91,5L182,98.85l-3.06-1.15A46.79,46.79,0,0,1,173.57,95c-.77-.51-1.66-2-2.68-4.59,0-.25-.38-1.91-1.15-5Zm41.34,3.45c0,.51-.64,1-1.91,1.53q1.52-.38-4.21,1.91c.25-.25-.64,0-2.68.77-1.28.26-1.79.64-1.53,1.15L199.6,92c-1,.51-1.79.38-2.3-.38l-.38-.38c-1.28-.25-1.53-1.27-.77-3.06q.76-1.91,5-3.06l5.36-1.91,8-2.68c1-.25,1.53-.63,1.53-1.15q0,.39-.77-4.59l.38-2.68A4.72,4.72,0,0,1,219.51,74l.38.38-.38,3.06c0,.77.51,1,1.53.77q5.74-.76,4.59-.77l5.74.38,1.53,1.53v.38l-1.15.77-1.53.77-3.06,1.91-2.3,2.3H223c0,1-.26,1.53-.77,1.53l-.38,1.91q-.39-2.67.77,4.21V95a1.53,1.53,0,0,0,1.53.77c.77-.25,1.66-.51,2.68-.77l6.89-.38a2.37,2.37,0,0,1,2.68,2.68l.38,5q-.39-3.45.77,7.27l.77,5.36q.38,1.92,1.53,8,1.15,5.37,1.53,6.51a16.82,16.82,0,0,1,.38,6.51c0,1.78-1.28,2.68-3.83,2.68h-1.53a2.2,2.2,0,0,1-1.53-.77l-1.53-1.15q-1.53-.39-.38-1.15c.77-.26.77-.51,0-.77l-2.3-1.53,1.15-2.3-2.3-1.91,3.83.38c1,.25,1.53-.13,1.53-1.15a50.25,50.25,0,0,0-.38-6.12c0-.51-.38-.77-1.15-.77l-8.8-1.53-11.1.38c-2,0-2.94-1-2.68-3.06l11.48-1.53a22.23,22.23,0,0,0,5.74-1.15l3.45.38,1.53.77.38-1.15V110l-1.15-10.34q-.39-1.52-2.3-1.15a80.29,80.29,0,0,0-10,3.06q-5.74,2.68-8,3.45L208.41,108q-1.53,1.54-1.53,5v4.21q-.39-2.3,1.91,5.36,1.52,4.59,2.3,7.27c.25,1-.38,1.66-1.91,1.91l-3.06.77a6,6,0,0,1-1.53-1.15l-1.91-1.53q-1.92-1.15-1.53-4.21l.77-21.05v-3.83l.38-.77a3.65,3.65,0,0,1,1.53,3.06q.38,1.54,1.15,6.51l1.91-1.15c.25-1.53.89-2.42,1.91-2.68l.77-1.53a21.56,21.56,0,0,1,7.27-5.36q1.15-.76,0-1.53a3.46,3.46,0,0,1-1.91-1.91q0-1.52-1.91-1.15l-2.3-.38c0-.25.38-.51,1.15-.77q5-3.82,2.68-2.3,1.15-.76,1.53-4.21c-.26-1.27-.51-1.91-.77-1.91-1.79-.25-2.68,0-2.68.77ZM203,59a51.48,51.48,0,0,0,10.72-8.42l.77-.38a1.92,1.92,0,0,0,0-3.06c-1.28-1.27-1.53-2.42-.77-3.45V43l5.74.38a72.94,72.94,0,0,1,8.8,1.91q-.39,0,2.3,1.15l1.91,2.68.77,1.91q.76.77,0,1.15a8.61,8.61,0,0,1-3.06,1.53q-.77.39-7.66-.38l-.77-.38c-.51-.77-1.41-1-2.68-.77l-4.59,1.53-3.06,1.15-1.53,1.53a13.52,13.52,0,0,1-4.21,2.3l-3.06,1.53Zm8.42,49.38,8-1.53,7.66-.38c1.27-.25,1.53.38.77,1.91q-.39,1.15-4.59,1.91-15.7,2.3-10,1.53-2.3,0-2.3-1.15Z"/></g></g></g></svg>