<svg xmlns="http://www.w3.org/2000/svg" viewBox="0 0 832.23 249.47"><defs><style>.cls-1{fill:#1d2088;}.cls-2{fill:#1861ae;}.cls-3,.cls-6{fill:#e60012;}.cls-3,.cls-4{fill-rule:evenodd;}.cls-4{fill:#ffe100;}.cls-5{fill:none;stroke:#231815;stroke-miterlimit:22.93;stroke-width:11.94px;}</style></defs><title>资源 8</title><g id="图层_2" data-name="图层 2"><g id="z01"><g id="css4"><path class="cls-1" d="M301.21,100H257.48V75.06h43.73Zm.55,60.89a16.51,16.51,0,0,0,5,10.52q8.3,8.3,31.55,8.3,8.3-.55,26-1.66-18.27,1.66,31.55-2.21v27.68H318.92q-19.92,0-33.21-13.28L268,203.48l-10-37.09,17.72-16.61v-15.5H257.48V107.71h44.28Zm15.5,8.3q25.45-.55,29.34-10.52a22.94,22.94,0,0,0,1.66-7.19q-3.88,2.78-6.64,5-5.54,3.32-11.07,6.09l-23.8-17.71q19.37-5,24.91-7.75a127.12,127.12,0,0,0,14.39-10,24.3,24.3,0,0,1-1.66-2.77q-6.64,5-11.07,7.75a93.15,93.15,0,0,1-17.72,7.2l-8.85-14.95L305.08,121a94.78,94.78,0,0,0,21-6.09q4.43-2.21,9.41-5l-1.66-2.21a132,132,0,0,1-22.14,7.75l-10-17.71q15.49-3.32,24.91-7.75H309V65.09h83.58V90H377l16.61,17.71q-6.09,7.2-11.62,12.73-3.32,3.32-7.75,7.2,15.49,11.08,21.59,16.05L384.24,168q-6.64-5.53-14.39-11.07Q366,181.34,338.3,181.89ZM361,90q-4.44,3.32-8.3,6.64a62.09,62.09,0,0,1,7.75,9.41,47.1,47.1,0,0,0,6.09-6.09q3.32-3.32,9.41-10Z"/><path class="cls-1" d="M399.18,191.85q11.63-23.79,17.72-54.25l22.69,11.63-12.18,52ZM408,102.18l39.3,10-8.86,27.68-35.43-6.64ZM521,169.71a88.9,88.9,0,0,0,16.61,7.19l-14.95,24.36q-21-8.86-31.55-22.7-9.42-11.62-14.95-34.87h-3.88V168q4.43-1.66,9.41-3.32l7.75,22.14a189.2,189.2,0,0,0-18.27,8.3,52.74,52.74,0,0,0-5.54,3.32,55,55,0,0,0-6.64,3.32l-10.52-8.3V76.72l-5,27.12-39.3-7.2,5-30.45,39.3,9.41,24.35.55V66.75h27.13v9.41h29.89v67.53h-8.3l11.62,10Q525.94,163.08,521,169.71Zm-48.71-68.09h33.21V97.2H472.25Zm33.21,20.48v-5H472.25v5.54Zm-1.66,29.34q3.87-4.43,6.64-7.75h-10Z"/><path class="cls-1" d="M540.89,98.3V75.06H552l1.66-8.86h17.71l-1.11,8.86h30.45V98.3H566.35L563,121h4.43V103.84h21V121h10v23.25h-10v6.09l11.63-1.11,1.66,20.48a93.89,93.89,0,0,0,11.07-14.39q6.64-10.51,6.64-26v-5.54a135.08,135.08,0,0,1-10,11.07l-16.61-24.91q6.09-3.87,14.95-16.05,6.64-9.41,12.18-28.78H645a114.24,114.24,0,0,1-3.32,16.05H675.4V105.5q-2.78,18.83-14.95,37.09l-14.95-8.86q4.43,17.16,10.52,26t22.7,21l-16.61,22.14q-17.72-13.84-25.46-25.46a28,28,0,0,0-1.66-2.77q-8.3,14.94-24.91,28.78l-16.06-26,3.32-3.32-8.86,1.11v27.12h-21V177.46l-23.8,2.21-3.32-24.91,27.12-2.21v-8.3H540.89l7.75-45.94Zm91.34,7.2-.55.55q3.32-5-3.88,6.09h17.71V116a52.82,52.82,0,0,0,4.43-10.52Z"/><path class="cls-1" d="M732.41,70.63q-3.32,12.18-6.64,22.14v109H696.43V143.69l-3.32,3.87-7.75-35.43q14.39-20.47,23.8-48.71Zm-1.11,94.65V135.39h34.32V117.13H754a90.32,90.32,0,0,1-7.19,18.27l-21-18.82q8.3-15.49,12.18-43.73H761.2l-1.66,14.94h6.09V64.54h24.91V87.79h24.36v29.34H790.54v18.27h27.68v29.89H790.54v36.53H765.63V165.28Z"/></g><g id="css3"><path class="cls-2" d="M289.2,241q-1.1,1.37-1.8,2.4a29.39,29.39,0,0,1-5.63-3.46v1.83h-8v3.46h13v2.17H258.28V245.2h13v-3.46h-8.06v-1.81a37.37,37.37,0,0,1-5.53,3.85,21.73,21.73,0,0,0-1.73-2.1,31.78,31.78,0,0,0,8.88-6.33h-8.51v-2.17H263V222h-5.6v-2.16H263v-3.6h2.5v3.6h14.29v-3.6h2.5v3.6h5.6V222h-5.6v11.16h6.53v2.17H280A24.09,24.09,0,0,0,289.2,241Zm-17.89-4.56h2.5v3.23h7.63a30,30,0,0,1-4.35-4.3h-9.18a43.73,43.73,0,0,1-4.33,4.3h7.73Zm-5.83-12.06h14.29V222H265.48Zm0,4.4h14.29v-2.33H265.48Zm0,4.43h14.29v-2.36H265.48Z"/><path class="cls-2" d="M289.73,235.17a45.52,45.52,0,0,0,5.43-13.76h-4.33v-2.2h11.83v2.2h-5.28a59.1,59.1,0,0,1-2.1,7.33h6.08v17h-2.2V243.5h-3.67v3.16h-2.2V233.46q-.88,1.83-1.9,3.51A15.35,15.35,0,0,0,289.73,235.17Zm9.43-4.3h-3.67v10.49h3.67Zm19.79,2v-1.57h-4.83v13.39h5.43v-9.6H322v13.49h-2.47v-1.5H303.82v-12h2.47v9.6h5.36V231.28h-7.23V220h2.47v8.83h4.77V216.58h2.47v12.29h4.83v-8.79h2.47v12.76Z"/><path class="cls-2" d="M327.78,232h4.06v-6.73h2.33V232h4.56v2.2h-4.56v5q2.79-.32,5.43-.65c-.11.84-.19,1.62-.23,2.33q-2.47.27-5.2.6v7.53h-2.33V241.8l-7.19.93-.3-2.5q3.87-.37,7.5-.75v-5.28h-6.56v-2.1q1.85-4.7,3.13-8.5h-3.53v-2.2h4.25q.93-3,1.45-5.33l2.67.53q-.78,2.43-1.58,4.8h6.95v2.2h-7.7Q329.39,227.94,327.78,232Zm17.69-6.33h2.6q0,3.46-.14,6.4,2.62,11.39,9.86,14.69l-2.1,2.3q-6.07-3.36-8.68-12-1.78,7.55-9.58,12.21c-.51-.73-1.08-1.47-1.7-2.2q9.1-5,9.63-14.86Q345.47,230.18,345.47,225.68Zm-8.33,3.67a49.85,49.85,0,0,0,6.09-13.26l2.63.7q-.92,2.6-1.9,4.93h13.09v2.23l-3.46,6.43-2.6-.57,3-5.8H343a59.32,59.32,0,0,1-3.57,6.73Q338.44,230.11,337.14,229.34Z"/><path class="cls-2" d="M358.23,233a57.89,57.89,0,0,0,7.4-16.46l2.73.8q-1.23,3.88-2.67,7.28V249h-2.63V230.13a49.5,49.5,0,0,1-3.63,5.78A28.82,28.82,0,0,0,358.23,233Zm10,2h11.56v-8.43h-6.34a45.07,45.07,0,0,1-3,6.4,16.24,16.24,0,0,0-2.2-1.76A44,44,0,0,0,373,218.78l2.7.77q-.65,2.48-1.4,4.7h5.53v-7.73h2.67v7.73h8v2.33h-8V235h9.06v2.33h-9.06V249h-2.67V237.34H368.26Z"/><path class="cls-2" d="M392.54,237.17h24.69v2.53H392.54Zm5.63-5.2v-2.53l1.33-13.16h2.77l-.52,5.3h23.64v2.53H401.52l-.51,5.33h22q-.4,7-.9,13-.47,3.53-2,4.77t-5,1.2q-3.28,0-7.58-.13-.2-1.13-.57-2.9,5.07.37,7.56.4,4.46.3,4.86-3.5.44-4.43.73-10.33Z"/><path class="cls-2" d="M426.76,244.6h15.46v-8.5H430.42v-2.57h11.79v-7.7h-8.79a39.83,39.83,0,0,1-5.1,7.23,18.53,18.53,0,0,0-1.8-2.33A38.77,38.77,0,0,0,434,217.88l2.73.73q-.88,2.43-2,4.66h7.48v-7.06h2.87v7.06h12.73v2.57H445.08v7.7h11.79v2.57H445.08v8.5H459.6v2.5H426.76Z"/><path class="cls-2" d="M464.17,229.71h15.76q2.25-3.31,4-6.6l2.57,1.63q-1.76,2.48-3.7,5h9.86V232H466.87v2.33a31.91,31.91,0,0,1-.9,8.79,15.24,15.24,0,0,1-3.53,6.06q-.87-1.07-1.8-2.26A11.8,11.8,0,0,0,463.4,242a30.17,30.17,0,0,0,.76-7.66Zm-2.73-9.53h15.21q-.73-1.37-1.61-2.8l2.47-1.23q1.08,1.77,2.21,4h13.84v2.36H461.44Zm7,4.26,2.2-1.47q2.07,2.6,3.67,4.93l-2.36,1.63A55.11,55.11,0,0,0,468.4,224.45Z"/><path class="cls-2" d="M496.45,223.81h10.8q.1-3.67.13-7.46h2.9q-.07,3.53-.17,7.46H525.4q-.4,13-.77,18.42-.43,5.73-6.13,5.8-2.73,0-6.6-.13c-.09-.87-.26-1.92-.5-3.17h.1q4.33.4,6.73.37,3.23-.07,3.57-3.56.4-6,.6-15H510q-.3,8.68-2.77,13.06Q504.65,244.47,497,249q-.93-1.2-2-2.53,7.23-4.06,9.49-8.19,2.35-3.75,2.63-11.69h-10.7Z"/><path class="cls-2" d="M529.33,234.37h14.76V220.45H530.83v-2.57h29.45v2.57H546.89v13.93h14.86v2.56H546.89V249.2h-2.8V236.94H529.33Zm3.2-10.26,2.1-1.47a87.46,87.46,0,0,1,6.43,8.43l-2.36,1.76A93.56,93.56,0,0,0,532.53,224.11Zm17,6.93a54.48,54.48,0,0,0,6.6-8.53l2.5,1.6a93.76,93.76,0,0,1-7,8.66Z"/><path class="cls-2" d="M586.6,220.68q5.23,4.86,9.9,10l-2.36,2q-1.33-1.56-2.7-3.08-15,.63-22.85,1.08a22.49,22.49,0,0,0-3.53.53l-1.1-2.87a9.69,9.69,0,0,0,2.76-1.57A66.58,66.58,0,0,0,577.14,216l2.5,1.53a88.88,88.88,0,0,1-10.43,10.43q10.21-.32,20.09-.73-2.28-2.48-4.63-4.83Zm4.9,13.22V249h-2.73v-2.2H570.44V249h-2.73V233.91Zm-2.73,2.47H570.44v8.06h18.32Z"/><path class="cls-2" d="M599.53,218.22h9.39v27q0,3.33-3.1,3.33-1.7,0-3.16-.1-.14-1-.4-2.37a19.27,19.27,0,0,0,2.93.27,1.21,1.21,0,0,0,1.37-1.37v-7.66h-4.66Q602,245,599.13,249a11.2,11.2,0,0,0-1.83-1.87q2.23-3.43,2.23-9.73Zm7,2.17h-4.66v6.4h4.66Zm-4.66,14.89h4.66v-6.43h-4.66Zm9.79-16.92h16.46q-.17,2.7-.27,4.26-.27,5.16-5.26,5.06l-4.3-.13q-.2-1.3-.43-2.63,2.47.3,4.43.37a2.66,2.66,0,0,0,3.1-2.73q.1-.87.17-1.9H614.22v9.6h14.06v2a24.35,24.35,0,0,1-4.88,10.18,19.93,19.93,0,0,0,7.15,4.25q-1.13,1.33-1.93,2.4a24.18,24.18,0,0,1-6.95-4.76,27.75,27.75,0,0,1-6,4.43q-.63-1.1-1.37-2.2a23.17,23.17,0,0,0,5.75-4.06,22.31,22.31,0,0,1-4.28-10h-1.57V249h-2.53Zm14,14.06h-7.58a19.7,19.7,0,0,0,3.68,8.16A21.07,21.07,0,0,0,625.64,232.41Z"/><path class="cls-2" d="M640.9,216l2.5,1.07q-.75,1.23-1.57,2.4h18v2.23a27,27,0,0,1-8.48,6.58,48.06,48.06,0,0,0,13.34,2.52q-1.07,1.5-1.87,2.8a50.44,50.44,0,0,1-14.56-3.88,73.21,73.21,0,0,1-16,4.45q-.57-1-1.37-2.33a71.13,71.13,0,0,0,14.49-3.63,20.51,20.51,0,0,1-6.08-5.48,46.13,46.13,0,0,1-5.71,5.68q-1-1.07-1.83-1.8A33.16,33.16,0,0,0,640.9,216Zm-7,19.52h9.7q.23-1.62.4-3.6h2.7q-.21,2-.45,3.6h13.44q-.33,6-.63,8.36-.53,4.7-5.6,4.73-2,0-5.9-.13-.2-1.23-.5-2.76,3.83.33,6.33.37a2.88,2.88,0,0,0,3.13-2.86q.3-2.5.43-5.33H645.85q-1.77,8-12.41,11.63-.77-1.1-1.63-2.23,9.56-3.1,11.33-9.39h-9.23Zm22.39-13.86H641.42a20.85,20.85,0,0,0,6.9,5.3A29.16,29.16,0,0,0,656.29,221.61Z"/><path class="cls-2" d="M665.66,219.92h15.21q-.64-1.18-1.55-2.63l2.57-1.17q1,1.72,2.1,3.8h14.36v2.36H665.66Zm2.43,7.13h8.09q-1.15-1.68-2.5-3.33l2-1.37q1.6,1.87,2.9,3.46l-1.8,1.23h7.56a43.31,43.31,0,0,0,3.1-4.56l2.53,1.47q-1.58,1.88-2.67,3.1h8.29V244.5q0,4.2-3.83,4.23-2.07,0-4.66,0a25.4,25.4,0,0,0-.5-2.8q2.63.26,4.33.27,2.17,0,2.17-2.4V229.34H670.59v19.79h-2.5Zm9.76,2.67,1.8,1.73q-3.9,3.33-7.3,5.86a22.5,22.5,0,0,0-1.57-2A53.34,53.34,0,0,0,677.85,229.71Zm-2.57,16.13V235.11h13.36v9h-11v1.77Zm11-3.9v-4.7h-8.56v4.7Zm-2.53-10.39,1.47-1.83q4.94,3.1,7.46,5l-1.67,2.1A84.84,84.84,0,0,0,683.71,231.54Z"/><path class="cls-2" d="M714.88,244.69H699.58V243.6L710.3,229h-9.71v-2.7h14.36v1.07L704.3,242h10.58Z"/><path class="cls-2" d="M717.29,232.29q0-6.83,2.26-10.34a7.34,7.34,0,0,1,6.56-3.51q8.19,0,8.19,13.22,0,6.53-2.31,10a7.35,7.35,0,0,1-6.47,3.46,6.88,6.88,0,0,1-6.09-3.28Q717.29,238.56,717.29,232.29Zm3.33-.15q0,10.28,5.21,10.28T731,232q0-10.81-5-10.81Q720.62,221.16,720.62,232.14Z"/><path class="cls-2" d="M753.72,244.69H738.93v-2.81h5.78V222.28L738.78,224v-3l9.18-2.66v23.54h5.76Z"/><path class="cls-2" d="M757.77,243a2.06,2.06,0,0,1,.61-1.52,2.16,2.16,0,0,1,3.7,1.52,2,2,0,0,1-.61,1.49,2.11,2.11,0,0,1-1.57.62,2.1,2.1,0,0,1-2.13-2.12Z"/><path class="cls-2" d="M779.64,243.85a9.75,9.75,0,0,1-5.1,1.27,8.44,8.44,0,0,1-6.43-2.57,9.27,9.27,0,0,1-2.43-6.65,10.19,10.19,0,0,1,2.62-7.3,9.21,9.21,0,0,1,7-2.77,9.59,9.59,0,0,1,4.33.9V230a7.14,7.14,0,0,0-4.33-1.43,5.86,5.86,0,0,0-4.55,1.94,7.41,7.41,0,0,0-1.76,5.17,7.08,7.08,0,0,0,1.66,5,5.79,5.79,0,0,0,4.47,1.8,7.42,7.42,0,0,0,4.5-1.57Z"/><path class="cls-2" d="M782.79,235.67a9.94,9.94,0,0,1,2.55-7.2,9.16,9.16,0,0,1,6.91-2.64,8.43,8.43,0,0,1,6.5,2.54,11.37,11.37,0,0,1-.16,14.07,8.8,8.8,0,0,1-6.75,2.68,8.67,8.67,0,0,1-6.6-2.6A9.54,9.54,0,0,1,782.79,235.67Zm3.33-.1a7.33,7.33,0,0,0,1.61,5,5.46,5.46,0,0,0,4.32,1.83,5.18,5.18,0,0,0,4.26-1.79,9.79,9.79,0,0,0,0-10.3,5.18,5.18,0,0,0-4.26-1.8,5.38,5.38,0,0,0-4.34,1.88A7.75,7.75,0,0,0,786.12,235.57Z"/><path class="cls-2" d="M832.23,244.69H829V234.11a7.52,7.52,0,0,0-.93-4.29,3.53,3.53,0,0,0-3.07-1.29,3.78,3.78,0,0,0-3.08,1.68,6.37,6.37,0,0,0-1.28,4v10.49h-3.26V233.77q0-5.25-4-5.25a3.73,3.73,0,0,0-3.09,1.6,6.51,6.51,0,0,0-1.23,4.08v10.48h-3.26V226.26H809v2.92H809a6.28,6.28,0,0,1,5.75-3.35,5.45,5.45,0,0,1,3.26,1,5.23,5.23,0,0,1,2,2.75,6.59,6.59,0,0,1,6.13-3.76q6.08,0,6.08,7.5Z"/></g><polygon class="cls-3" points="157.46 3.71 184.79 88.29 194.64 0 204.5 88.29 231.83 3.71 223.82 92.18 267.52 14.78 241.97 99.87 300.28 32.77 258.22 111.03 328.77 56.96 271.91 125.21 351.85 86.35 282.49 141.85 368.58 119.77 289.52 160.27 378.29 155.85 291.61 180.03 204.92 204.2 201.72 184.5 201.65 184.04 201.31 183.15 201.15 182.72 200.65 181.92 200.4 181.53 199.74 180.85 199.42 180.51 198.64 179.98 198.26 179.71 197.39 179.34 196.97 179.16 196.04 178.97 195.59 178.88 194.64 178.88 193.7 178.88 193.24 178.97 192.32 179.16 191.89 179.34 191.02 179.71 190.64 179.98 189.86 180.51 189.54 180.85 188.88 181.53 188.64 181.92 188.13 182.72 187.97 183.15 187.63 184.04 187.56 184.5 184.36 204.2 97.68 180.03 10.99 155.85 99.76 160.27 20.7 119.77 106.8 141.85 37.43 86.35 117.37 125.21 60.51 56.96 131.06 111.03 89 32.78 147.31 99.87 121.76 14.78 165.46 92.18 157.46 3.71"/><polygon class="cls-4" points="11.07 173.49 85.59 173.49 85.59 204.15 11.07 204.15 45.5 188.82 11.07 173.49"/><rect class="cls-5" x="67.96" y="186.7" width="264.61" height="53.6"/><path class="cls-4" d="M68.18,176.43,332.35,186.7a.22.22,0,0,1,.22.21V242.5a.22.22,0,0,1-.22.21H68.18a.22.22,0,0,1-.22-.21V186.91C68,186.79,68.05,176.43,68.18,176.43Z"/><path class="cls-4" d="M101.61,91a99.1,99.1,0,0,1,22-2.22l35.92,14.89s-.49-1.84.43-2.5,3.25-.15,3.78.1,11.66,4,11.6,4.88c0,.51-3.47,1-6.33.9a24,24,0,0,1-3.71-.64c12.7,6.85,44.46,22.08,45.12,27.54.84,6.94-7.36,13-7.36,13l-16.61,4.42s-13.88,5.47-17.46,5.47H135.35l-11.57,7.78-9.67,8.62-2.31,7.57a14.93,14.93,0,0,1-6.73-2.31c-4-2.31-15.77-3.58-15.77-3.58L78.15,178.1S67.22,188,66,189.67s-5,8.62-5,8.62c-4.46-5.61-6.84-14.52-7.25-24.8,0-.8,0-1.62,0-2.44,0-2.42.08-4.9.26-7.43.21-3,.55-6.15,1.05-9.27a109.13,109.13,0,0,1,6.54-23.89C68.78,112.7,81.71,95.12,101.61,91Z"/><path class="cls-4" d="M182.91,114.52a18,18,0,0,0-4.44-.62c-.78-.39-1-.47-1.13-1.48-4.44-1.27-7.61-5.2-12.24-6.89l.07,0,.34-.12,2.17-.6-2.17.6-.41.15.41-.15,2.17-.6.36-2.05-.36,2.05.36-2.05-2.9-1.57,2.9,1.57-2.9-1.57h-4.34s-.15,2.9-3.53.73c-8.91-3.47-8.57-10.49-12.43-19.58-.14-1.52-6.57-12.82-2.63-10.85,0-1.81-.62-4.2,2.31-4.2,0-2.51,1.52-10.67,3.61-11.68.71-1.42,1.92-2.23,2.19-4,.72-1.39,1.27-5.88,2.66-6.51,0-4.9,13.92-11.15,19.32-12,7.11-.39,15.77.55,22,4.27,4.32,1.89,8.77,1.68,13.08,3.61,2,1.12,3.91,2.25,5.86,3.43v.18C225.5,52.75,219.95,63,218,74.48c-.3,5.71-2,8,.22,13.44h.3c0,.72,2.91,3.4,3.71,4.2l.89,2a25,25,0,0,0-3.09.65,2.7,2.7,0,0,0,.59,2.84c1.39,3.35,2,9.17,5.68,10.4,1.66,0,4.62,1.49,6.81,2,.92-.91,8.16,2.42,9.13,2.66v.18c3.42,1.66,4.92,3.78,7.64,5.81v.18c2.31.35,8.75,1.29,10.06,3.52,9.33-3.12,15.34-15.68,16.92-24.57,5-28.23-38.15-45.73-37.73-45.75,22.33-1.48,47.75,18.49,52.64,41.14,3.07,14.23-3.14,25.08-17.72,34.69.59,1.86.52.63,2.45,1.71,9.6,2.5,24,6.14,33.34,9.43,2.76,1.61,4.66,2.24,7.1,4.68,5.48,3.42,9.12,8.6,13.76,13.24,3.34,5.73,4.75,23-.75,26.84-1.37,1.65-5.62,4.58-7.87,5-4.43,2.21-8.08-.59-13,.89-.41.41-6,1.69-6,2.13a24,24,0,0,0-4.74,1.24c-1.72.3-3.43.59-5.15.95-4.35-.26-11.84,0-15.69-1.89a50.32,50.32,0,0,1-6.51-2,40.31,40.31,0,0,0-13.38,2.21v.18c-5.94,1.58-12.5,3.15-18.41,1v-.18c-2.23-1.11-3.8-1.12-6-2.53v-.18c-.83-.41-1.6-.77-2.37-1.12v-.18c-5.81-2.9-9.78-2.13-16.28-2.13-11.38,0-23-1.1-34.41-1-2.94.45-6.28,2.82-9.06,4.2-9.34,1.75-27.7,9.8-37.94,9.8-6.75,1.15-9.83.44-15.45-2.37v-.18c-6.07,0-5.67-14.08-8.61-15v-.24A10.52,10.52,0,0,0,108,182v-.18c-5.4-1.35-18.17-7-25.16-7.37-7.46,6-15.89,16.17-21.88,24.2a20.24,20.24,0,0,1-3.67-5.95c8.78-10.91,13.28-15.82,39.13-27.58l-.2-3.7C71,170.17,60.94,178.21,54.94,184.88a66.19,66.19,0,0,1-1.08-8c15.59-12.9,38.43-22.54,65.81-24.36l3.38-1.93,1.31-.2h-.07l0-.13c-34.6.33-55.69,10.16-70.64,20.8,0-1.86,0-3.77.14-5.72,18-13.17,46.11-20.82,78.21-16.45,1.29-.67,2.32-1.22,3.33-1.64-39.71-7.44-63.64,2-81,11.2q.29-2.47.7-5c26.06-17.22,70.7-19.46,120,0l2.55-.76c-65.26-24.82-98.94-15.31-121.72-3.88.26-1.28.55-2.56.86-3.84,29-17.74,74.91-17.34,126.44,6.15l2.75-.72c-63.67-30.41-99.51-22.82-127.73-10.79q1-3.47,2.3-6.87c35.54-13,82.34-14,127.51,17.15q2-.49,4-.93c-47.53-36-85.83-37.14-122.68-33.89a69.73,69.73,0,0,1,5.75-7.58c47-.45,85,12.05,123.83,38.09.17-.32.37-.66.59-1-55-39.18-90.26-40.77-121.72-40a56.23,56.23,0,0,1,6.31-5.48c44.68,1.74,81.12,15.39,118,41.72.25-.32.49-.62.71-.89C152.45,101.76,118.39,96.7,88.53,96.16A48.75,48.75,0,0,1,100.83,91c39.93,4.93,72.8,19.52,105.22,44.72.28-.31.58-.62.87-.92C195.62,125.33,189.76,119.45,182.91,114.52Z"/><path class="cls-6" d="M164.15,133.19c-28.9-14.93-62.19-18.73-98.06-12.67q-1.81,3.29-3.34,6.76C90.65,118.16,122.2,117,164.15,133.19Z"/><path class="cls-6" d="M223,91.23a10.43,10.43,0,0,0,.77.89,1,1,0,0,0-.41-.89Z"/><path class="cls-6" d="M400.53,171.08H335.58c-.05-5.75-1.16-11.69-2.81-14.51-4.64-4.64-9.56-10.84-15-14.26-2.44-2.44-4.34-3.07-7.1-4.68-9.38-3.28-18.63-5.9-28.23-8.4-1.93-1.08-1.86.15-2.45-1.71,14.58-9.6,16.2-22,13.12-36.22-4.89-22.65-34.9-41.6-57.23-40.12-.42,0,45.28,18.8,40.28,47-1.57,8.89-6.56,19.91-15.89,23-1.31-2.22-8-3.67-10.32-4V117c-2.72-2-4.21-4.67-7.64-6.33v-.18c-1-.24-6.42-2.81-7.34-1.89a34.69,34.69,0,0,0-6-1.18c-3.68-1.23-5.83-6.54-7.22-9.89a2.7,2.7,0,0,1-.59-2.84,33.31,33.31,0,0,1,3.61-.65l-.89-2c-.8-.8-3.2-3.48-3.2-4.2h-.3c-4.53-11.26,4-23.33,1.89-33.74-1.06-5.16-6.54-9.64-14-14-4.31-1.94-8.76-2.49-13.08-4.38-6.24-3.72-15.67-3.89-22.79-3.49-5.4.84-19.83,7.35-19.83,12.25-1.4.64-1.94,5.12-2.66,6.51-.27,1.73-1.48,2.54-2.19,4-2.09,1-4.38,8.92-4.38,11.42-2.92,0-2.31,2.39-2.31,4.2-3.94-2,2.48,9.33,2.63,10.85,2.89,6.81,1.53,13.38,5.66,17.74.94.39,12,6.72,11.31,2.89a8.57,8.57,0,0,1,5.45,1.05c5.7,2.08,0,.9-1.54,2.14a1.13,1.13,0,0,0,.39,1.18c12.49,5.21,31.83,17.92,42.08,28.21-.3.3-.59.6-.87.92C173.63,110.48,140.76,95.88,100.83,91a48.75,48.75,0,0,0-12.3,5.21c29.86.55,63.93,5.6,114.32,43.74-.22.27-.46.57-.71.89-36.85-26.33-73.29-40-118-41.72a56.23,56.23,0,0,0-6.31,5.48c31.46-.81,66.7.78,121.72,40-.22.36-.42.7-.59,1-38.79-26-76.87-38.54-123.83-38.09A69.73,69.73,0,0,0,69.4,115c36.85-3.25,75.15-2.11,122.68,33.89q-2,.45-4,.93c-45.18-31.1-92-30.18-127.51-17.15q-1.27,3.4-2.3,6.87c28.22-12,64.06-19.61,127.73,10.79l-2.75.72c-51.53-23.49-97.4-23.89-126.44-6.15-.31,1.28-.6,2.56-.86,3.84,22.77-11.44,56.46-20.94,121.72,3.88l-2.55.76c-49.33-19.41-94-17.17-120,0q-.41,2.51-.7,5c17.33-9.19,41.25-18.64,81-11.2-1,.42-2,1-3.33,1.64-32.11-4.37-60.18,3.28-78.21,16.45-.1,1.94-.15,3.85-.14,5.72,14.95-10.64,36-20.47,70.64-20.8l0,.13h.07c-1.85.25-3.06,1.2-4.68,2.13-23.13,1.54-43,8.65-58,18.6l-7.91,4.59c-.05-1.54-.05-3.06-.1-4.59H0l39.6,17.74L.18,206.56H65.55v41H335v-41h65.37l-39.42-17.74ZM291.46,139.17c-.36-2.06-4.95-2.8-6.69-3.55V135a9.31,9.31,0,0,1,1.2-.11c-.41,0-.82.06-1.2.11l1.25-.11c7-.38,17.75,3.44,23.32,6.68v.18a4,4,0,0,0,.47.18v.18h.3c2.14,2.14,3.64,1.76,4.79,5.39,2.54,4.06,7.11,4.66,10.83,7.52a.89.89,0,0,0-.06.41,3.57,3.57,0,0,0-1.78-.65v-.18c-13-6-24.94-4-38.19-1.47-.56-.45,2-2.4,12.09-5.39a2.84,2.84,0,0,1,.06-.71L296.78,146c-5.09.1-8.59.17-13.32,1.48v.18c-5.34,1.25-10.07,6.1-13.79,9.83-.58,0-1,.06-1.48.06-.16-.31-.15-1.07.3-1.07a27.63,27.63,0,0,1,1.78-2.9h.18c.69-1.5,5.61-4.94,3.73-6a10.34,10.34,0,0,0-5.68,2.66c-.19.25-.83.21-.83.47v-.24a13.06,13.06,0,0,1,1.18-1.12h0l2-2.16h0c.2-.35.58-.41.88-.62v0C277.89,142.41,284.65,141.44,291.46,139.17ZM247.72,127.1c5.65-2.57,13-2.88,18-6.94,9-6.47,13.15-19.18,12.22-29.85C274.58,72.8,258.09,60.79,243.27,53c33,8.62,56,51.64,24.14,70.59l0,0a.12.12,0,0,0-.07.09c-3.13,1.85-6.81,2.51-10.31,3.29-3.18.71-7.1.47-9.53,2.55-2.14,3.37-.64,6.47-1.54,10.06-.53.35-1.18-.12-1.42-.18C243.33,135.83,244.52,129.49,247.72,127.1ZM249,180.48c-3,1.92-4.1,1.52-7.75,1.36-1.85-.18-8.43-.22-9.17-1.89h-.18c-1.29-3,1.92-5.11,4.68-3.73,3.32.05,13.63,1.89,15.09-2.49-.18-.18-.3-.36-.41-.47-3.46,0-17.18,1.22-18.76-1.83-.41-1.84.24-2.13,1.42-2.84,6.11-.19,12,.37,18-.83.53-.53,1.07-1.07,1.6-1.54v-1.36c1.3,0,2.72,1.48,3.08,3.37a14,14,0,0,0-4.32.3c-1.59,3.7,1.83,3.66,1.83,5h.24c0,.47,2.25,1.42,2.25,2.37v-.24h.18a7.18,7.18,0,0,0,.3.83,1,1,0,0,1-.71-.42c-2.4-2.4-7.53,1.88-4.14,4.14,1.48.59,3.91.71,3.31,3.67-1.84.92-1.19,3.77.74,4.13,2.68.5,4.34-1.51,5-.67-1.66,2.38-7.15,1.85-9.92,2-5.46,1.09-9.26-.41-14.68-.41-1.73-.11-4.66-2.16-3-4.2.86,0,3.75.17,4.38.59a75.43,75.43,0,0,0,10.3-.12C250.14,183.83,254.84,180.85,249,180.48ZM232,154.43a3.12,3.12,0,0,1,3.33.36c.68.55,1.89-.36,2.11.89,0,.16-2,.38-2.79,2-.92,1.84-2.41,5.15-3.89,5-1.65-.23-1.67-1.23-1.1-1.84C231.28,159.16,228,156.42,232,154.43ZM249,135.17c0-2.73.26-6.33,1.82-4-.05,2.27.32,6.38-.35,8.4l-1.24-.18a3.85,3.85,0,0,1-.18-1.72c0-.25,0-1.08,0-2.09,0-.29,0-.58,0-.87a13,13,0,0,1,.06-1.54l-.06,1.54Zm3.59,10c.59.18.89.71.3,1.6-.77,0-1.48.06-2.19.12-2.72-.12-5.39-.18-8.05-.24-.77-.77-.41-1.06-.06-1.6C245.88,145.09,249.2,145.15,252.57,145.21ZM243.4,155l.06-1.65a15.13,15.13,0,0,0-.06,1.64,19.15,19.15,0,0,1,0-2.85c-.05-.45-.15-1,.08-1a6.62,6.62,0,0,0-.05.79c.17-1.15.58-1.89,1.53-1.26.3.59.12,4.74.12,6-.83,1.18-1.6.12-1.66-.3a4,4,0,0,1-.05-1.18S243.4,155.07,243.4,155Zm7.28,5.34c1.66-.12,2.78-.53,3-2.49a6.48,6.48,0,0,1,.06-1.07,1.48,1.48,0,0,1,.47.06.72.72,0,0,1-.08.3l.08-.12c.88,0,3.77,3.33,4.68,4,.36.36.24.77.3,1.12l-.95-.77a4.5,4.5,0,0,1,.65.24c-2.39-1.19-7.69-2.25-6.87,1.89h.18l.18.71a59.43,59.43,0,0,1-14.8.89c-3-3.58-.15-5.06,2.72-5C247.12,160.18,250.2,159.89,250.68,160.36ZM222.92,107.5h.3c7.94,5.29,18,1.17,23.68,10.89a26,26,0,0,1-5.86,1.06l-.83-.18c0-1.12.71-1.66,1.12-2.31-.51-5.09-6.86-5.19-11-5.68C228.6,110.82,222.5,109.63,222.92,107.5Zm-4.32-17.64c1,1.21,2,2.42,3.14,3.55a30.29,30.29,0,0,1-3.49.47C217,92.67,215.56,86.75,215,85,216,85,217.88,88.62,218.59,89.87ZM206,98.57c0,1.62-1.86,1-1.36,2.66,2.94,5.4,6.82,2.61,10.6,4.5a3.58,3.58,0,0,1-.71,1.42,36.72,36.72,0,0,0-6.45,3.61c-1.95-3.9-2.55-3.85-7-3.85-1.11-2.22-.36-7.93.59-9.83.06-1.42.06-5.5.77-6.21C203,93.41,203.61,97.1,206,98.57Zm-.42-24.14a2.59,2.59,0,0,1,.59-.25,3.51,3.51,0,0,1,.41,2l-.84.24C204.91,75.72,205.51,74.79,205.63,74.43Zm7.58,21.47a21.43,21.43,0,0,0,4.08,2.37,9,9,0,0,1-1.72,2.37C214.75,99.34,212.91,96.91,213.21,95.9ZM158,41a22.07,22.07,0,0,1,5.75-3.57v-.18c5.41-4.32,26.35-1.48,33.5,2.6V40c2.46,0,10.18,7.06,11,8.23.76.32,1,.09,1.24-.08,1.33-1.11-3.46-5.06-4-5.89,8.09,3.23,7.68,3.83,10.66,12.3,4.06,11.56,1.06,18.24.62,18.13-1.9-.47-4.7-19.63-6.3-23.15-3.38-.84.65,6.75.65,8.17a30.76,30.76,0,0,1,1.18,7.52c-1.45.22-3.13-3.38-4.91-1.6A4,4,0,0,0,208.3,67c1.14.53,4.13,10.49,3.43,11.9-2.37-1.18-2.6-4-3.55-5.21-2.36-6.24-5.44-8.69-9.23-13.5-1.28-2.38-2.51-4.74-3.85-7.1-2.78-1.6-5.5-3.2-8.23-4.74v-.18c-1.42-1.18-2.84-2.37-4.2-3.55-2.73-4-11.5-3.68-15.51-4.1-2-1.55-5.51-.12-7.54.6C158.34,41.53,157.79,41,158,41Zm22.09,9.57a20.47,20.47,0,0,1-3.73-2.6C179,48,179.25,48.12,180.06,50.56ZM149.7,62.34c-.38,3.36-2.5,4-2,8.35.06.47,2.31,4.36,1.07,4.2-8.2-1.06,1.35-20.26,3-22.31.88-2.93,1.74-6.63,4.5-8.35a30.6,30.6,0,0,0,4,.09c-5.61,4.86-7.34,6.73-10.2,13.82C149.6,59.41,149.86,60.93,149.7,62.34Zm18.23,38.24c-.71,0-1.42.06-2.07.12-3.78-.7-2.3-5.22-5.74-1.78-6.56,0-4.14-5.25-6-9.06-1.52-2.39-5-9.36-2.55-11.84.81-2.15.21-3.65,2.07-5.21,1.18-3.67-.36-3.49,4.38-3.79,3.39.48,2.79.13,3.79-2.6,2.38-6-4.73-6.28-8-3.79,0,.36-.65,1.24.41,1.78,1.16-.58,4.79-1.78,4.79.41a13.11,13.11,0,0,1-3.55.41c-.83.41-1.13,1-1.78,1.66a1.5,1.5,0,0,0-.41-.12c-2.37-5.92,2.12-16,7.28-19.24-1.08,5.82,0,8.42,2.7,13.13-.35-2.53.06-6.54-.1-7.27a6.9,6.9,0,0,0,3.43,2.66c.41.12,5.15,1.72,5.15-.12-.36-.36-.47-.18-.83-.3-2.75-1.84-7.69-5.09-5.68-9.12,2-2.52,4.74-4.72,5.21.59.89,2.24.85,2.58,2.72,4.08,4.27.25,5.64,3.24,9.17,5.33A22.3,22.3,0,0,0,184.68,60c1.36,1.12,4.08,2.84,5,5.27a4.17,4.17,0,0,1,.83.06c2.06-4.12-1.94-6.36-2.72-9.47,4.62,2.31,4.59,11.16,4.74,15.39-.12,1.56-1.64,10.12,1.36,10.12a11.85,11.85,0,0,1,1.83-6.51c1.94-1.3,1.11-9.41,2-9.41A27,27,0,0,0,199,71.63c1.07-.84,2.54-2.65,3.73-1.89,0,3.31-6.75,4.86-3.67,9.29v.41a5.57,5.57,0,0,1-2,.83c-1.32,1.32-1.1,2.25-1.3,4.08-1.3,1.3-2.78.3-4.14,1.3-1.07,1.83-2.07,3.67-3.08,5.5-1.19,3.08-1.71,3-4.74,3C178.59,96.38,173.26,98.51,167.93,100.58Zm28.94-3.43a29.22,29.22,0,0,1-.71,5c-1.6.06-3.14.12-4.68.24v-.24C193.26,100.46,195,98.8,196.87,97.15Zm-17.76,14.07c6.17.35,33,9.62,36.34,16.06.06.81-2.38,1.61-3.43,2.37C204,122.3,189.44,114.08,179.11,111.21Zm5.57,45.3c0-.3,4.44-1.66,5.33-1.66v-.24c1.07-.24,2.13-.47,3.26-.65v-.24a7.44,7.44,0,0,0,2.43-.65c3.48-.76,6.9-1.37,10.42-1.89a20.29,20.29,0,0,1,3.26-1.66v-.24c1.3-.29,1.6-2.37,1.72-3.25-1-2.13-2.41-.91-2.9-1.89,0-4.43,2.72-9.31,7.1-10.89,2.61,0,2.26-2.26,2.13-4.2-.36-2.13,1.25-7.47,3.49-4.32-1,1-2.83,1-1.3,3.32,2.62,1.31,4.36.37,2.43,3.85,0,.71,0,1.42.06,2.19,1.89,1.41,5.33-1,6.87-2.31.18-4-.12-3.55,3.08-5.27a.86.86,0,0,1,.12-.41c-1.81-3.13-3.79-.41-6.27-.41-2.06-2.74-3.2-3.59-6.27-4.62-.65-.27-1.12-2.78.06-2.84,5,.69,13.14,5.44,15.8,9.41,0,3-1.71,4.82-4.14,6,0,1.18-.53,3,0,4.62l2.49-1.42c.59-.59,1.12-3.67,2.66-2.13a8.32,8.32,0,0,1-.18,2.25c-.81,1.61-8.7,5-7,7.46,2.83.81,3.3-.7,5.56-1.84v-.18h.47a1.15,1.15,0,0,0,.06.41c0,2.49-.22,2.83-1.18,5.09-.58,0-.92-.68-1.72-.95a19.89,19.89,0,0,0-2.66,1.89v.18c-1.19.6-3.67,2.28-3.67,3.67.65.18,1.36.41,2.07.65-.3,1-2.37,2.19-3,3.37-1.12.77-1.6,2.31-2.66,3.37-5-5-4,3.14-6.87,3.14v.18c-.89.53-1.78,1.12-2.66,1.72v.18a10,10,0,0,0-1.36.77v.24c-.89,0-1.36.59-1.83.83a23.93,23.93,0,0,0-7,2.78v.18c-1.13.56-10.12,5.08-10.12,5.92-.76,0-1.79,1.13-2.66,1.3,0,.71-25.05,13.56-29.3,14.21-5,1.58-6.65,2.22-8.39,2.35,1.07-.71,5.06-3.33,2.47-4.36-4.34.05-11.78-1-15.57,1.36,0,.81-4.31.87-5.21,1.77-1.45,3.26-5.27.18-6.93,3.49-2.27.29-9.51,1.81-10-1.48,0-2.37.21-4.53.12-7-2.73-5.47,4.82-6.58,6.63-10.36.48,0,1.09-2.33,1.24-2.72a4.11,4.11,0,0,0-1.12-3.31c-2,.22-2.8,1.14-4.38,2.13-.3-.18-.59-.29-.83-.41.11-2.15,2.29-2.9,4.14-3.43,1-.9,4.54-5,5-5,1.19-2.37,4.78-3.41,7.16-4.2,6-2.54,11.94-1.54,18.29-1,2.37-.12,4.74-.18,7.16-.24,4.2,0,8.64.89,13.38.89C177.46,159.35,181,157.34,184.68,156.51Zm42.38,14.56a.45.45,0,0,1-.06-.24c-1-2-4.81-4-2.54-5.86,1,.35,4.89,5.08,2.54,5.86C227.86,170.55,227.89,171.07,227.06,171.07Zm-9.65,4.79c-.23-1-1.34-.58-.71-1.84,1.89,0,8.45,6.92,7.93,8.47h-.24C222,180.68,220.07,177.19,217.41,175.87Zm.28,5.44c-1,1.6-5.11-3.29-6.55-4.37C211.14,175.3,218.62,179.76,217.69,181.3Zm1.46-12.63c-.1-.27.43-.56.5-.48.74.74,7,6.53,7.13,8.92-.07,0-.18.81-.54.48C224.45,176,219.66,170.1,219.14,168.67Zm-8.65,14.85c-.36.19-5.3-3.56-5.57-3.63C204.92,177,211.88,182.79,210.5,183.52Zm-7.29.86c-1,.62-2.68-.84-3.14-2.29C202.29,182.43,204.25,183.75,203.21,184.38Zm-83.75-31.77a15.39,15.39,0,0,1-7.12,1.92Zm-9.77,16.46a39.13,39.13,0,0,0,2-7.87c0-5.46,0-5.67,5.92-6,5.6-1.49,9.71-3.23,15.63-3.37,0-.25,8.79-.9,10.89-1.78a6.1,6.1,0,0,1-.06-1c3.44,0,7.33,1.46,10.59,2.54,9.58,1.25,9,2.24,10.34,2.61-3.49.24-15.86-.15-25.08-.22-4,0-7-.63-9.12,0-2,.55-3.13,2-2,3.33-1.12,1.12-4.2,1.42-5.27,1.6-.89.59-1.72,1.18-2.55,1.77-7.44,1.75-5.8,6.51-9.94,10.65-1.24,2.91-.23,1.4-1.18,5.55A50.15,50.15,0,0,1,109.69,169.06Zm-3.37,14.8v.24a1.39,1.39,0,0,1,.37.19H74.18c2.7-2.49,5.45-4.83,8.15-7,7,.38,17.46,4.75,22.86,6.1v.18A10.71,10.71,0,0,1,106.31,183.86ZM65.55,201.74H22.38l29-12.92-29-12.92H53.75c.13,2.06,1.1,8.54,1.19,9,6-6.67,16-14.71,41.28-23.42l.2,3.7c-25.85,11.76-30.35,16.67-39.13,27.58A20.24,20.24,0,0,0,61,198.68c1.43-1.92,3-3.8,4.59-5.63Zm264.61,41H70.36V189.1h39.15c2,4.46,4.36,10.26,8.22,10.26v.18c5.62,2.81,8.7,3.52,15.45,2.37a29.57,29.57,0,0,0,3.74-.27s8.44-1.69,11.24-2.47h0c8.43-2.34,17.34-5.5,23-6.56,2.05-1,4.41-2.59,6.7-3.51h49.34a21.21,21.21,0,0,1,3.45,1.38v.18c.77.36,1.54.71,2.37,1.12V192c1.72,1.12,3.24,2,4.91,2.88a22.39,22.39,0,0,0,10.85,1.71c1.14-.13,2.28-.32,3.41-.55,0,0,7.61-3,12.72-3.56h.05a32.14,32.14,0,0,1,6.06-.66,50.45,50.45,0,0,0,6.51,2c7.17,2.42,22.06.31,27.19-1,.71-.22,1.56-.47,2.33-.69h0a9.75,9.75,0,0,0,2.09-.74c5.41-1.62,10.91.36,16.51-2.27h4.55Zm-.59-67.49c-.24,2.43-1.53,2.56-3.37,3.79-3.37.31-6.52.81-9.17,3v.18l-.53.18v.18a48.46,48.46,0,0,1-12.78,4.08c-9.31,3.57-12.79,3.45-23.2,2.78-4.06-1.56-15.16-.78-16.06-2-1.87-2.48,16.8-3.08,7.95-8.45,0-2.54,2.13-3.23.3-5.8-3.06-1.22-3.71,2-4.79,2-.38-2.63-2.84-3,.24-4.62.8-1-.13-2.45.65-2.84,16.58-5.92,31.28-16.36,51.2-10.83v.18c.59.24,1.18.53,1.83.83v.18c.72,0,1.93,1.68,2.25,2.25.41,1.13,3.08,3.28,3.08,3.37,1.69.51,3.3,2.49,4.38,3.79C331.42,169.85,331.35,173.44,329.58,175.22Zm48.57,26.52H335V184.29h-2.72c1.71-1.59,2.68-4.73,3.09-8.39h42.8l-29,12.92Z"/><path class="cls-6" d="M301,179.71V180c-.5,0-4.16,1.63-4.38,2.07a63.43,63.43,0,0,1-9.23,3.67v.18l-5.15,1.07c-1.1.73.53,1.36.83,1.66,4.9-.91,9.47-1.85,14.26-3.14a9,9,0,0,1,3.67-1.3V184c.47-.18,3.43-1.24,3.43-1.6a9.58,9.58,0,0,0,3.31-1.07C307,178.09,303.36,178.56,301,179.71Z"/><path class="cls-6" d="M249,136.15l0-1c0,.15,0,.29,0,.43S249,136,249,136.15Z"/><path class="cls-6" d="M162.42,88.92c-1.6-.18-4.14-.65-4.14,1.3a5,5,0,0,0,3.14,3.14c2.19-.24,2.78-.59,2.78-3.2.71-.06,1.84.18,2.55-.65C167.46,86.64,163.39,88.47,162.42,88.92Z"/><path class="cls-6" d="M183.55,61.93c-1.42,1.12-5.09.36-6.33-.06a15.9,15.9,0,0,0-5.74.53c-.3-.95,1.66-1.6,2.31-1.89,1.62,0,3.43,1.07,4.74-.24a2.92,2.92,0,0,1-.06-.71c-3.15-1.73-4.44-1.53-7.58-.24-1.84.41-3.14.71-4,2.37-.06.89-.41,2.19,1.36,2.6.31,2.8,1.1,1.87,3,3.79A2.91,2.91,0,0,0,173.55,70c.47-.06,2-.12,2.43-.95,0-3-1.76-1.14-2.54-2.55,0-2.92,10.48,1.67,10.48-2.78C183.85,62.11,183.73,61.93,183.55,61.93Z"/><path class="cls-6" d="M168.58,83c-3.08-.28-7.72-1.44-10.42.36-3.25.65-4.38-1.6-4.38,2.19.8,2,1.29,2.37,3.2,2.37,1.72-1.12.59-2.9,3.2-2.9a36.24,36.24,0,0,0,5.33-.41c.71.3,2.72,1.18,3.67-.24C169.17,83.35,169,83.18,168.58,83Z"/><path class="cls-6" d="M170.77,74.71c-1.87-1.1-1.67-3.51-4.56-2.72-.45,1.12-.1,3.53-.65,4.08-1.51-.38-8.7-2.56-8.7.47-1.74,2.75-.62,4,2.19,4.44.52-1.57.68-1.48,2.25-1.48a17.33,17.33,0,0,0,3.37-1.13c3.45,0,2.46-5,6.1-.24,1,1.72,1.72,3.55,3.85,5.33a3.5,3.5,0,0,1,1.24.89c.94-.37,1,.15,1-1C175.14,80.86,174.09,75.24,170.77,74.71Z"/><path class="cls-6" d="M170.53,86.37c-1.6,1.36-1.48.18-1.48,2.72a9.62,9.62,0,0,1,1.07.59,13.63,13.63,0,0,0,4.62-3c.06-.83.12-1.66.24-2.49C172.3,82.78,170.53,82.55,170.53,86.37Z"/><path class="cls-6" d="M243.51,155c-.06,0-.09.05-.11.12,0,.52.05,1,.05,1.18A9.13,9.13,0,0,1,243.51,155Z"/><path class="cls-6" d="M146.8,183.21c-.72,2.15.61,3.33,2.6,3.91,6.06-.22,24.62-2.66,27.09-8.49,0-1,.28-2-1.22-2-5.52,3.22-16.48,5.3-22.61,5.74C150.35,182.38,148.51,182.38,146.8,183.21Z"/><path class="cls-6" d="M243.46,151.92c0,.08,0,.17,0,.25a3.18,3.18,0,0,1,0,.32Q243.45,152.2,243.46,151.92Z"/><path class="cls-6" d="M253.69,157.87a8.11,8.11,0,0,0,.45-.71C254,157.38,253.84,157.62,253.69,157.87Z"/><path class="cls-6" d="M79.13,210.08v1.56h23l1.71-1.73,4,4.32-2.29,1.56a25.57,25.57,0,0,1-3.72,4.5l-2-1a16.78,16.78,0,0,0,1.71-3.8H78.84a22.72,22.72,0,0,1-.29,4q-.14,1.21-1,.69a11,11,0,0,1-3-1.38q-.86-.52-.29-1.56A23.83,23.83,0,0,0,77,209.39ZM93.7,198.33h5v4.49H101l1.71-2.42,4.29,4.32-1,1.9H98.71v3.46h-5v-3.46H87.42v3.46h-5v-3.46h-7l-.71-3.8h7.72v-4.49h5v4.49H93.7Zm-2,19.36a18.2,18.2,0,0,1-.29,3.28h4.86l1.43-2.25,5.14,3.8-1.29,1.73a89.47,89.47,0,0,1-.86,9.85q0,4-5.86,4.67-.14-2.94-3.72-3.46l-.29-2.25q5,.35,4.86-1.38a42.21,42.21,0,0,0,.71-6.91H90.7q-3,10.37-14.43,13.83l-1.43-2.42q8.15-4,10.29-11.41h-7l-.57-3.8h8.29a26.77,26.77,0,0,0,.29-4Z"/><path class="cls-6" d="M123.14,219.42a46.66,46.66,0,0,1,5.14,5.88,1.16,1.16,0,0,1,.14,1.73,15.31,15.31,0,0,1-2.86,3.46q-.86.87-1.14-.35a3.44,3.44,0,0,0-.14-.86,2.46,2.46,0,0,0-.29-.86,75.8,75.8,0,0,1-11.72,4.84l-1.57-6.74a4.55,4.55,0,0,0,3.14-2.59,35.67,35.67,0,0,0,2.29-7.78h-4.57l-.71-4h12.58l1.43-1.9,3.86,3.8-1.14,2.07h-8l2.57.86a79.33,79.33,0,0,1-5.29,8.82l6-1a45.78,45.78,0,0,0-1.57-4.49Zm-10.72-16.94h9.72l1.29-1.56,3.57,3.63-.86,1.9h-13ZM127,207.83h3.57v-9.68h4.86v9.68h2.29l1.57-2.07,4.72,4.32-1,1.21q-.29,14.87-.71,21.44.43,4.49-6.29,4.67a3,3,0,0,0-3-3.29l-.29-2.25h1.72a15.66,15.66,0,0,0,1.86.17q1,0,1.14-1.9.43-6.05.71-18.33h-2.72V212q.14,16.77-9,26.45L124,236.88q6.86-9,6.57-24.55v-.52h-3.14Z"/><path class="cls-6" d="M174.73,237.91A49.3,49.3,0,0,1,164,217.52q-3,13.14-15.72,20.74l-1.86-2.59q13.15-9.5,13-28.7v-6.91h5.72V207q0,1.73-.14,3.46,4.43,14.7,15.58,21.78Q178.59,233.25,174.73,237.91Z"/><path class="cls-6" d="M186.59,199.36h5v1.38h15.58L209,198.5l4.29,3.28c.38.35.43.69.14,1l-1,1.38v10.55h-5v-1.21h-4q.28,2.59.43,4.84h6L211.6,216l4.14,4-1.29,2.42h-10q2,9.33,6.43,9.51.86,0,1.29-1.56a32.68,32.68,0,0,0,.86-3.8l2.29.86q-.72,4.5,1.43,5-1.57,6.22-5.15,5.88-9.57-.35-12.29-15.9h-7.72v6.74q3.29-1.21,6.15-2.59l1,2.77a63,63,0,0,1-10.86,9.16L185,233.07a4.52,4.52,0,0,0,1.57-3.29Zm5,5.36v4.84h15.86v-4.84Zm7.29,13.66q-.14-2.25-.43-4.84h-6.86v4.84Z"/><path class="cls-6" d="M220.32,230.65a12.53,12.53,0,0,0,1.71-.17h1.43V217.86h-3l-.57-3.63h28.72l1.57-1.9,3.71,3.28-1,2.25H236.47v10.89a6.47,6.47,0,0,0,2.14-.35l.57,2.94-1.29.52q-1,.35-1.43.52v6.22h-4.57v-4.67q-4.86,1.38-10.29,2.59Zm5-32h4.86v1h13.29l1.43-1.9,4.72,3.11-1,1.73v10.55h-4.86v-.86H230.18v.86h-4.86ZM228,217.86v1.9h3.86v-1.9Zm0,4.84v1.9h3.86v-1.9Zm0,7.26a14.16,14.16,0,0,0,2.57-.35,7.33,7.33,0,0,1,1.29-.17v-1.9H228Zm2.14-27.31v1.9h13.58v-1.9Zm0,4.84v1.9h13.58v-1.9Zm7,12.45h10.15l1.57-1.73,3.86,4a.86.86,0,0,1-.14,1l-1.14.86a28.45,28.45,0,0,1-3.14,6.4,19.78,19.78,0,0,0,5.15,1.21,26.86,26.86,0,0,0-2.72,6.74,31.31,31.31,0,0,1-5.72-4.15,19.1,19.1,0,0,1-6.57,4.32l-1.86-2.25a22.58,22.58,0,0,0,6-4.67,23.49,23.49,0,0,1-3.29-8.3h-1.71Zm4.72,3.46a14.48,14.48,0,0,0,3,4.67,39.13,39.13,0,0,0,1.86-4.67Z"/><path class="cls-6" d="M281.19,232.38h2.29q1.29.17,1.86-1.73.57-2.07,1-4.15l1.86.52q-.72,5,1.71,5.36-1.15,5.88-4.29,5.36h-6.72q-4.29-.17-4.43-5.36V218.21h-3.14q.43,15.21-11.72,20.57l-1.57-1.9q8.29-6.57,8.15-18.67h-7.86l-.86-4h13.43V198.67h5.29v15.56h7.72l2-2.59,4.43,4.49-1,2.07h-9.72v12.27Q279.62,232.39,281.19,232.38ZM261.9,201.61a30.32,30.32,0,0,1,5.72,3.46q.86.52.57,1.9a16.34,16.34,0,0,1-1.43,3.63q-1,1.73-2,0a40.39,40.39,0,0,0-4.29-7.09Zm16.15,9a36.86,36.86,0,0,0,5.29-9.85l4.57,3.8a43.89,43.89,0,0,1-8,7.78Z"/><path class="cls-6" d="M323.35,237.22a31,31,0,0,1-11.15-9.34v10.72h-5v-10.2a30.89,30.89,0,0,1-12.86,8.47l-1.43-2.59a42.09,42.09,0,0,0,11.15-10h-9.43l-.57-3.8H307.2V216.3h5v4.15h8.86l1.57-2.25,3.86,3.8-1.14,2.25H313.92a37.28,37.28,0,0,0,12.72,7.09A18.84,18.84,0,0,0,323.35,237.22Zm-10.72-38.9h4.72v4h3.72l1.57-2.42,4.29,3.8-1.29,2.42h-8.29v3.28h-4.72v-3.28h-5.72v3.28H302.2v-3.28h-8.15l-.71-3.8h8.86v-4h4.71v4h5.72Zm-13.15,11.24v.52a3.28,3.28,0,0,0-.14.69h20.72l1.57-1.9,4,3.46q.71.52,0,1l-2.29,1.9q-1.58,2.07-2.86,4l-1.71-.52.86-4.15H299.2a23.16,23.16,0,0,0-.29,3.46.88.88,0,0,1-1.14.86,14.63,14.63,0,0,1-3.14-1.38q-.72-.34-.14-1.56a37.43,37.43,0,0,0,3-6.92Z"/></g></g></svg>