<svg xmlns="http://www.w3.org/2000/svg" xmlns:xlink="http://www.w3.org/1999/xlink" viewBox="0 0 831.07 201.21"><defs><style>.cls-1{fill:none;}.cls-2{fill:#1d2088;}.cls-3{fill:#1861ae;}.cls-4{clip-path:url(#clip-path);}.cls-5{fill:#1a6133;}.cls-6{fill:#e8e6da;}.cls-7{clip-path:url(#clip-path-2);}.cls-8{fill:#468ccb;}.cls-9{clip-path:url(#clip-path-3);}.cls-10{fill:#fff;}</style><clipPath id="clip-path"><polygon class="cls-1" points="223.4 170.54 290.49 64.87 348.39 175.82 223.4 170.54"/></clipPath><clipPath id="clip-path-2"><polygon class="cls-1" points="463.23 155.47 552.71 67.95 583.7 189.21 463.23 155.47"/></clipPath><clipPath id="clip-path-3"><ellipse class="cls-1" cx="95.27" cy="96.93" rx="95.27" ry="96.93"/></clipPath></defs><title>资源 2</title><g id="图层_2" data-name="图层 2"><g id="z01"><g id="css4"><path class="cls-2" d="M300,37.76H256.32V12.85H300Zm.55,60.89a16.51,16.51,0,0,0,5,10.52q8.3,8.3,31.55,8.3,8.3-.55,26-1.66-18.27,1.66,31.55-2.21v27.68H317.76q-19.92,0-33.21-13.28l-17.72,13.28-10-37.09,17.72-16.61V72.08H256.32V45.51H300.6Zm15.5,8.3q25.45-.55,29.34-10.52a22.94,22.94,0,0,0,1.66-7.19q-3.88,2.78-6.64,5-5.54,3.32-11.07,6.09L305.58,82.6q19.37-5,24.91-7.75a127.12,127.12,0,0,0,14.39-10,24.3,24.3,0,0,1-1.66-2.77q-6.64,5-11.07,7.75a93.15,93.15,0,0,1-17.72,7.2l-8.85-14.95-1.66-3.32a94.78,94.78,0,0,0,21-6.09q4.43-2.21,9.41-5l-1.66-2.21a132,132,0,0,1-22.14,7.75l-10-17.71q15.49-3.32,24.91-7.75H307.8V2.89h83.58V27.8h-15.5l16.61,17.71q-6.09,7.2-11.62,12.73-3.32,3.32-7.75,7.2,15.49,11.08,21.59,16.05l-11.63,24.36q-6.64-5.53-14.39-11.07-3.88,24.36-31.55,24.91ZM359.83,27.8q-4.44,3.32-8.3,6.64a62.09,62.09,0,0,1,7.75,9.41,47.1,47.1,0,0,0,6.09-6.09q3.32-3.32,9.41-10Z"/><path class="cls-2" d="M398,129.65q11.63-23.79,17.72-54.25L438.43,87l-12.18,52ZM406.88,40l39.3,10-8.86,27.68L401.9,71ZM519.8,107.51a88.9,88.9,0,0,0,16.61,7.19l-14.95,24.36q-21-8.86-31.55-22.7Q480.49,104.74,475,81.49h-3.88v24.36q4.43-1.66,9.41-3.32l7.75,22.14A189.2,189.2,0,0,0,470,133a52.74,52.74,0,0,0-5.54,3.32,55,55,0,0,0-6.64,3.32l-10.52-8.3V14.51l-5,27.12L403,34.44,408,4l39.3,9.41,24.35.55V4.55h27.13V14h29.89V81.49h-8.3l11.62,10Q524.78,100.87,519.8,107.51ZM471.09,39.42H504.3V35H471.09ZM504.3,59.9v-5H471.09v5.54Zm-1.66,29.34q3.87-4.43,6.64-7.75h-10Z"/><path class="cls-2" d="M539.73,36.1V12.85H550.8L552.46,4h17.71l-1.11,8.86h30.45V36.1H565.19l-3.32,22.7h4.43V41.64h21V58.8h10V82h-10v6.09L599,87l1.66,20.48a93.89,93.89,0,0,0,11.07-14.39q6.64-10.51,6.64-26V61.56a135.08,135.08,0,0,1-10,11.07L591.76,47.72q6.09-3.87,14.95-16.05,6.64-9.41,12.18-28.78h24.91a114.24,114.24,0,0,1-3.32,16.05h33.76V43.3q-2.78,18.83-14.95,37.09l-14.95-8.86q4.43,17.16,10.52,26t22.7,21L661,140.72q-17.72-13.84-25.46-25.46a28,28,0,0,0-1.66-2.77q-8.3,14.94-24.91,28.78l-16.06-26,3.32-3.32L587.33,113v27.12h-21V115.26l-23.8,2.21-3.32-24.91,27.12-2.21V82H539.73l7.75-45.94Zm91.34,7.2-.55.55q3.32-5-3.88,6.09h17.71v3.87a52.82,52.82,0,0,0,4.43-10.52Z"/><path class="cls-2" d="M731.25,8.42q-3.32,12.18-6.64,22.14v109H695.27V81.49L692,85.36,684.2,49.94Q698.59,29.47,708,1.23Zm-1.11,94.65V73.19h34.32V54.92H752.84a90.32,90.32,0,0,1-7.19,18.27l-21-18.82q8.3-15.49,12.18-43.73H760l-1.66,14.94h6.09V2.34h24.91V25.58h24.36V54.92H789.37V73.19h27.68v29.89H789.37v36.53H764.46V103.08Z"/></g><g id="css3"><path class="cls-3" d="M288,178.77q-1.1,1.37-1.8,2.4a29.39,29.39,0,0,1-5.63-3.46v1.83h-8V183h13v2.17H257.12V183h13v-3.46h-8.06v-1.81a37.37,37.37,0,0,1-5.53,3.85,21.73,21.73,0,0,0-1.73-2.1,31.78,31.78,0,0,0,8.88-6.33h-8.51V171h6.63V159.81h-5.6v-2.16h5.6V154h2.5v3.6h14.29V154h2.5v3.6h5.6v2.16h-5.6V171h6.53v2.17h-8.76A24.09,24.09,0,0,0,288,178.77Zm-17.89-4.56h2.5v3.23h7.63a30,30,0,0,1-4.35-4.3h-9.18a43.73,43.73,0,0,1-4.33,4.3h7.73Zm-5.83-12.06h14.29v-2.33H264.32Zm0,4.4h14.29v-2.33H264.32Zm0,4.43h14.29v-2.36H264.32Z"/><path class="cls-3" d="M288.57,173A45.52,45.52,0,0,0,294,159.21h-4.33V157H301.5v2.2h-5.28a59.1,59.1,0,0,1-2.1,7.33h6.08v17H298V181.3h-3.67v3.16h-2.2V171.25q-.88,1.83-1.9,3.51A15.35,15.35,0,0,0,288.57,173Zm9.43-4.3h-3.67v10.49H298Zm19.79,2v-1.57H313v13.39h5.43v-9.6h2.47v13.49h-2.47v-1.5H302.66v-12h2.47v9.6h5.36V169.07h-7.23V157.84h2.47v8.83h4.77V154.38H313v12.29h4.83v-8.79h2.47v12.76Z"/><path class="cls-3" d="M326.62,169.8h4.06v-6.73H333v6.73h4.56V172H333v5q2.79-.32,5.43-.65c-.11.84-.19,1.62-.23,2.33q-2.47.27-5.2.6v7.53h-2.33V179.6l-7.19.93-.3-2.5q3.87-.37,7.5-.75V172h-6.56v-2.1q1.85-4.7,3.13-8.5h-3.53v-2.2H328q.93-3,1.45-5.33l2.67.53q-.78,2.43-1.58,4.8h6.95v2.2h-7.7Q328.23,165.74,326.62,169.8Zm17.69-6.33h2.6q0,3.46-.14,6.4,2.62,11.39,9.86,14.69l-2.1,2.3q-6.07-3.36-8.68-12-1.78,7.55-9.58,12.21c-.51-.73-1.08-1.47-1.7-2.2q9.1-5,9.63-14.86Q344.31,168,344.3,163.48ZM336,167.14a49.85,49.85,0,0,0,6.09-13.26l2.63.7q-.92,2.6-1.9,4.93H355.9v2.23l-3.46,6.43-2.6-.57,3-5.8h-11a59.32,59.32,0,0,1-3.57,6.73Q337.28,167.91,336,167.14Z"/><path class="cls-3" d="M357.07,170.8a57.89,57.89,0,0,0,7.4-16.46l2.73.8q-1.23,3.88-2.67,7.28v24.4H361.9V167.92a49.5,49.5,0,0,1-3.63,5.78A28.82,28.82,0,0,0,357.07,170.8Zm10,2h11.56v-8.43h-6.34a45.07,45.07,0,0,1-3,6.4,16.24,16.24,0,0,0-2.2-1.76,44,44,0,0,0,4.66-12.43l2.7.77q-.65,2.48-1.4,4.7h5.53v-7.73h2.67V162h8v2.33h-8v8.43h9.06v2.33h-9.06V186.8h-2.67V175.14H367.1Z"/><path class="cls-3" d="M391.38,175h24.69v2.53H391.38Zm5.63-5.2v-2.53l1.33-13.16h2.77l-.52,5.3h23.64v2.53H400.36l-.51,5.33h22q-.4,7-.9,13-.47,3.53-2,4.77t-5,1.2q-3.28,0-7.58-.13-.2-1.13-.57-2.9,5.07.37,7.56.4,4.46.3,4.86-3.5.44-4.43.73-10.33Z"/><path class="cls-3" d="M425.6,182.4h15.46v-8.5H429.26v-2.57h11.79v-7.7h-8.79a39.83,39.83,0,0,1-5.1,7.23,18.53,18.53,0,0,0-1.8-2.33,38.77,38.77,0,0,0,7.43-12.86l2.73.73q-.88,2.43-2,4.66h7.48V154h2.87v7.06h12.73v2.57H443.92v7.7h11.79v2.57H443.92v8.5h14.53v2.5H425.6Z"/><path class="cls-3" d="M463,167.51h15.76q2.25-3.31,4-6.6l2.57,1.63q-1.76,2.48-3.7,5h9.86v2.33H465.71v2.33a31.91,31.91,0,0,1-.9,8.79,15.24,15.24,0,0,1-3.53,6.06q-.87-1.07-1.8-2.26a11.8,11.8,0,0,0,2.77-4.93,30.17,30.17,0,0,0,.76-7.66ZM460.28,158h15.21q-.73-1.37-1.61-2.8l2.47-1.23q1.08,1.77,2.21,4h13.84v2.36H460.28Zm7,4.26,2.2-1.47q2.07,2.6,3.67,4.93l-2.36,1.63A55.11,55.11,0,0,0,467.24,162.24Z"/><path class="cls-3" d="M495.29,161.61h10.8q.1-3.67.13-7.46h2.9q-.07,3.53-.17,7.46h15.29q-.4,13-.77,18.42-.43,5.73-6.13,5.8-2.73,0-6.6-.13c-.09-.87-.26-1.92-.5-3.17h.1q4.33.4,6.73.37,3.23-.07,3.57-3.56.4-6,.6-15H508.88q-.3,8.68-2.77,13.06-2.63,4.86-10.26,9.36-.93-1.2-2-2.53,7.23-4.06,9.49-8.19,2.35-3.75,2.63-11.69h-10.7Z"/><path class="cls-3" d="M528.17,172.17h14.76V158.24H529.67v-2.57h29.45v2.57H545.73v13.93h14.86v2.56H545.73V187h-2.8V174.73H528.17Zm3.2-10.26,2.1-1.47a87.46,87.46,0,0,1,6.43,8.43l-2.36,1.76A93.56,93.56,0,0,0,531.37,161.91Zm17,6.93a54.48,54.48,0,0,0,6.6-8.53l2.5,1.6a93.76,93.76,0,0,1-7,8.66Z"/><path class="cls-3" d="M585.44,158.48q5.23,4.86,9.9,10l-2.36,2q-1.33-1.56-2.7-3.08-15,.63-22.85,1.08a22.49,22.49,0,0,0-3.53.53l-1.1-2.87a9.69,9.69,0,0,0,2.76-1.57A66.58,66.58,0,0,0,576,153.75l2.5,1.53a88.88,88.88,0,0,1-10.43,10.43q10.21-.32,20.09-.73-2.28-2.48-4.63-4.83Zm4.9,13.22v15.13h-2.73v-2.2H569.28v2.2h-2.73V171.7Zm-2.73,2.47H569.28v8.06h18.32Z"/><path class="cls-3" d="M598.37,156h9.39v27q0,3.33-3.1,3.33-1.7,0-3.16-.1-.14-1-.4-2.37a19.27,19.27,0,0,0,2.93.27,1.21,1.21,0,0,0,1.37-1.37v-7.66h-4.66q.1,7.66-2.77,11.69a11.2,11.2,0,0,0-1.83-1.87q2.23-3.43,2.23-9.73Zm7,2.17h-4.66v6.4h4.66Zm-4.66,14.89h4.66v-6.43h-4.66Zm9.79-16.92H627q-.17,2.7-.27,4.26-.27,5.16-5.26,5.06l-4.3-.13q-.2-1.3-.43-2.63,2.47.3,4.43.37a2.66,2.66,0,0,0,3.1-2.73q.1-.87.17-1.9H613.06V168h14.06v2a24.35,24.35,0,0,1-4.88,10.18,19.93,19.93,0,0,0,7.15,4.25q-1.13,1.33-1.93,2.4a24.18,24.18,0,0,1-6.95-4.76,27.75,27.75,0,0,1-6,4.43q-.63-1.1-1.37-2.2a23.17,23.17,0,0,0,5.75-4.06,22.31,22.31,0,0,1-4.28-10h-1.57v16.56h-2.53Zm14,14.06H616.9a19.7,19.7,0,0,0,3.68,8.16A21.07,21.07,0,0,0,624.48,170.2Z"/><path class="cls-3" d="M639.74,153.75l2.5,1.07q-.75,1.23-1.57,2.4h18v2.23a27,27,0,0,1-8.48,6.58,48.06,48.06,0,0,0,13.34,2.52q-1.07,1.5-1.87,2.8a50.44,50.44,0,0,1-14.56-3.88,73.21,73.21,0,0,1-16,4.45q-.57-1-1.37-2.33a71.13,71.13,0,0,0,14.49-3.63,20.51,20.51,0,0,1-6.08-5.48,46.13,46.13,0,0,1-5.71,5.68q-1-1.07-1.83-1.8A33.16,33.16,0,0,0,639.74,153.75Zm-7,19.52h9.7q.23-1.62.4-3.6h2.7q-.21,2-.45,3.6h13.44q-.33,6-.63,8.36-.53,4.7-5.6,4.73-2,0-5.9-.13-.2-1.23-.5-2.76,3.83.33,6.33.37a2.88,2.88,0,0,0,3.13-2.86q.3-2.5.43-5.33H644.69q-1.77,8-12.41,11.63-.77-1.1-1.63-2.23,9.56-3.1,11.33-9.39h-9.23Zm22.39-13.86H640.26a20.85,20.85,0,0,0,6.9,5.3A29.16,29.16,0,0,0,655.13,159.41Z"/><path class="cls-3" d="M664.49,157.71H679.7q-.64-1.18-1.55-2.63l2.57-1.17q1,1.72,2.1,3.8h14.36v2.36H664.49Zm2.43,7.13H675q-1.15-1.68-2.5-3.33l2-1.37q1.6,1.87,2.9,3.46l-1.8,1.23h7.56a43.31,43.31,0,0,0,3.1-4.56l2.53,1.47q-1.58,1.88-2.67,3.1h8.29V182.3q0,4.2-3.83,4.23-2.07,0-4.66,0a25.4,25.4,0,0,0-.5-2.8q2.63.26,4.33.27,2.17,0,2.17-2.4V167.14H669.42v19.79h-2.5Zm9.76,2.67,1.8,1.73q-3.9,3.33-7.3,5.86a22.5,22.5,0,0,0-1.57-2A53.34,53.34,0,0,0,676.69,167.51Zm-2.57,16.13V172.9h13.36v9h-11v1.77Zm11-3.9V175h-8.56v4.7Zm-2.53-10.39,1.47-1.83q4.94,3.1,7.46,5l-1.67,2.1A84.84,84.84,0,0,0,682.55,169.34Z"/><path class="cls-3" d="M713.72,182.48H698.42V181.4l10.71-14.64h-9.71v-2.7h14.36v1.07l-10.65,14.66h10.58Z"/><path class="cls-3" d="M716.13,170.09q0-6.83,2.26-10.34a7.34,7.34,0,0,1,6.56-3.51q8.19,0,8.19,13.22,0,6.53-2.31,10a7.35,7.35,0,0,1-6.47,3.46,6.88,6.88,0,0,1-6.09-3.28Q716.13,176.35,716.13,170.09Zm3.33-.15q0,10.28,5.21,10.28t5.13-10.44q0-10.81-5-10.81Q719.46,159,719.46,169.94Z"/><path class="cls-3" d="M752.56,182.48H737.77v-2.81h5.78V160.08l-5.93,1.72v-3l9.18-2.66v23.54h5.76Z"/><path class="cls-3" d="M756.61,180.77a2.06,2.06,0,0,1,.61-1.52,2.16,2.16,0,0,1,3.7,1.52,2,2,0,0,1-.61,1.49,2.11,2.11,0,0,1-1.57.62,2.1,2.1,0,0,1-2.13-2.12Z"/><path class="cls-3" d="M778.48,181.65a9.75,9.75,0,0,1-5.1,1.27,8.44,8.44,0,0,1-6.43-2.57,9.27,9.27,0,0,1-2.43-6.65,10.19,10.19,0,0,1,2.62-7.3,9.21,9.21,0,0,1,7-2.77,9.59,9.59,0,0,1,4.33.9v3.23a7.14,7.14,0,0,0-4.33-1.43,5.86,5.86,0,0,0-4.55,1.94,7.41,7.41,0,0,0-1.76,5.17,7.08,7.08,0,0,0,1.66,5,5.79,5.79,0,0,0,4.47,1.8,7.42,7.42,0,0,0,4.5-1.57Z"/><path class="cls-3" d="M781.63,173.47a9.94,9.94,0,0,1,2.55-7.2,9.16,9.16,0,0,1,6.91-2.64,8.43,8.43,0,0,1,6.5,2.54,11.37,11.37,0,0,1-.16,14.07,8.8,8.8,0,0,1-6.75,2.68,8.67,8.67,0,0,1-6.6-2.6A9.54,9.54,0,0,1,781.63,173.47Zm3.33-.1a7.33,7.33,0,0,0,1.61,5,5.46,5.46,0,0,0,4.32,1.83,5.18,5.18,0,0,0,4.26-1.79,9.79,9.79,0,0,0,0-10.3,5.18,5.18,0,0,0-4.26-1.8,5.38,5.38,0,0,0-4.34,1.88A7.75,7.75,0,0,0,785,173.37Z"/><path class="cls-3" d="M831.07,182.48H827.8V171.9a7.52,7.52,0,0,0-.93-4.29,3.53,3.53,0,0,0-3.07-1.29,3.78,3.78,0,0,0-3.08,1.68,6.37,6.37,0,0,0-1.28,4v10.49h-3.26V171.57q0-5.25-4-5.25a3.73,3.73,0,0,0-3.09,1.6,6.51,6.51,0,0,0-1.23,4.08v10.48h-3.26V164.06h3.26V167h.07a6.28,6.28,0,0,1,5.75-3.35,5.45,5.45,0,0,1,3.26,1,5.23,5.23,0,0,1,2,2.75,6.59,6.59,0,0,1,6.13-3.76q6.08,0,6.08,7.5Z"/></g><ellipse id="css2" class="cls-2" cx="135.67" cy="96.93" rx="95.27" ry="96.93"/><g class="cls-4"><polygon class="cls-5" points="223.4 170.54 290.49 64.87 348.39 175.82 223.4 170.54"/><rect class="cls-6" x="296.86" y="70.49" width="1.69" height="112.56" transform="translate(-24.93 102.22) rotate(-18.71)"/><rect class="cls-6" x="258.18" y="145.09" width="90.55" height="1.69" transform="translate(31.29 344.19) rotate(-61.75)"/><rect class="cls-6" x="263" y="84.11" width="1.69" height="104.97" transform="translate(-8.31 17.41) rotate(-3.72)"/><polygon class="cls-6" points="259 183.16 215.88 116.46 217.3 115.54 260.42 182.24 259 183.16"/><rect class="cls-6" x="309.98" y="60.39" width="1.69" height="133.24" transform="translate(27.29 306.88) rotate(-54.62)"/></g><g class="cls-7"><polygon class="cls-5" points="463.23 155.47 552.71 67.95 583.7 189.21 463.23 155.47"/><rect class="cls-6" x="544.73" y="73.58" width="1.69" height="112.56" transform="translate(-9.92 52.82) rotate(-5.49)"/><rect class="cls-6" x="501.52" y="148.98" width="90.55" height="1.69" transform="translate(72.44 460.34) rotate(-48.53)"/><rect class="cls-6" x="457.89" y="130.83" width="104.97" height="1.69" transform="translate(296.26 613.32) rotate(-80.5)"/><polygon class="cls-6" points="495 175.91 468.28 101.1 469.87 100.53 496.59 175.33 495 175.91"/><rect class="cls-6" x="557.45" y="66.48" width="1.69" height="133.24" transform="translate(51.47 402.43) rotate(-41.4)"/></g><g id="css1"><ellipse class="cls-8" cx="95.27" cy="96.93" rx="95.27" ry="96.93"/></g><g class="cls-9"><rect class="cls-10" x="54.71" y="13.03" width="6" height="21.38" transform="translate(0.14 47.76) rotate(-45.01)"/><rect class="cls-10" x="108.95" y="56.93" width="21.38" height="6" transform="translate(-7.34 102.13) rotate(-44.99)"/><rect class="cls-10" x="5.39" y="120.94" width="94.14" height="6" transform="translate(-72.28 73.42) rotate(-45.01)"/><rect class="cls-10" x="30.77" y="27.83" width="56.62" height="6"/><rect class="cls-10" x="84.39" y="38.31" width="69.37" height="6"/><rect class="cls-10" x="82.68" y="49.53" width="103.53" height="6"/><rect class="cls-10" x="82.68" y="65.39" width="73.92" height="6"/><rect class="cls-10" x="57.69" y="114.47" width="98.91" height="6"/><rect class="cls-10" x="21.3" y="155.77" width="162.08" height="6"/><rect class="cls-10" x="84.39" y="3.75" width="6" height="36.36"/><rect class="cls-10" x="82.68" y="65.39" width="6" height="42.58"/><rect class="cls-10" x="97.93" y="118.58" width="6" height="82.63"/><rect class="cls-10" x="105.32" y="65.39" width="6" height="42.58"/><rect class="cls-10" x="127.95" y="65.39" width="6" height="42.58"/><rect class="cls-10" x="150.59" y="65.39" width="6" height="42.58"/><rect class="cls-10" x="116.26" y="3.75" width="6" height="37.56"/><rect class="cls-10" x="147.75" y="14.72" width="6" height="26"/><rect class="cls-10" x="1.13" y="93.67" width="84.43" height="6" transform="matrix(0.99, -0.16, 0.16, 0.99, -14.54, 7.94)"/><rect class="cls-10" x="40.41" y="32.28" width="6" height="62.89" transform="translate(-7.17 5.53) rotate(-6.73)"/><rect class="cls-10" x="35.74" y="59.19" width="62.68" height="6" transform="translate(-6.27 116.85) rotate(-79.53)"/></g></g></g></svg>