<svg xmlns="http://www.w3.org/2000/svg" xmlns:xlink="http://www.w3.org/1999/xlink" viewBox="0 0 785.73 193.01"><defs><style>.cls-1{fill:#1d2088;}.cls-2{fill:#1861ae;}.cls-3{fill:url(#radial-gradient);}.cls-4{fill:url(#radial-gradient-3);}.cls-5{fill:url(#radial-gradient-4);}.cls-6{fill:url(#radial-gradient-5);}.cls-7{fill:url(#radial-gradient-6);}.cls-8{fill:url(#radial-gradient-7);}.cls-9{fill:url(#radial-gradient-8);}.cls-10{fill:url(#radial-gradient-9);}.cls-11{fill:#950000;}.cls-12{fill:url(#radial-gradient-10);}.cls-13{fill:url(#radial-gradient-12);}.cls-14{fill:url(#radial-gradient-13);}.cls-15{fill:url(#radial-gradient-14);}.cls-16{fill:url(#radial-gradient-15);}.cls-17{fill:url(#radial-gradient-16);}.cls-18{fill:#fff;}</style><radialGradient id="radial-gradient" cx="83.4" cy="491.28" r="1.22" gradientTransform="matrix(36.34, 0, 0, -36.34, -2893.09, 17851.05)" gradientUnits="userSpaceOnUse"><stop offset="0" stop-color="#fff"/><stop offset="0.08" stop-color="#f8ccc8"/><stop offset="0.15" stop-color="#f1a199"/><stop offset="0.21" stop-color="#ed867d"/><stop offset="0.25" stop-color="#ec7c72"/><stop offset="0.49" stop-color="#be1924"/><stop offset="0.61" stop-color="#af1a21"/><stop offset="0.84" stop-color="#861c1a"/><stop offset="0.91" stop-color="#7a1d18"/><stop offset="1" stop-color="#7a1d18"/></radialGradient><radialGradient id="radial-gradient-3" cx="82.52" cy="491.22" r="1.23" gradientTransform="matrix(37.35, 0, 0, -37.35, -3015.78, 18383.24)" xlink:href="#radial-gradient"/><radialGradient id="radial-gradient-4" cx="85.28" cy="489.81" r="1.23" gradientTransform="matrix(33.4, 0, 0, -33.4, -2682.86, 16561.48)" xlink:href="#radial-gradient"/><radialGradient id="radial-gradient-5" cx="76.89" cy="492.13" r="1.23" gradientTransform="matrix(54.12, 0, 0, -54.12, -4043.17, 26778.9)" xlink:href="#radial-gradient"/><radialGradient id="radial-gradient-6" cx="76.89" cy="492.12" r="1.23" gradientTransform="matrix(54.12, 0, 0, -54.12, -4043.18, 26780.02)" xlink:href="#radial-gradient"/><radialGradient id="radial-gradient-7" cx="76.89" cy="492.13" r="1.23" gradientTransform="matrix(54.12, 0, 0, -54.12, -4043.59, 26781.82)" xlink:href="#radial-gradient"/><radialGradient id="radial-gradient-8" cx="71.13" cy="493.62" r="1.23" gradientTransform="matrix(97.09, 0, 0, -97.09, -6768.29, 48046.02)" xlink:href="#radial-gradient"/><radialGradient id="radial-gradient-9" cx="81.22" cy="491.04" r="1.23" gradientTransform="matrix(40.64, 0, 0, -40.64, -3186.8, 20102.17)" xlink:href="#radial-gradient"/><radialGradient id="radial-gradient-10" cx="99.92" cy="486.17" r="1.23" gradientTransform="matrix(19.13, 0, 0, -19.13, -1888.18, 9446.72)" xlink:href="#radial-gradient"/><radialGradient id="radial-gradient-12" cx="86.52" cy="489.65" r="1.23" gradientTransform="matrix(30.5, 0, 0, -30.5, -2605.2, 15072.44)" xlink:href="#radial-gradient"/><radialGradient id="radial-gradient-13" cx="94.24" cy="487.39" r="1.23" gradientTransform="matrix(22.62, 0, 0, -22.62, -2122.07, 11195.92)" xlink:href="#radial-gradient"/><radialGradient id="radial-gradient-14" cx="68.63" cy="494.32" r="1.23" gradientTransform="matrix(146.25, 0, 0, -146.25, -9936.71, 72330.11)" xlink:href="#radial-gradient"/><radialGradient id="radial-gradient-15" cx="73.57" cy="493.05" r="1.23" gradientTransform="matrix(70.97, 0, 0, -70.97, -5186.34, 35081.71)" xlink:href="#radial-gradient"/><radialGradient id="radial-gradient-16" cx="79.11" cy="491.78" r="1.22" gradientTransform="matrix(45.12, 0, 0, -45.12, -3548.74, 22259.82)" xlink:href="#radial-gradient"/></defs><title>资源 1</title><g id="图层_2" data-name="图层 2"><g id="z01"><g id="css4"><path class="cls-1" d="M254.72,41.86H211V17h43.73Zm.55,60.89a16.51,16.51,0,0,0,5,10.52q8.3,8.3,31.55,8.3,8.3-.55,26-1.66-18.27,1.66,31.55-2.21v27.68H272.43q-19.92,0-33.21-13.28L221.5,145.37l-10-37.09,17.72-16.61V76.18H211V49.61h44.28Zm15.5,8.3q25.45-.55,29.34-10.52a22.94,22.94,0,0,0,1.66-7.19q-3.88,2.78-6.64,5-5.54,3.32-11.07,6.09L260.25,86.7q19.37-5,24.91-7.75a127.12,127.12,0,0,0,14.39-10,24.3,24.3,0,0,1-1.66-2.77q-6.64,5-11.07,7.75a93.15,93.15,0,0,1-17.72,7.2l-8.85-14.95-1.66-3.32a94.78,94.78,0,0,0,21-6.09q4.43-2.21,9.41-5l-1.66-2.21a132,132,0,0,1-22.14,7.75l-10-17.71q15.49-3.32,24.91-7.75H262.46V7H346V31.9h-15.5l16.61,17.71q-6.09,7.2-11.62,12.73-3.32,3.32-7.75,7.2,15.49,11.08,21.59,16.05l-11.63,24.36q-6.64-5.53-14.39-11.07-3.88,24.36-31.55,24.91ZM314.5,31.9q-4.44,3.32-8.3,6.64a62.09,62.09,0,0,1,7.75,9.41A47.1,47.1,0,0,0,320,41.86q3.32-3.32,9.41-10Z"/><path class="cls-1" d="M352.69,133.75Q364.32,110,370.4,79.5L393.1,91.13l-12.18,52Zm8.86-89.67,39.3,10L392,81.71l-35.43-6.64Zm112.92,67.53a88.9,88.9,0,0,0,16.61,7.19l-14.95,24.36q-21-8.86-31.55-22.7-9.42-11.62-14.95-34.87h-3.88v24.36q4.43-1.66,9.41-3.32l7.75,22.14a189.2,189.2,0,0,0-18.27,8.3,52.74,52.74,0,0,0-5.54,3.32,55,55,0,0,0-6.64,3.32L402,135.41V18.61l-5,27.12-39.3-7.2,5-30.45L402,17.51l24.35.55V8.65h27.13v9.41h29.89V85.59H475l11.62,10Q479.45,105,474.47,111.61ZM425.76,43.52H459V39.09H425.76ZM459,64V59H425.76v5.54Zm-1.66,29.34q3.87-4.43,6.64-7.75H454Z"/><path class="cls-1" d="M494.39,40.2V17h11.07l1.66-8.86h17.71L523.73,17h30.45V40.2H519.86l-3.32,22.7H521V45.74h21V62.89h10V86.14H542v6.09l11.63-1.11,1.66,20.48a93.89,93.89,0,0,0,11.07-14.39Q573,86.71,573,71.2V65.66a135.08,135.08,0,0,1-10,11.07L546.43,51.82q6.09-3.87,14.95-16.05Q568,26.37,573.55,7h24.91A114.24,114.24,0,0,1,595.14,23h33.76V47.4Q626.13,66.22,614,84.48L599,75.63q4.43,17.16,10.52,26t22.7,21l-16.61,22.14Q597.9,131,590.16,119.36a28,28,0,0,0-1.66-2.77q-8.3,14.94-24.91,28.78l-16.06-26,3.32-3.32L542,117.14v27.12H521V119.36l-23.8,2.21-3.32-24.91L521,94.45v-8.3H494.39l7.75-45.94Zm91.34,7.2-.55.55q3.32-5-3.88,6.09H599v3.87a52.82,52.82,0,0,0,4.43-10.52Z"/><path class="cls-1" d="M685.92,12.52q-3.32,12.18-6.64,22.14v109H649.94V85.59l-3.32,3.87L638.87,54q14.39-20.47,23.8-48.71Zm-1.11,94.65V77.29h34.32V59H707.51a90.32,90.32,0,0,1-7.19,18.27l-21-18.82q8.3-15.49,12.18-43.73H714.7L713,29.68h6.09V6.43H744V29.68H768.4V59H744V77.29h27.68v29.89H744v36.53H719.13V107.18Z"/></g><g id="css3"><path class="cls-2" d="M242.7,182.87q-1.1,1.37-1.8,2.4a29.39,29.39,0,0,1-5.63-3.46v1.83h-8v3.46h13v2.17H211.79V187.1h13v-3.46h-8.06v-1.81a37.37,37.37,0,0,1-5.53,3.85,21.73,21.73,0,0,0-1.73-2.1,31.78,31.78,0,0,0,8.88-6.33h-8.51v-2.17h6.63V163.91h-5.6v-2.16h5.6v-3.6H219v3.6h14.29v-3.6h2.5v3.6h5.6v2.16h-5.6v11.16h6.53v2.17h-8.76A24.09,24.09,0,0,0,242.7,182.87Zm-17.89-4.56h2.5v3.23h7.63a30,30,0,0,1-4.35-4.3h-9.18a43.73,43.73,0,0,1-4.33,4.3h7.73ZM219,166.24h14.29v-2.33H219Zm0,4.4h14.29v-2.33H219Zm0,4.43h14.29v-2.36H219Z"/><path class="cls-2" d="M243.24,177.07a45.52,45.52,0,0,0,5.43-13.76h-4.33v-2.2h11.83v2.2h-5.28a59.1,59.1,0,0,1-2.1,7.33h6.08v17h-2.2V185.4H249v3.16h-2.2V175.35q-.88,1.83-1.9,3.51A15.35,15.35,0,0,0,243.24,177.07Zm9.43-4.3H249v10.49h3.67Zm19.79,2v-1.57h-4.83v13.39h5.43V177h2.47v13.49h-2.47V189H257.33V177h2.47v9.6h5.36V173.17h-7.23V161.94h2.47v8.83h4.77V158.48h2.47v12.29h4.83V162h2.47v12.76Z"/><path class="cls-2" d="M281.28,173.9h4.06v-6.73h2.33v6.73h4.56v2.2h-4.56v5q2.79-.32,5.43-.65c-.11.84-.19,1.62-.23,2.33q-2.47.27-5.2.6V191h-2.33V183.7l-7.19.93-.3-2.5q3.87-.37,7.5-.75V176.1h-6.56V174q1.85-4.7,3.13-8.5h-3.53v-2.2h4.25q.93-3,1.45-5.33l2.67.53q-.78,2.43-1.58,4.8h6.95v2.2h-7.7Q282.9,169.84,281.28,173.9ZM299,167.57h2.6q0,3.46-.14,6.4,2.62,11.39,9.86,14.69l-2.1,2.3q-6.07-3.36-8.68-12-1.78,7.55-9.58,12.21c-.51-.73-1.08-1.47-1.7-2.2q9.1-5,9.63-14.86Q299,172.07,299,167.57Zm-8.33,3.67A49.85,49.85,0,0,0,296.74,158l2.63.7q-.92,2.6-1.9,4.93h13.09v2.23l-3.46,6.43-2.6-.57,3-5.8h-11a59.32,59.32,0,0,1-3.57,6.73Q291.94,172,290.64,171.24Z"/><path class="cls-2" d="M311.73,174.9a57.89,57.89,0,0,0,7.4-16.46l2.73.8q-1.23,3.88-2.67,7.28v24.4h-2.63V172a49.5,49.5,0,0,1-3.63,5.78A28.82,28.82,0,0,0,311.73,174.9Zm10,2h11.56v-8.43H327a45.07,45.07,0,0,1-3,6.4,16.24,16.24,0,0,0-2.2-1.76,44,44,0,0,0,4.66-12.43l2.7.77q-.65,2.48-1.4,4.7h5.53v-7.73H336v7.73h8v2.33h-8v8.43H345v2.33H336v11.66h-2.67V179.24H321.76Z"/><path class="cls-2" d="M346,179.07h24.69v2.53H346Zm5.63-5.2v-2.53L353,158.18h2.77l-.52,5.3H378.9V166H355l-.51,5.33h22q-.4,7-.9,13-.47,3.53-2,4.77t-5,1.2q-3.28,0-7.58-.13-.2-1.13-.57-2.9,5.07.37,7.56.4,4.46.3,4.86-3.5.44-4.43.73-10.33Z"/><path class="cls-2" d="M380.26,186.5h15.46V178H383.93v-2.57h11.79v-7.7h-8.79a39.83,39.83,0,0,1-5.1,7.23,18.53,18.53,0,0,0-1.8-2.33,38.77,38.77,0,0,0,7.43-12.86l2.73.73q-.88,2.43-2,4.66h7.48v-7.06h2.87v7.06h12.73v2.57H398.59v7.7h11.79V178H398.59v8.5h14.53V189H380.26Z"/><path class="cls-2" d="M417.67,171.61h15.76q2.25-3.31,4-6.6l2.57,1.63q-1.76,2.48-3.7,5h9.86v2.33H420.37v2.33a31.91,31.91,0,0,1-.9,8.79,15.24,15.24,0,0,1-3.53,6.06q-.87-1.07-1.8-2.26a11.8,11.8,0,0,0,2.77-4.93,30.17,30.17,0,0,0,.76-7.66Zm-2.73-9.53h15.21q-.73-1.37-1.61-2.8L431,158q1.08,1.77,2.21,4h13.84v2.36H414.94Zm7,4.26,2.2-1.47q2.07,2.6,3.67,4.93l-2.36,1.63A55.11,55.11,0,0,0,421.9,166.34Z"/><path class="cls-2" d="M450,165.71h10.8q.1-3.67.13-7.46h2.9q-.07,3.53-.17,7.46h15.29q-.4,13-.77,18.42-.43,5.73-6.13,5.8-2.73,0-6.6-.13c-.09-.87-.26-1.92-.5-3.17h.1q4.33.4,6.73.37,3.23-.07,3.57-3.56.4-6,.6-15H463.55q-.3,8.68-2.77,13.06-2.63,4.86-10.26,9.36-.93-1.2-2-2.53,7.23-4.06,9.49-8.19,2.35-3.75,2.63-11.69H450Z"/><path class="cls-2" d="M482.84,176.27h14.76V162.34H484.33v-2.57h29.45v2.57H500.39v13.93h14.86v2.56H500.39V191.1h-2.8V178.83H482.84ZM486,166l2.1-1.47a87.46,87.46,0,0,1,6.43,8.43l-2.36,1.76A93.56,93.56,0,0,0,486,166Zm17,6.93a54.48,54.48,0,0,0,6.6-8.53l2.5,1.6a93.76,93.76,0,0,1-7,8.66Z"/><path class="cls-2" d="M540.11,162.58q5.23,4.86,9.9,10l-2.36,2q-1.33-1.56-2.7-3.08-15,.63-22.85,1.08a22.49,22.49,0,0,0-3.53.53l-1.1-2.87a9.69,9.69,0,0,0,2.76-1.57,66.58,66.58,0,0,0,10.43-10.76l2.5,1.53a88.88,88.88,0,0,1-10.43,10.43q10.21-.32,20.09-.73-2.28-2.48-4.63-4.83ZM545,175.8v15.13h-2.73v-2.2H524v2.2h-2.73V175.8Zm-2.73,2.47H524v8.06h18.32Z"/><path class="cls-2" d="M553,160.11h9.39v27q0,3.33-3.1,3.33-1.7,0-3.16-.1-.14-1-.4-2.37a19.27,19.27,0,0,0,2.93.27,1.21,1.21,0,0,0,1.37-1.37v-7.66H555.4q.1,7.66-2.77,11.69a11.2,11.2,0,0,0-1.83-1.87q2.23-3.43,2.23-9.73Zm7,2.17H555.4v6.4h4.66Zm-4.66,14.89h4.66v-6.43H555.4Zm9.79-16.92h16.46q-.17,2.7-.27,4.26-.27,5.16-5.26,5.06l-4.3-.13q-.2-1.3-.43-2.63,2.47.3,4.43.37a2.66,2.66,0,0,0,3.1-2.73q.1-.87.17-1.9H567.72v9.6h14.06v2a24.35,24.35,0,0,1-4.88,10.18,19.93,19.93,0,0,0,7.15,4.25q-1.13,1.33-1.93,2.4a24.18,24.18,0,0,1-6.95-4.76,27.75,27.75,0,0,1-6,4.43q-.63-1.1-1.37-2.2a23.17,23.17,0,0,0,5.75-4.06,22.31,22.31,0,0,1-4.28-10h-1.57v16.56h-2.53Zm14,14.06h-7.58a19.7,19.7,0,0,0,3.68,8.16A21.07,21.07,0,0,0,579.15,174.3Z"/><path class="cls-2" d="M594.41,157.85l2.5,1.07q-.75,1.23-1.57,2.4h18v2.23a27,27,0,0,1-8.48,6.58,48.06,48.06,0,0,0,13.34,2.52q-1.07,1.5-1.87,2.8a50.44,50.44,0,0,1-14.56-3.88,73.21,73.21,0,0,1-16,4.45q-.57-1-1.37-2.33A71.13,71.13,0,0,0,598.94,170a20.51,20.51,0,0,1-6.08-5.48,46.13,46.13,0,0,1-5.71,5.68q-1-1.07-1.83-1.8A33.16,33.16,0,0,0,594.41,157.85Zm-7,19.52h9.7q.23-1.62.4-3.6h2.7q-.21,2-.45,3.6H613.2q-.33,6-.63,8.36-.53,4.7-5.6,4.73-2,0-5.9-.13-.2-1.23-.5-2.76,3.83.33,6.33.37a2.88,2.88,0,0,0,3.13-2.86q.3-2.5.43-5.33H599.36q-1.77,8-12.41,11.63-.77-1.1-1.63-2.23,9.56-3.1,11.33-9.39h-9.23Zm22.39-13.86H594.92a20.85,20.85,0,0,0,6.9,5.3A29.16,29.16,0,0,0,609.8,163.51Z"/><path class="cls-2" d="M619.16,161.81h15.21q-.64-1.18-1.55-2.63l2.57-1.17q1,1.72,2.1,3.8h14.36v2.36H619.16Zm2.43,7.13h8.09q-1.15-1.68-2.5-3.33l2-1.37q1.6,1.87,2.9,3.46l-1.8,1.23h7.56a43.31,43.31,0,0,0,3.1-4.56l2.53,1.47q-1.58,1.88-2.67,3.1h8.29V186.4q0,4.2-3.83,4.23-2.07,0-4.66,0a25.4,25.4,0,0,0-.5-2.8q2.63.26,4.33.27,2.17,0,2.17-2.4V171.24H624.09V191h-2.5Zm9.76,2.67,1.8,1.73q-3.9,3.33-7.3,5.86a22.5,22.5,0,0,0-1.57-2A53.34,53.34,0,0,0,631.35,171.61Zm-2.57,16.13V177h13.36v9h-11v1.77Zm11-3.9v-4.7h-8.56v4.7Zm-2.53-10.39,1.47-1.83q4.94,3.1,7.46,5l-1.67,2.1A84.84,84.84,0,0,0,637.22,173.44Z"/><path class="cls-2" d="M668.38,186.58H653.09V185.5l10.71-14.64h-9.71v-2.7h14.36v1.07L657.8,183.88h10.58Z"/><path class="cls-2" d="M670.8,174.19q0-6.83,2.26-10.34a7.34,7.34,0,0,1,6.56-3.51q8.19,0,8.19,13.22,0,6.53-2.31,10A7.35,7.35,0,0,1,679,187a6.88,6.88,0,0,1-6.09-3.28Q670.8,180.45,670.8,174.19Zm3.33-.15q0,10.28,5.21,10.28t5.13-10.44q0-10.81-5-10.81Q674.13,163.06,674.13,174Z"/><path class="cls-2" d="M707.23,186.58H692.44v-2.81h5.78V164.18l-5.93,1.72v-3l9.18-2.66v23.54h5.76Z"/><path class="cls-2" d="M711.28,184.86a2.06,2.06,0,0,1,.61-1.52,2.16,2.16,0,0,1,3.7,1.52,2,2,0,0,1-.61,1.49,2.11,2.11,0,0,1-1.57.62,2.1,2.1,0,0,1-2.13-2.12Z"/><path class="cls-2" d="M733.15,185.75a9.75,9.75,0,0,1-5.1,1.27,8.44,8.44,0,0,1-6.43-2.57,9.27,9.27,0,0,1-2.43-6.65,10.19,10.19,0,0,1,2.62-7.3,9.21,9.21,0,0,1,7-2.77,9.59,9.59,0,0,1,4.33.9v3.23a7.14,7.14,0,0,0-4.33-1.43,5.86,5.86,0,0,0-4.55,1.94,7.41,7.41,0,0,0-1.76,5.17,7.08,7.08,0,0,0,1.66,5,5.79,5.79,0,0,0,4.47,1.8,7.42,7.42,0,0,0,4.5-1.57Z"/><path class="cls-2" d="M736.3,177.57a9.94,9.94,0,0,1,2.55-7.2,9.16,9.16,0,0,1,6.91-2.64,8.43,8.43,0,0,1,6.5,2.54,11.37,11.37,0,0,1-.16,14.07,8.8,8.8,0,0,1-6.75,2.68,8.67,8.67,0,0,1-6.6-2.6A9.54,9.54,0,0,1,736.3,177.57Zm3.33-.1a7.33,7.33,0,0,0,1.61,5,5.46,5.46,0,0,0,4.32,1.83,5.18,5.18,0,0,0,4.26-1.79,9.79,9.79,0,0,0,0-10.3,5.18,5.18,0,0,0-4.26-1.8,5.38,5.38,0,0,0-4.34,1.88A7.75,7.75,0,0,0,739.63,177.47Z"/><path class="cls-2" d="M785.73,186.58h-3.26V176a7.52,7.52,0,0,0-.93-4.29,3.53,3.53,0,0,0-3.07-1.29,3.78,3.78,0,0,0-3.08,1.68,6.37,6.37,0,0,0-1.28,4v10.49h-3.26V175.67q0-5.25-4-5.25a3.73,3.73,0,0,0-3.09,1.6,6.51,6.51,0,0,0-1.23,4.08v10.48h-3.26V168.16h3.26v2.92h.07a6.28,6.28,0,0,1,5.75-3.35,5.45,5.45,0,0,1,3.26,1,5.23,5.23,0,0,1,2,2.75,6.59,6.59,0,0,1,6.13-3.76q6.08,0,6.08,7.5Z"/></g><g id="ico"><path class="cls-3" d="M114.18,4.74,95.4,0a73.08,73.08,0,0,1,16.82,2.24L131,7a73.22,73.22,0,0,0-16.82-2.24"/><path class="cls-3" d="M112.22,2.24,131,7a73.22,73.22,0,0,0-16.82-2.24L95.4,0A73.08,73.08,0,0,1,112.22,2.24Z"/><path class="cls-4" d="M110,28.52l0,0,.25-.28.08-.09.14-.17.08-.1.1-.13.08-.1.08-.1.07-.09.05-.07,0,0,0,0,.07-.1,0,0,0-.07L92.34,22.36l0,.07,0,0-.08.11,0,0-.08.1,0,.06-.1.13-.05.07-.14.17,0,.06-.2.23,0,0c-.16.18-.34.38-.55.59l0,.05-.27.27-.1.09-.25.24-.17.16L89.9,25l-.21.18-.19.16-.26.21-.17.13-.46.35-.15.11-.34.24-.2.13-.33.22-.23.14-.33.2-.26.15-.35.2-.2.11-.4.21-.23.12-.41.2-.24.11-.51.22-.17.07-.71.27-.18.06L82.8,29l-.27.09-.52.15-.3.09-.55.14-.28.07-.72.16-.14,0-.89.16-.27,0-.67.09-.34,0-.64.06-.36,0-.69,0-.33,0-1,0a34.53,34.53,0,0,1-8.6-1.12l1.88.48.94.24,1.62.41.46.11,1.67.42.43.11,1,.26,1.35.34,1.35.34.53.13.37.09,2.26.57.19,0,.25.06L85,33.88A34.53,34.53,0,0,0,93.6,35l1,0L95,35l.69,0,.37,0,.63-.06.35,0,.66-.09.27,0,.89-.16.15,0,.71-.16.29-.07.54-.14.3-.08.51-.15.28-.09.55-.19.19-.07.7-.27.18-.08.49-.21.24-.11.41-.19.24-.12.39-.2.22-.12.07,0,.26-.15.27-.15.33-.2.24-.15.34-.22.19-.13.4-.28.1-.07.46-.35.1-.08.33-.26.15-.13.25-.21.16-.15.17-.15,0,0,.23-.22.12-.12.22-.22.1-.1Z"/><polygon class="cls-5" points="166.5 193 147.72 188.26 133.5 171.2 152.29 175.94 166.5 193"/><path class="cls-6" d="M80.37,157.65l-18.78-4.74a67.64,67.64,0,0,0,16.86,2,72,72,0,0,0,33.08-8l18.78,4.74a71.91,71.91,0,0,1-33.09,8,67.81,67.81,0,0,1-16.86-2"/><path class="cls-7" d="M130.31,151.73,111.53,147l.33-.19,18.78,4.75-.33.18"/><path class="cls-8" d="M80.37,157.65l-1.88-.47-.94-.24-1.88-.47L73.79,156l-.94-.24L71,155.28l-1.88-.47-.94-.24-1.88-.47-1.88-.48-.94-.24-1.88-.48a67.64,67.64,0,0,0,16.86,2c19.41-.07,32.71-7.74,33.41-8.15l18.78,4.75c-.7.4-14,8.08-33.41,8.15A67.81,67.81,0,0,1,80.37,157.65Z"/><path class="cls-9" d="M153.83,126.72,135.05,122C171.4,37.56,99.2,1.88,95.4,0l18.78,4.74C118,6.62,190.18,42.31,153.83,126.72Z"/><polygon class="cls-10" points="130.64 151.55 111.86 146.8 60.44 85.53 79.22 90.27 130.64 151.55"/><path class="cls-11" d="M79.44,190.27l-18.78-4.74a78,78,0,0,1-31-16.2l18.78,4.74a78.05,78.05,0,0,0,31,16.2"/><path class="cls-12" d="M35.87,161.36l-18.78-4.74A85.76,85.76,0,0,1,6.58,140.95l18.78,4.74a85.82,85.82,0,0,0,10.51,15.67"/><path class="cls-12" d="M35.87,161.36l-18.78-4.74A85.76,85.76,0,0,1,6.58,140.95l18.78,4.74A85.82,85.82,0,0,0,35.87,161.36Z"/><polygon class="cls-13" points="25.36 145.69 6.58 140.95 20.82 125.9 39.6 130.64 25.36 145.69"/><path class="cls-14" d="M35.87,161.36l-18.78-4.74-.16,2.59-.15,0a11.84,11.84,0,0,0-2.9-.36l-.75,0-.24,0-.5.05-.27,0-.46.08-.27.05-.47.11-.25.07-.54.16-.16.05-.69.25-.16.07L8.6,160l-.23.11-.43.22-.11.06-.12.07-.47.28-.2.13-.61.42,0,0-.62.48-.17.15-.42.37-.1.09-.1.1-.31.3-.2.21-.31.33-.18.2-.32.38-.15.18-.37.49-.07.09h0c-.15.21-.3.42-.44.64l-.11.17-.3.49-.14.24-.24.44-.13.26-.22.46-.08.17,0,.09-.15.37-.12.31-.14.38L.84,169l-.12.4-.09.31c0,.14-.07.27-.11.41l-.08.31-.09.43-.06.3c0,.15-.05.31-.08.47l0,.28c0,.17,0,.35-.06.52l0,.23c0,.26,0,.51-.05.77-.32,6.95,3.78,12.75,9.57,14.21l18.78,4.74c-5.79-1.46-9.9-7.26-9.57-14.21,0-.26,0-.51.05-.77l0-.26c0-.16,0-.33.06-.5l.05-.31c0-.15,0-.29.07-.44l.07-.32c0-.14.06-.28.09-.42l.08-.32c0-.13.07-.27.11-.4l.1-.32c0-.13.08-.26.12-.39l.11-.32.14-.37.13-.31.15-.37.12-.27.22-.46.14-.27.24-.44.14-.25.29-.47.12-.19c.14-.22.28-.43.43-.63l.1-.14.34-.45.17-.2.3-.36.19-.21.3-.32.21-.21.3-.3.21-.19.41-.36.19-.16.61-.47.05,0,.59-.4.21-.13.45-.27.24-.14.42-.21.24-.12.49-.22.18-.08.68-.25.18-.06.52-.16.26-.07.45-.11.28-.06.45-.08.28,0,.49-.05.24,0,.75,0a11.63,11.63,0,0,1,2.88.36l.17,0Z"/><path class="cls-15" d="M114.18,4.74c27.2.39,60.85,17.07,73.91,59.13,14.27,45.92-11.7,85.6-13.07,87.68L189.87,169,166.5,193l-14.21-17.07-1.07.6c-20.32,11.48-38,15.92-53.19,16-21.42.08-37.85-8.57-49.63-18.44L45,175.42a16.13,16.13,0,0,1,.11,2.69c-.38,8.07-6.59,14.63-13.86,14.66s-12.87-6.5-12.5-14.57,6.59-14.63,13.86-14.65a11.73,11.73,0,0,1,3,.4l.16-2.59a85.82,85.82,0,0,1-10.51-15.67L39.6,130.64c19.5,23,40.63,29.12,57.62,29.06,19.41-.07,32.71-7.75,33.41-8.15L79.22,90.27,61.84,107.73,39.91,81,84.46,33.74A35,35,0,0,0,93.6,35c12.31,0,17.26-7.5,17.52-7.9l12.69,15-22.15,24,52.17,60.63C190.18,42.31,118,6.62,114.18,4.74Z"/><polygon class="cls-16" points="39.91 80.99 21.13 76.25 65.67 29 84.46 33.74 39.91 80.99"/><polygon class="cls-17" points="61.84 107.73 43.06 102.99 21.13 76.25 39.91 80.99 61.84 107.73"/><polygon class="cls-18" points="65.67 29 83.32 34.13 39.91 80.99 84.46 33.74 65.67 29"/><polygon class="cls-18" points="21.13 76.25 39.52 81.73 61.75 107.74 39.91 80.99 21.13 76.25"/></g></g></g></svg>